<?xml version="1.0" encoding="utf-8"?>
<!-- Generator: Adobe Illustrator 27.5.0, SVG Export Plug-In . SVG Version: 6.00 Build 0)  -->
<svg version="1.1" id="Layer_1" xmlns="http://www.w3.org/2000/svg" xmlns:xlink="http://www.w3.org/1999/xlink" x="0px" y="0px"
	 viewBox="0 0 239 255.8" style="enable-background:new 0 0 239 255.8;" xml:space="preserve">
<path d="M81.2,255.8H66.3l-1-1l7.1-7.6L81.2,255.8z M141.9,175.6l-32.2-31l-47.5,47.5l-8-8.1c-0.4-0.5-0.4-1.2,0-1.7l65.5-65.5
	l39.7,39.7l27.7,27.7c0.5,0.5,0.5,1.2,0,1.7l-65.6,65.7l-13.8-13.8l-8.4,8.4l9.7,9.7h25l61.6-61.6c5.1-5.1,5.1-13.4,0-18.5
	L166.9,149l23.1-23.1l-71.1-71.1L96.8,76.9l8.4,8.4l13.7-13.7l55,54.3l-13.7,13.7l-40.4-39.8l-73.9,73.9c-5,5.1-5.1,13.3-0.1,18.4
	L62.1,209l47.7-47.7l15.2,14.4l-61.1,61.1L14.3,188c-3.2-3.3-3.2-8.5,0-11.8l74-74L80,93.7l-74,74c-7.9,7.9-7.9,20.7,0,28.6
	l57.9,57.3L141.9,175.6z M233.1,168.9l-27.8-27.8l-8.4,8.4l27.8,27.8c3.3,3.3,3.3,8.5,0,11.8L158,255.8h16.8l58.2-58.2
	C241,189.7,241,176.8,233.1,168.9z"/>
</svg>
