<?xml version="1.0" encoding="utf-8"?>
<!-- Generator: Adobe Illustrator 27.5.0, SVG Export Plug-In . SVG Version: 6.00 Build 0)  -->
<svg version="1.1" id="Layer_1" xmlns="http://www.w3.org/2000/svg" xmlns:xlink="http://www.w3.org/1999/xlink" x="0px" y="0px"
	 viewBox="0 0 24 24" style="enable-background:new 0 0 24 24;" xml:space="preserve">
<style type="text/css">
	.st0{fill:#FFFFFF;}
	.st1{fill:#888888;}
	.st2{fill:none;}
	.st3{fill:#707070;}
</style>
<g id="Group_684_00000028326824173599190090000017222303343258515617_" transform="translate(696.356 -1559)">
	
		<rect id="Rectangle_23_00000072976035125170300430000018201684206356247971_" x="-1106.3" y="1507.5" class="st0" width="1.6" height="13.9"/>
	
		<rect id="Rectangle_24_00000131325098606254390850000018088279386460934530_" x="-1102.7" y="1507.5" class="st0" width="1" height="13.9"/>
	
		<rect id="Rectangle_25_00000031169655165362611980000018120579165931962285_" x="-1099.7" y="1507.5" class="st0" width="1.6" height="13.9"/>
	
		<rect id="Rectangle_181_00000178188704132363461000000008866504605513634199_" x="-1096" y="1507.5" class="st0" width="0.9" height="14"/>
	
		<rect id="Rectangle_183_00000114050187472258382610000005524951461077137572_" x="-1089.7" y="1507.5" class="st0" width="0.9" height="14"/>
	
		<rect id="Rectangle_182_00000044164737926533095610000010249757531553968050_" x="-1093.6" y="1507.5" class="st0" width="3.1" height="14"/>
</g>
<path id="Group_13_00000106825921762597690400000001767886658211143058_" transform="translate(-177 -2224)" class="st0" d="
	M-191.1,2175.2l-3.6-3.1l-1,1.2l3.6,3.1L-191.1,2175.2z M-202.2,2173.4l-1-1.2l-3.6,3l1,1.2L-202.2,2173.4z M-198.6,2177h-1.2v4.8
	l3.7,2.3l0.6-1l-3.2-1.9V2177z M-199,2173.8c-3.9,0-7.1,3.2-7.1,7.1c0,3.9,3.2,7.1,7.1,7.1s7.1-3.2,7.1-7.1c0,0,0,0,0,0
	C-191.9,2177.1-195,2173.9-199,2173.8C-199,2173.8-199,2173.8-199,2173.8z M-199,2186.5c-3.1,0-5.6-2.5-5.6-5.5
	c0-3.1,2.5-5.6,5.5-5.6c3.1,0,5.6,2.5,5.6,5.5c0,0,0,0,0,0C-193.4,2184-195.9,2186.5-199,2186.5C-199,2186.5-199,2186.5-199,2186.5z
	"/>
<path id="Path_1243_00000004543345744937648530000017980825493101956525_" class="st0" d="M-258.9-36.1h16v-1.8h-16V-36.1z
	 M-258.9-39.6h16v-1.8h-16V-39.6z M-258.9-43.2h16v-1.8h-16V-43.2z M-258.9-46.7h16v-1.8h-16V-46.7z M-258.9-52.1v1.8h16v-1.8
	H-258.9z"/>
<g id="Group_688_00000082338278524290217950000011832179489209163651_" transform="translate(-74 -533)">
	<g id="outline-check_box-24px_00000054968254123948646290000015725677140618801333_" transform="translate(74 533)">
		<g id="Outline_00000034810798892407486230000006022911656001525150_" transform="translate(3 3)">
			<g id="Group_397_00000028287780851934146580000005084274729974587834_">
				<path id="Path_3523_00000103946230473536171490000000162164935533856647_" class="st0" d="M-272.6-55h-12.4
					c-1,0-1.8,0.8-1.8,1.8v12.4c0,1,0.8,1.8,1.8,1.8h12.4c1,0,1.8-0.8,1.8-1.8v-12.4C-270.9-54.2-271.6-55-272.6-55z M-272.6-40.7
					h-12.4v-12.4h12.4V-40.7z"/>
			</g>
		</g>
	</g>
	<path id="_Color_00000156579925673225555750000017182868941325565851_" class="st0" d="M-197.5,486l-4.4,4.4l-4.4-4.4l-1.3,1.3
		l5.7,5.7l5.7-5.7L-197.5,486z"/>
</g>
<path id="Path_1344_00000134969709234130035960000011986575426427061678_" class="st0" d="M-358.4-51.8v3.2h5.7v12.8h3.1v-12.8h5.7
	v-3.2H-358.4z"/>
<path class="st0" d="M-319.4-52.2h-12.4c-1,0-1.8,0.8-1.8,1.8c0,0,0,0,0,0v12.4c0,1,0.8,1.8,1.8,1.8c0,0,0,0,0,0h12.4
	c1,0,1.8-0.8,1.8-1.8v-12.4C-317.6-51.4-318.4-52.2-319.4-52.2z M-319.4-37.9h-12.4v-12.4h12.4V-37.9z M-326.3-40.7h1.4v-2.7h2.7
	v-1.4h-2.7v-2.7h-1.4v2.7h-2.7v1.4h2.7V-40.7z"/>
<path id="Outline_00000106115037372366873120000007580878051183377312_" transform="translate(3 3)" class="st0" d="M-297.6-55
	h-12.4c-1,0-1.8,0.8-1.8,1.8v12.4c0,1,0.8,1.8,1.8,1.8h12.4c1,0,1.8-0.8,1.8-1.8v-12.4C-295.9-54.2-296.7-55-297.6-55z M-297.6-40.8
	h-12.4v-4.1l0.9,0.9l3.6-3.6l3.6,3.6l3.6-3.5l0.9,0.9L-297.6-40.8z M-297.6-49.1l-0.9-0.9l-3.6,3.6l-3.6-3.6l-3.6,3.6l-0.9-0.9v-5.9
	h12.4V-49.1z"/>
<path class="st1" d="M-266.1,65.5c2-0.8,3.4-2.7,3.4-5c0-3-2.4-5.4-5.4-5.4c-3,0-5.4,2.4-5.4,5.4c0,2.3,1.4,4.3,3.4,5
	c-5.3,0.9-9.3,5.5-9.3,11v0.5h22.4v-0.5C-256.9,71-260.9,66.4-266.1,65.5z M-272.4,60.4c0-2.4,1.9-4.3,4.3-4.3
	c2.4,0,4.3,1.9,4.3,4.3c0,2.4-1.9,4.3-4.3,4.3C-270.5,64.8-272.4,62.8-272.4,60.4z M-278.2,76c0.3-5.3,4.7-9.6,10.1-9.6
	c5.4,0,9.8,4.3,10.1,9.6H-278.2z"/>
<path id="Path_2239_00000029017037782311809480000003003591344912460972_" class="st0" d="M-227-48c-2.2,0-4,1.8-4,4s1.8,4,4,4
	s4-1.8,4-4S-224.8-48-227-48z M-227-52c-4.4,0-8,3.6-8,8s3.6,8,8,8s8-3.6,8-8S-222.6-52-227-52z M-227-37.6c-3.5,0-6.4-2.9-6.4-6.4
	s2.9-6.4,6.4-6.4s6.4,2.9,6.4,6.4l0,0C-220.6-40.5-223.5-37.6-227-37.6z"/>
<g id="Bounding_Boxes_00000016774392586965421650000017704883475187606703_">
	<path id="Path_3522_00000036247633744704999330000006526453780113976222_" class="st2" d="M-268.7,104.7h20v20h-20V104.7z"/>
</g>
<path class="st0" d="M-47.7-42.7h13.3v1.7h-13.3V-42.7z M-47.7-46v1.7h13.3V-46H-47.7z"/>
<path class="st0" d="M-175-52c-3.9,0-7,2.5-7,5.6c0,4.2,7,10.4,7,10.4s7-6.2,7-10.4C-168-49.5-171.1-52-175-52z M-180-46.4
	c0-2.2,2.2-4,5-4s5,1.8,5,4c0,2.3-2.9,5.8-5,7.9C-177.1-40.6-180-44.1-180-46.4z M-175-48.7c1.4,0,2.5,1.1,2.5,2.5
	c0,1.4-1.1,2.5-2.5,2.5s-2.5-1.1-2.5-2.5C-177.5-47.6-176.4-48.7-175-48.7z"/>
<path class="st0" d="M-140.2-43.4l-7.2-7.2c-0.3-0.3-0.7-0.5-1.1-0.5h-5.6c-0.9,0-1.6,0.7-1.6,1.6v5.6c0,0.4,0.2,0.8,0.5,1.1
	l7.2,7.2c0.3,0.3,0.7,0.5,1.1,0.5c0.4,0,0.8-0.2,1.1-0.5l5.6-5.6c0.3-0.3,0.5-0.7,0.5-1.1C-139.8-42.7-139.9-43.1-140.2-43.4z
	 M-147-36.7l-7.2-7.2v-5.6h5.6v0l7.2,7.2L-147-36.7z M-152-48.8c0.8,0,1.5,0.7,1.5,1.5s-0.7,1.5-1.5,1.5c-0.8,0-1.5-0.7-1.5-1.5
	S-152.8-48.8-152-48.8z"/>
<path class="st0" d="M-119.9-44c-0.4-0.3-1-0.6-1.7-0.8l-0.2,0v-2.7c0.2,0,0.4,0.1,0.5,0.1c0.2,0.1,0.5,0.3,0.6,0.5
	c0.2,0.2,0.2,0.4,0.3,0.7l0,0.1h1l0-0.1c0-0.5-0.2-0.8-0.4-1.2c-0.2-0.3-0.6-0.6-1-0.8c-0.3-0.1-0.7-0.2-1-0.3v-1h-0.7v1
	c-0.4,0-0.7,0.1-1,0.3c-0.4,0.2-0.8,0.4-1,0.8c-0.2,0.3-0.4,0.7-0.4,1.2v0c0,0.4,0.1,0.7,0.3,1c0.2,0.3,0.4,0.5,0.8,0.7
	c0.3,0.2,0.7,0.3,1.2,0.5l0.1,0v2.8c-0.3,0-0.5-0.1-0.7-0.2c-0.3-0.1-0.5-0.3-0.6-0.5c-0.1-0.2-0.2-0.4-0.3-0.7l0-0.1h-1l0,0.1
	c0,0.5,0.2,0.9,0.5,1.2c0.3,0.3,0.6,0.6,1.1,0.8c0.3,0.1,0.7,0.2,1,0.2v1h0.7v-1c0.4,0,0.7-0.1,1.1-0.2c0.4-0.2,0.8-0.4,1.1-0.8
	c0.3-0.3,0.4-0.8,0.4-1.3C-119.3-43.2-119.5-43.6-119.9-44z M-122.5-45c-0.3-0.1-0.6-0.2-0.8-0.3c-0.2-0.1-0.4-0.3-0.4-0.4
	c-0.1-0.2-0.1-0.3-0.1-0.5c0-0.2,0.1-0.4,0.2-0.6c0.1-0.2,0.3-0.3,0.6-0.5c0.2-0.1,0.4-0.1,0.6-0.2V-45z M-120.3-42.5
	c0,0.2-0.1,0.5-0.2,0.7c-0.1,0.2-0.3,0.4-0.6,0.5c-0.2,0.1-0.4,0.1-0.7,0.2v-2.7l0,0c0.6,0.1,1,0.3,1.2,0.5
	C-120.4-43.1-120.3-42.8-120.3-42.5L-120.3-42.5z M-121.8-52.1C-121.8-52.1-121.8-52.1-121.8-52.1c-4.4,0-8,3.6-8,8c0,4.4,3.6,8,8,8
	c4.4,0,8-3.6,8-8C-113.8-48.5-117.3-52.1-121.8-52.1z M-117.2-39.6c-1.2,1.2-2.8,1.9-4.5,1.9c-3.5,0-6.4-2.9-6.4-6.4
	c0-3.5,2.9-6.4,6.4-6.4c3.5,0,6.4,2.9,6.4,6.4C-115.4-42.3-116.1-40.7-117.2-39.6z M-119.9-44c-0.4-0.3-1-0.6-1.7-0.8l-0.2,0v-2.7
	c0.2,0,0.4,0.1,0.5,0.1c0.2,0.1,0.5,0.3,0.6,0.5c0.2,0.2,0.2,0.4,0.3,0.7l0,0.1h1l0-0.1c0-0.5-0.2-0.8-0.4-1.2
	c-0.2-0.3-0.6-0.6-1-0.8c-0.3-0.1-0.7-0.2-1-0.3v-1h-0.7v1c-0.4,0-0.7,0.1-1,0.3c-0.4,0.2-0.8,0.4-1,0.8c-0.2,0.3-0.4,0.7-0.4,1.2v0
	c0,0.4,0.1,0.7,0.3,1c0.2,0.3,0.4,0.5,0.8,0.7c0.3,0.2,0.7,0.3,1.2,0.5l0.1,0v2.8c-0.3,0-0.5-0.1-0.7-0.2c-0.3-0.1-0.5-0.3-0.6-0.5
	c-0.1-0.2-0.2-0.4-0.3-0.7l0-0.1h-1l0,0.1c0,0.5,0.2,0.9,0.5,1.2c0.3,0.3,0.6,0.6,1.1,0.8c0.3,0.1,0.7,0.2,1,0.2v1h0.7v-1
	c0.4,0,0.7-0.1,1.1-0.2c0.4-0.2,0.8-0.4,1.1-0.8c0.3-0.3,0.4-0.8,0.4-1.3C-119.3-43.2-119.5-43.6-119.9-44z M-122.5-45
	c-0.3-0.1-0.6-0.2-0.8-0.3c-0.2-0.1-0.4-0.3-0.4-0.4c-0.1-0.2-0.1-0.3-0.1-0.5c0-0.2,0.1-0.4,0.2-0.6c0.1-0.2,0.3-0.3,0.6-0.5
	c0.2-0.1,0.4-0.1,0.6-0.2V-45z M-120.3-42.5c0,0.2-0.1,0.5-0.2,0.7c-0.1,0.2-0.3,0.4-0.6,0.5c-0.2,0.1-0.4,0.1-0.7,0.2v-2.7l0,0
	c0.6,0.1,1,0.3,1.2,0.5C-120.4-43.1-120.3-42.8-120.3-42.5L-120.3-42.5z"/>
<path class="st0" d="M-102.8-44.5c0-3,2-5.5,4.4-5.5h8.4c1.8,0,3.2,1.8,3.2,4s-1.4,4-3.2,4h-6.8c-1.2-0.2-2.1-1.3-2-2.5
	c-0.1-1.2,0.8-2.3,2-2.5h6v2h-6.1c-0.4,0-0.4,1,0,1h6.9c1-0.1,1.7-1,1.6-2c0.1-1-0.6-1.9-1.6-2h-8.4c-1.5,0-2.8,1.6-2.8,3.5
	s1.3,3.5,2.8,3.5h7.6v2h-7.6C-100.8-39-102.8-41.5-102.8-44.5z"/>
<path class="st0" d="M-62.6-49.8h-0.8v-1.6h-1.6v1.6h-6.2v-1.6h-1.6v1.6h-0.8c-0.9,0-1.6,0.7-1.5,1.6c0,0,0,0,0,0l0,11.2
	c0,0.9,0.7,1.6,1.6,1.6c0,0,0,0,0,0h10.9c0.9,0,1.6-0.7,1.6-1.6v-11.2C-61-49.1-61.7-49.8-62.6-49.8z M-62.6-37h-10.9v-8h10.9V-37z
	 M-62.6-46.6h-10.9v-1.6h10.9V-46.6z M-63.8-43.3h-5v5h5V-43.3z"/>
<path class="st0" d="M-9.2-50.3h-10.9c-0.9,0-1.6,0.7-1.6,1.6v10.9c0,0.9,0.7,1.6,1.6,1.6h10.9c0.9,0,1.6-0.7,1.6-1.6v-10.9
	C-7.7-49.6-8.4-50.3-9.2-50.3z M-9.2-37.9h-10.9v-10.9h10.9V-37.9z M-10.7-46.4l-0.9-1.4l-4.4,6.6l-1.7-2.6l-0.9,1.4l2.7,4
	L-10.7-46.4z"/>
<g>
	<path class="st1" d="M-295,72.3c-7.7,0-11.4-6.5-11.4-6.5l-0.1-0.2l0.1-0.2c0.2-0.3,3.9-6.8,11.3-6.7c6.8,0.4,10,3.8,11.5,6.6
		l0.1,0.2l-0.1,0.2C-283.6,65.8-287.3,72.3-295,72.3C-295,72.3-295,72.3-295,72.3z M-305.4,65.6c0.7,1.1,4.1,5.8,10.5,5.8
		c0,0,0,0,0,0c6.4,0,9.8-4.9,10.5-6c-1.4-2.5-4.4-5.5-10.6-5.9C-301.2,59.5-304.7,64.5-305.4,65.6z M-294.9,69.6
		c-2.3,0-4.1-1.9-4.1-4.1c0-2.3,1.9-4.1,4.1-4.1s4.1,1.9,4.1,4.1C-290.8,67.8-292.7,69.6-294.9,69.6z M-294.9,62.3
		c-1.8,0-3.2,1.4-3.2,3.2c0,1.8,1.4,3.2,3.2,3.2s3.2-1.4,3.2-3.2C-291.7,63.7-293.2,62.3-294.9,62.3z"/>
</g>
<path class="st1" d="M-311.3,64.8c-0.8-1.5-2.2-3.2-4.4-4.5c0.8-0.6,1.4-1,1.6-1.1l-0.3-0.9c-0.1,0-1,0.6-2.2,1.5
	c-1.6-0.8-3.6-1.3-6.1-1.5c-7.2-0.1-11,6.3-11.1,6.6l-0.1,0.2c0,0,1.4,2.5,4.2,4.4c-0.6,0.4-1.1,0.8-1.5,1.2l0.5,0.7
	c0.6-0.4,1.2-0.9,1.8-1.4c1.7,1,3.8,1.7,6.3,1.7c0,0,0,0,0,0c7.6,0,11.2-6.5,11.2-6.5l0.1-0.2L-311.3,64.8z M-328.9,69
	c-2.2-1.4-3.5-3.2-3.9-3.8c0.7-1.1,4.2-6,10.2-5.9c2.1,0.1,3.9,0.6,5.3,1.2c-0.6,0.5-1.3,1-2.1,1.5c-0.8-0.8-2-1.2-3.1-1.2
	c-2.5,0-4.5,2-4.5,4.5c0,0.7,0.2,1.4,0.5,2C-327.4,67.8-328.2,68.4-328.9,69z M-320.1,62.4c-1.8,1.3-3.8,2.8-5.7,4.2
	c-0.2-0.5-0.3-1-0.3-1.5c0-2,1.6-3.6,3.6-3.6C-321.6,61.6-320.8,61.9-320.1,62.4z M-322.5,70.8C-322.5,70.8-322.5,70.8-322.5,70.8
	c-2.2,0-4.1-0.6-5.6-1.4c4.1-3.1,8.8-6.6,11.6-8.6c2.1,1.2,3.4,2.7,4.2,4.2C-312.9,66-316.2,70.8-322.5,70.8z M-314,59.1
	C-314,59.1-314,59.1-314,59.1l-0.2-0.4L-314,59.1z M-325.1,67.9 M-325.5,67.1"/>
<g id="Iconly_Light_Home_00000093896671245090293730000008729394151477668239_" transform="translate(0.75 0.868)">
	<g id="Home_00000038408691212145899200000005256053559806833561_">
		<g id="Home-2_00000122700358486849267820000009804222938310622388_">
			<path class="st3" d="M-329.2,104.5c-2.3,0-4.2-1.9-4.2-4.2v-8.7c0-1,0.5-1.9,1.3-2.5l6.5-5.2c1.4-1.1,3.4-1.1,4.9,0l6.6,5.3
				c0.8,0.6,1.2,1.5,1.2,2.5v8.7c0,1.1-0.5,2.2-1.2,3c-0.8,0.8-1.8,1.2-3,1.2c0,0,0,0,0,0h-1.9c-1.1,0-1.9-0.9-1.9-2v-3.1
				c0-0.2-0.1-0.3-0.2-0.5c-0.1-0.1-0.3-0.2-0.5-0.2c0,0,0,0,0,0h-2.9c-0.4,0-0.7,0.3-0.7,0.7v3.1c0,0.1,0,0.1,0,0.2
				c0,0.5-0.2,0.9-0.6,1.2c-0.4,0.4-0.9,0.6-1.4,0.6H-329.2C-329.2,104.5-329.2,104.5-329.2,104.5z M-321.7,97.3
				c1.2,0,2.2,1,2.2,2.2v3.1c0,0.3,0.2,0.5,0.5,0.5h1.9c0.8,0,1.4-0.3,1.9-0.8c0.5-0.5,0.8-1.2,0.8-1.9v-8.7c0-0.5-0.3-1-0.7-1.3
				l-6.6-5.3c-0.9-0.7-2.1-0.7-3,0l-6.5,5.3c-0.4,0.3-0.7,0.8-0.7,1.3v8.7c0,1.5,1.2,2.7,2.7,2.7c0,0,0,0,0,0h1.9
				c0.2,0,0.3,0,0.3-0.1c0.1-0.1,0.1-0.2,0.1-0.3c0-0.1,0-0.1,0-0.2v-2.9c0-1.2,1-2.2,2.2-2.2H-321.7
				C-321.7,97.3-321.7,97.3-321.7,97.3z"/>
		</g>
	</g>
</g>
<path id="Iconly_Light_Paper_00000163058131940465813360000010880934591986308026_" transform="translate(0.75 0.75)" class="st3" d="
	M-284.8,88.7l-6.1-6.3c-0.1-0.1-0.3-0.2-0.5-0.2h-8c0,0,0,0,0,0c-2.9,0-5.2,2.3-5.3,5.2v12.8c-0.1,2.9,2.3,5.4,5.2,5.5h9.7
	c2.9-0.1,5.2-2.5,5.2-5.4v-11C-284.6,89-284.7,88.8-284.8,88.7z M-286.9,88.7h-1.8c-1.3,0-2.3-1-2.3-2.3v-1.9L-286.9,88.7z
	 M-286.1,100.2c0,2.1-1.6,3.8-3.7,3.9h-9.7c-2.1,0-3.8-1.8-3.8-3.9V87.4c0-2.1,1.8-3.7,3.8-3.7h6.9v2.7c0,2.1,1.7,3.8,3.8,3.8h2.6
	V100.2z M-291.7,82.1h-0.1C-291.8,82.1-291.8,82.1-291.7,82.1C-291.7,82.1-291.7,82.1-291.7,82.1z M-292,98.7h-6.5
	c-0.4,0-0.8-0.3-0.8-0.8s0.3-0.8,0.8-0.8h6.5c0.4,0,0.8,0.3,0.8,0.8S-291.6,98.7-292,98.7z M-294.4,94.2h-4c-0.4,0-0.8-0.3-0.8-0.8
	s0.3-0.8,0.8-0.8h4c0.4,0,0.8,0.3,0.8,0.8S-294,94.2-294.4,94.2z"/>
<path id="Iconly_Light_Notification_00000112613489176901342020000005142763003556001701_" class="st3" d="M-267,101.8
	c-5.1,0-9.7-0.4-10.1-4.7c0-1.8,0.5-2.7,1-3.5c0.5-0.8,1-1.6,1-3.5c0-3.5,3.3-7.3,8.1-7.3c4.8,0,8.1,3.8,8.1,7.3
	c0,1.8,0.5,2.6,1,3.5c0.5,0.8,1,1.7,1,3.4C-257.2,101-260.8,101.8-267,101.8z M-267,84.4c-3.9,0-6.6,3.1-6.6,5.8
	c0,2.3-0.6,3.3-1.2,4.2c-0.5,0.8-0.8,1.4-0.8,2.7c0.2,2.4,2.3,3.2,8.6,3.2c7,0,8.4-1.2,8.6-3.3c0-1.2-0.4-1.8-0.8-2.6
	c-0.6-0.9-1.2-2-1.2-4.2C-260.4,87.4-263.1,84.4-267,84.4z M-266.6,106.4c1.1-0.1,2.1-0.6,2.9-1.5c0.3-0.3,0.2-0.8-0.1-1.1
	c-0.3-0.3-0.8-0.2-1.1,0.1c-0.5,0.6-1.1,0.9-1.8,1c-0.7,0.1-1.4-0.2-2-0.6c-0.1-0.1-0.2-0.2-0.4-0.4c-0.3-0.3-0.7-0.4-1.1-0.1
	c-0.3,0.3-0.4,0.7-0.1,1.1c0.2,0.2,0.4,0.4,0.6,0.6c0.8,0.6,1.7,1,2.7,1C-266.9,106.4-266.7,106.4-266.6,106.4z"/>
<g id="Iconly_Light_Upload" transform="translate(0.75 0.75)">
	<g id="Upload" transform="translate(0 14.038) rotate(-90)">
		<g id="Stroke_1">
			<path class="st3" d="M-89.8-207.3v-9.7c0-1.1,0.4-2.2,1.2-2.9c0.8-0.8,1.8-1.2,2.9-1.2h4.3c2.3,0,4.2,1.8,4.2,4.1v0.8
				c0,0.5-0.4,0.9-0.9,0.9c-0.5,0-0.9-0.4-0.9-0.9v-0.8c0-0.6-0.2-1.2-0.7-1.6c-0.4-0.4-1-0.7-1.7-0.7h-4.3c-0.6,0-1.2,0.2-1.7,0.7
				c-0.4,0.4-0.7,1-0.7,1.7v9.7c0,1.3,1.1,2.3,2.3,2.3h4.3c1.3,0,2.3-1,2.4-2.3v-0.8c0-0.5,0.4-0.9,0.9-0.9s0.9,0.4,0.9,0.9v0.8
				c0,2.3-1.9,4.1-4.2,4.1h-4.3C-87.9-203.2-89.8-205-89.8-207.3z"/>
		</g>
		<g id="Stroke_3">
			<path class="st3" d="M-71.5-212.8c0.1,0.1,0.2,0.3,0.3,0.5C-71.2-212.5-71.3-212.7-71.5-212.8z"/>
			<path class="st3" d="M-71.2-212.2c0,0.1,0,0.1,0,0.2c0-0.1,0-0.2,0-0.4C-71.2-212.3-71.2-212.2-71.2-212.2z"/>
			<path class="st3" d="M-71.5-211.5c0.1-0.1,0.2-0.3,0.3-0.5C-71.2-211.8-71.3-211.6-71.5-211.5z"/>
		</g>
		<g id="Stroke_5">
			<path class="st3" d="M-75.3-209c-0.3-0.3-0.3-0.9,0-1.3l1-1h-8.5c-0.5,0-0.9-0.4-0.9-0.9c0-0.5,0.4-0.9,0.9-0.9h8.5l-1-1
				c-0.2-0.2-0.3-0.4-0.3-0.6c0-0.2,0.1-0.5,0.3-0.6c0.4-0.4,0.9-0.4,1.3,0l2.5,2.4l0.1,0.1c0.1,0.1,0.2,0.3,0.3,0.5
				c0,0.1,0,0.2,0,0.4c0,0.2-0.1,0.3-0.3,0.5l-0.1,0.1L-74-209C-74.4-208.6-75-208.6-75.3-209z"/>
		</g>
	</g>
</g>
<path id="Iconly_Light_Edit_00000153663168305861285860000000213342339886426530_" transform="translate(0.758 0.919)" class="st3" d="
	M-232,102.2h-7.3c-0.4,0-0.8-0.3-0.8-0.8s0.3-0.8,0.8-0.8h7.3c0.4,0,0.8,0.3,0.8,0.8S-231.6,102.2-232,102.2z M-234,89.2
	c0,0.1-0.1,0.1-2,2.5c-1.4,1.7-3.7,4.6-7.7,9.6c-0.5,0.6-1.2,0.9-1.9,0.9l-3.6,0c0,0,0,0,0,0c-0.3,0-0.7-0.2-0.7-0.6l-0.8-3.5
	c-0.2-0.7,0-1.5,0.5-2l7.7-9.6l1.8-2.2l0,0c1.1-1.2,2.9-1.4,4.2-0.4l1.7,1.3c0.6,0.3,1.1,1,1.2,1.7S-233.6,88.5-234,89.2z
	 M-237.6,91.3l-4.3-3.3l-7.2,9c-0.2,0.2-0.2,0.5-0.2,0.8l0.7,2.9l3,0c0.3,0,0.6-0.1,0.7-0.4C-242.8,97.8-239.7,94-237.6,91.3z
	 M-235.1,87.3c-0.1-0.4-0.3-0.7-0.6-0.8l-1.8-1.4c-0.6-0.5-1.5-0.4-2.1,0.2l-1.3,1.6l4.3,3.3c0.8-1,1.4-1.7,1.4-1.8
	C-235.1,88.1-235,87.7-235.1,87.3z"/>
<path id="Group_734" transform="translate(172.891 -1235.377)" class="st3" d="M-515.6,1320.3h-12.6l-4.2,4.1v10.5
	c0,3.6,2.9,6.5,6.5,6.5h8c3.6,0,6.5-2.9,6.5-6.5v-10.5L-515.6,1320.3z M-527.6,1321.8h11.3l2.7,2.6h-16.7L-527.6,1321.8z
	 M-513.4,1334.9c0,2.5-2,4.5-4.5,4.5h-8c-2.5,0-4.5-2-4.5-4.5v-8.5h17V1334.9z M-512.4,1325.5L-512.4,1325.5L-512.4,1325.5
	L-512.4,1325.5L-512.4,1325.5z M-512.5,1325.4L-512.5,1325.4l0.1,0.1v-0.1H-512.5z M-532.4,1324.4L-532.4,1324.4L-532.4,1324.4
	L-532.4,1324.4z M-512.5,1325.4h0.1v0.1L-512.5,1325.4L-512.5,1325.4z M-511.4,1324.4L-511.4,1324.4L-511.4,1324.4L-511.4,1324.4z
	 M-518.6,1330h-6c-0.4,0-0.8-0.3-0.8-0.8s0.3-0.8,0.8-0.8h6c0.4,0,0.8,0.3,0.8,0.8S-518.2,1330-518.6,1330z"/>
<path class="st0" d="M-200.9-53c-4.4,0-8,3.6-8,8s3.6,8,8,8s8-3.6,8-8C-192.9-49.4-196.4-53-200.9-53C-200.9-53-200.9-53-200.9-53z
	 M-200.9-38.6c-3.5,0-6.4-2.9-6.4-6.4s2.9-6.4,6.4-6.4s6.4,2.9,6.4,6.4l0,0C-194.5-41.5-197.3-38.6-200.9-38.6z M-197.3-50l-3.6,3.6
	l-3.6-3.6l-1.4,1.4l3.6,3.6l-3.6,3.6l1.4,1.4l3.6-3.6l3.6,3.6l1.4-1.4l-3.6-3.6l3.6-3.6L-197.3-50z"/>
<g id="Group_684_00000183225562717518783470000001869650199485016505_" transform="translate(696.356 -1559)">
	<rect id="Rectangle_23_00000090987372486674579990000012112519099752700308_" x="-1106.3" y="1537.5" width="1.6" height="13.9"/>
	<rect id="Rectangle_24_00000157294210358749648110000010334494575127706498_" x="-1102.7" y="1537.5" width="1" height="13.9"/>
	<rect id="Rectangle_25_00000007421810140757722410000012779717254167905201_" x="-1099.7" y="1537.5" width="1.6" height="13.9"/>
	<rect id="Rectangle_181_00000142140150571824480030000004982566435454565551_" x="-1096" y="1537.5" width="0.9" height="14"/>
	<rect id="Rectangle_183_00000088122599939090181990000004340920499103445408_" x="-1089.7" y="1537.5" width="0.9" height="14"/>
	<rect id="Rectangle_182_00000026127601506829381650000011562932469271612551_" x="-1093.6" y="1537.5" width="3.1" height="14"/>
</g>
<path id="Group_13_00000073717612287968853710000017626952800795424401_" transform="translate(-177 -2224)" d="M-191.1,2205.2
	l-3.6-3.1l-1,1.2l3.6,3.1L-191.1,2205.2z M-202.2,2203.4l-1-1.2l-3.6,3l1,1.2L-202.2,2203.4z M-198.6,2207h-1.2v4.8l3.7,2.3l0.6-1
	l-3.2-1.9V2207z M-199,2203.8c-3.9,0-7.1,3.2-7.1,7.1c0,3.9,3.2,7.1,7.1,7.1s7.1-3.2,7.1-7.1c0,0,0,0,0,0
	C-191.9,2207.1-195,2203.9-199,2203.8C-199,2203.8-199,2203.8-199,2203.8z M-199,2216.5c-3.1,0-5.6-2.5-5.6-5.5
	c0-3.1,2.5-5.6,5.5-5.6c3.1,0,5.6,2.5,5.6,5.5c0,0,0,0,0,0C-193.4,2214-195.9,2216.5-199,2216.5C-199,2216.5-199,2216.5-199,2216.5z
	"/>
<path id="Path_1243_00000046299556458336212410000002169060388587827608_" d="M-258.9-6.1h16v-1.8h-16V-6.1z M-258.9-9.6h16v-1.8
	h-16V-9.6z M-258.9-13.2h16v-1.8h-16V-13.2z M-258.9-16.7h16v-1.8h-16V-16.7z M-258.9-22.1v1.8h16v-1.8H-258.9z"/>
<g id="Group_688_00000002383058183896295990000010183130363289987496_" transform="translate(-74 -533)">
	<g id="outline-check_box-24px_00000154416473941909217700000002342042742091756984_" transform="translate(74 533)">
		<g id="Outline_00000003815170131567333860000012289056579973019300_" transform="translate(3 3)">
			<g id="Group_397_00000014606717780307672270000000040147565674188427_">
				<path id="Path_3523_00000168834806476028660460000017172085501612444833_" d="M-272.6-25h-12.4c-1,0-1.8,0.8-1.8,1.8v12.4
					c0,1,0.8,1.8,1.8,1.8h12.4c1,0,1.8-0.8,1.8-1.8v-12.4C-270.9-24.2-271.6-25-272.6-25z M-272.6-10.7h-12.4v-12.4h12.4V-10.7z"/>
			</g>
		</g>
	</g>
	<path id="_Color_00000132080551104356971040000000785476510850985361_" d="M-197.5,516l-4.4,4.4l-4.4-4.4l-1.3,1.3l5.7,5.7l5.7-5.7
		L-197.5,516z"/>
</g>
<path id="Path_1344_00000051342476158696063960000017083368296647488142_" class="st1" d="M-358.4,6.2v3.2h5.7v12.8h3.1V9.4h5.7V6.2
	H-358.4z"/>
<path id="Path_1344_00000060752437454460857400000002110531812750326424_" d="M-358.4-21.8v3.2h5.7v12.8h3.1v-12.8h5.7v-3.2H-358.4z
	"/>
<path d="M-319.4-22.2h-12.4c-1,0-1.8,0.8-1.8,1.8c0,0,0,0,0,0v12.4c0,1,0.8,1.8,1.8,1.8c0,0,0,0,0,0h12.4c1,0,1.8-0.8,1.8-1.8v-12.4
	C-317.6-21.4-318.4-22.2-319.4-22.2z M-319.4-7.9h-12.4v-12.4h12.4V-7.9z M-326.3-10.7h1.4v-2.7h2.7v-1.4h-2.7v-2.7h-1.4v2.7h-2.7
	v1.4h2.7V-10.7z"/>
<path id="Outline_00000013887755401600055610000002950551194087232946_" transform="translate(3 3)" d="M-297.6-25h-12.4
	c-1,0-1.8,0.8-1.8,1.8v12.4c0,1,0.8,1.8,1.8,1.8h12.4c1,0,1.8-0.8,1.8-1.8v-12.4C-295.9-24.2-296.7-25-297.6-25z M-297.6-10.8h-12.4
	v-4.1l0.9,0.9l3.6-3.6l3.6,3.6l3.6-3.5l0.9,0.9L-297.6-10.8z M-297.6-19.1l-0.9-0.9l-3.6,3.6l-3.6-3.6l-3.6,3.6l-0.9-0.9v-5.9h12.4
	V-19.1z"/>
<path id="Path_2239_00000011721340339997512830000016387190413444605348_" d="M-227-18c-2.2,0-4,1.8-4,4s1.8,4,4,4s4-1.8,4-4
	S-224.8-18-227-18z M-227-22c-4.4,0-8,3.6-8,8s3.6,8,8,8s8-3.6,8-8S-222.6-22-227-22z M-227-7.6c-3.5,0-6.4-2.9-6.4-6.4
	s2.9-6.4,6.4-6.4c3.5,0,6.4,2.9,6.4,6.4v0C-220.6-10.5-223.5-7.6-227-7.6z"/>
<path d="M-47.7-12.7h13.3v1.7h-13.3V-12.7z M-47.7-16v1.7h13.3V-16H-47.7z"/>
<path d="M-175-22c-3.9,0-7,2.5-7,5.6c0,4.2,7,10.4,7,10.4s7-6.2,7-10.4C-168-19.5-171.1-22-175-22z M-180-16.4c0-2.2,2.2-4,5-4
	s5,1.8,5,4c0,2.3-2.9,5.8-5,7.9C-177.1-10.6-180-14.1-180-16.4z M-175-18.7c1.4,0,2.5,1.1,2.5,2.5c0,1.4-1.1,2.5-2.5,2.5
	s-2.5-1.1-2.5-2.5C-177.5-17.6-176.4-18.7-175-18.7z"/>
<path d="M-140.2-13.4l-7.2-7.2c-0.3-0.3-0.7-0.5-1.1-0.5h-5.6c-0.9,0-1.6,0.7-1.6,1.6v5.6c0,0.4,0.2,0.8,0.5,1.1l7.2,7.2
	c0.3,0.3,0.7,0.5,1.1,0.5c0.4,0,0.8-0.2,1.1-0.5l5.6-5.6c0.3-0.3,0.5-0.7,0.5-1.1C-139.8-12.7-139.9-13.1-140.2-13.4z M-147-6.7
	l-7.2-7.2v-5.6h5.6v0l7.2,7.2L-147-6.7z M-152-18.8c0.8,0,1.5,0.7,1.5,1.5c0,0.8-0.7,1.5-1.5,1.5c-0.8,0-1.5-0.7-1.5-1.5
	C-153.5-18.1-152.8-18.8-152-18.8z"/>
<path d="M-119.9-14c-0.4-0.3-1-0.6-1.7-0.8l-0.2,0v-2.7c0.2,0,0.4,0.1,0.5,0.1c0.2,0.1,0.5,0.3,0.6,0.5c0.2,0.2,0.2,0.4,0.3,0.7
	l0,0.1h1l0-0.1c0-0.5-0.2-0.8-0.4-1.2c-0.2-0.3-0.6-0.6-1-0.8c-0.3-0.1-0.7-0.2-1-0.3v-1h-0.7v1c-0.4,0-0.7,0.1-1,0.3
	c-0.4,0.2-0.8,0.4-1,0.8c-0.2,0.3-0.4,0.7-0.4,1.2v0c0,0.4,0.1,0.7,0.3,1c0.2,0.3,0.4,0.5,0.8,0.7c0.3,0.2,0.7,0.3,1.2,0.5l0.1,0
	v2.8c-0.3,0-0.5-0.1-0.7-0.2c-0.3-0.1-0.5-0.3-0.6-0.5c-0.1-0.2-0.2-0.4-0.3-0.7l0-0.1h-1l0,0.1c0,0.5,0.2,0.9,0.5,1.2
	c0.3,0.3,0.6,0.6,1.1,0.8c0.3,0.1,0.7,0.2,1,0.2v1h0.7v-1c0.4,0,0.7-0.1,1.1-0.2c0.4-0.2,0.8-0.4,1.1-0.8c0.3-0.3,0.4-0.8,0.4-1.3
	C-119.3-13.2-119.5-13.6-119.9-14z M-122.5-15c-0.3-0.1-0.6-0.2-0.8-0.3c-0.2-0.1-0.4-0.3-0.4-0.4c-0.1-0.2-0.1-0.3-0.1-0.5
	c0-0.2,0.1-0.4,0.2-0.6c0.1-0.2,0.3-0.3,0.6-0.5c0.2-0.1,0.4-0.1,0.6-0.2V-15z M-120.3-12.5c0,0.2-0.1,0.5-0.2,0.7
	c-0.1,0.2-0.3,0.4-0.6,0.5c-0.2,0.1-0.4,0.1-0.7,0.2v-2.7l0,0c0.6,0.1,1,0.3,1.2,0.5C-120.4-13.1-120.3-12.8-120.3-12.5L-120.3-12.5
	z M-121.8-22.1C-121.8-22.1-121.8-22.1-121.8-22.1c-4.4,0-8,3.6-8,8c0,4.4,3.6,8,8,8c4.4,0,8-3.6,8-8
	C-113.8-18.5-117.3-22.1-121.8-22.1z M-117.2-9.6c-1.2,1.2-2.8,1.9-4.5,1.9c-3.5,0-6.4-2.9-6.4-6.4c0-3.5,2.9-6.4,6.4-6.4
	c3.5,0,6.4,2.9,6.4,6.4C-115.4-12.3-116.1-10.7-117.2-9.6z M-119.9-14c-0.4-0.3-1-0.6-1.7-0.8l-0.2,0v-2.7c0.2,0,0.4,0.1,0.5,0.1
	c0.2,0.1,0.5,0.3,0.6,0.5c0.2,0.2,0.2,0.4,0.3,0.7l0,0.1h1l0-0.1c0-0.5-0.2-0.8-0.4-1.2c-0.2-0.3-0.6-0.6-1-0.8
	c-0.3-0.1-0.7-0.2-1-0.3v-1h-0.7v1c-0.4,0-0.7,0.1-1,0.3c-0.4,0.2-0.8,0.4-1,0.8c-0.2,0.3-0.4,0.7-0.4,1.2v0c0,0.4,0.1,0.7,0.3,1
	c0.2,0.3,0.4,0.5,0.8,0.7c0.3,0.2,0.7,0.3,1.2,0.5l0.1,0v2.8c-0.3,0-0.5-0.1-0.7-0.2c-0.3-0.1-0.5-0.3-0.6-0.5
	c-0.1-0.2-0.2-0.4-0.3-0.7l0-0.1h-1l0,0.1c0,0.5,0.2,0.9,0.5,1.2c0.3,0.3,0.6,0.6,1.1,0.8c0.3,0.1,0.7,0.2,1,0.2v1h0.7v-1
	c0.4,0,0.7-0.1,1.1-0.2c0.4-0.2,0.8-0.4,1.1-0.8c0.3-0.3,0.4-0.8,0.4-1.3C-119.3-13.2-119.5-13.6-119.9-14z M-122.5-15
	c-0.3-0.1-0.6-0.2-0.8-0.3c-0.2-0.1-0.4-0.3-0.4-0.4c-0.1-0.2-0.1-0.3-0.1-0.5c0-0.2,0.1-0.4,0.2-0.6c0.1-0.2,0.3-0.3,0.6-0.5
	c0.2-0.1,0.4-0.1,0.6-0.2V-15z M-120.3-12.5c0,0.2-0.1,0.5-0.2,0.7c-0.1,0.2-0.3,0.4-0.6,0.5c-0.2,0.1-0.4,0.1-0.7,0.2v-2.7l0,0
	c0.6,0.1,1,0.3,1.2,0.5C-120.4-13.1-120.3-12.8-120.3-12.5L-120.3-12.5z"/>
<path d="M-102.8-14.5c0-3,2-5.5,4.4-5.5h8.4c1.8,0,3.2,1.8,3.2,4s-1.4,4-3.2,4h-6.8c-1.2-0.2-2.1-1.3-2-2.5c-0.1-1.2,0.8-2.3,2-2.5
	h6v2h-6.1c-0.4,0-0.4,1,0,1h6.9c1-0.1,1.7-1,1.6-2c0.1-1-0.6-1.9-1.6-2h-8.4c-1.5,0-2.8,1.6-2.8,3.5s1.3,3.5,2.8,3.5h7.6v2h-7.6
	C-100.8-9-102.8-11.5-102.8-14.5z"/>
<path d="M-62.6-19.8h-0.8v-1.6h-1.6v1.6h-6.2v-1.6h-1.6v1.6h-0.8c-0.9,0-1.6,0.7-1.5,1.6c0,0,0,0,0,0L-75-7c0,0.9,0.7,1.6,1.6,1.6
	c0,0,0,0,0,0h10.9c0.9,0,1.6-0.7,1.6-1.6v-11.2C-61-19.1-61.7-19.8-62.6-19.8z M-62.6-7h-10.9v-8h10.9V-7z M-62.6-16.6h-10.9v-1.6
	h10.9V-16.6z M-63.8-13.3h-5v5h5V-13.3z"/>
<path d="M-9.2-20.3h-10.9c-0.9,0-1.6,0.7-1.6,1.6v10.9c0,0.9,0.7,1.6,1.6,1.6h10.9c0.9,0,1.6-0.7,1.6-1.6v-10.9
	C-7.7-19.6-8.4-20.3-9.2-20.3z M-9.2-7.9h-10.9v-10.9h10.9V-7.9z M-10.7-16.4l-0.9-1.4l-4.4,6.6l-1.7-2.6l-0.9,1.4l2.7,4L-10.7-16.4
	z"/>
<path d="M-200.9-23c-4.4,0-8,3.6-8,8s3.6,8,8,8s8-3.6,8-8C-192.9-19.4-196.4-23-200.9-23C-200.9-23-200.9-23-200.9-23z M-200.9-8.6
	c-3.5,0-6.4-2.9-6.4-6.4s2.9-6.4,6.4-6.4c3.5,0,6.4,2.9,6.4,6.4v0C-194.5-11.5-197.3-8.6-200.9-8.6z M-197.3-20l-3.6,3.6l-3.6-3.6
	l-1.4,1.4l3.6,3.6l-3.6,3.6l1.4,1.4l3.6-3.6l3.6,3.6l1.4-1.4l-3.6-3.6l3.6-3.6L-197.3-20z"/>
<path id="Path_1596" class="st2" d="M3.8,3.2H20v16.2H3.8V3.2z"/>
<path id="Path_1597" class="st0" d="M5.2,7H3.8v11c0,0.8,0.6,1.4,1.4,1.4h11V18h-11V7z M12.8,13.9h1.4V7h-2.8v1.4h1.4V13.9z
	 M17.6,4.2H8c-0.8,0-1.4,0.6-1.4,1.4v9.7c0,0.8,0.6,1.4,1.4,1.4h9.7c0.8,0,1.4-0.6,1.4-1.4V5.6C19,4.9,18.4,4.2,17.6,4.2z
	 M17.6,15.3H8V5.6h9.7V15.3z"/>
<path id="Path_1596_00000182519654013707716170000004078028407193586598_" class="st2" d="M3.8-21.8H20v16.2H3.8V-21.8z"/>
<path id="Path_1597_00000073721574401132857520000001064082601267171001_" d="M5.2-18H3.8v11c0,0.8,0.6,1.4,1.4,1.4h11V-7h-11V-18z
	 M12.8-11.1h1.4V-18h-2.8v1.4h1.4V-11.1z M17.6-20.8H8c-0.8,0-1.4,0.6-1.4,1.4v9.7C6.6-9,7.2-8.4,8-8.4h9.7C18.4-8.4,19-9,19-9.7
	v-9.7C19-20.1,18.4-20.8,17.6-20.8z M17.6-9.7H8v-9.7h9.7V-9.7z"/>
</svg>
