<?xml version="1.0" encoding="utf-8"?>
<!-- Generator: Adobe Illustrator 27.5.0, SVG Export Plug-In . SVG Version: 6.00 Build 0)  -->
<svg version="1.1" id="Layer_1" xmlns="http://www.w3.org/2000/svg" xmlns:xlink="http://www.w3.org/1999/xlink" x="0px" y="0px"
	 viewBox="0 0 239 209.4" style="enable-background:new 0 0 239 209.4;" xml:space="preserve">
<g id="logo_symbol_back" transform="translate(-118.368 -108.438)">
	<path d="M314,257.3l-74.1,74.1l-22.2-22.2l8.4-8.4l13.8,13.8l65.6-65.6c0.5-0.5,0.5-1.2,0-1.7l-28-28l-39.4-39.4l-65.5,65.5
		c-0.5,0.5-0.5,1.2,0,1.7l8,8.1l47.5-47.5l32.2,31l-78.1,78.1l-57.9-57.3c-7.9-7.9-7.9-20.7,0-28.6l74-74l8.4,8.4l-74,74
		c-3.2,3.3-3.2,8.5,0,11.8l49.5,48.9l61.2-61.1l-15.2-14.4l-47.7,47.7l-16.4-16.7c-5-5.1-5-13.3,0.1-18.4l73.9-73.9l40.4,39.8
		l13.7-13.7l-55-54.3l-13.7,13.7l-8.4-8.4l22.1-22.1l71.1,71.1L285.3,212l28.7,26.8C319.1,243.9,319.1,252.2,314,257.3z"/>
	<g id="Group_257" transform="translate(170.447 194.792)">
		<path id="Path_2963" d="M82.2,147.8L68,162l-47.7-46.6l0,0l-7.1,7.6L68,178.9l22.6-22.6L82.2,147.8z"/>
		<path id="Path_2964" d="M172.6,57.4L99.1,131l8.4,8.4L181,65.9c7.9-7.9,7.9-20.7,0-28.6L153.2,9.4l-8.4,8.4l27.8,27.8
			C175.8,48.9,175.8,54.2,172.6,57.4z"/>
	</g>
</g>
</svg>
