<?xml version="1.0" encoding="utf-8"?>
<!-- Generator: Adobe Illustrator 27.5.0, SVG Export Plug-In . SVG Version: 6.00 Build 0)  -->
<svg version="1.1" id="Layer_1" xmlns="http://www.w3.org/2000/svg" xmlns:xlink="http://www.w3.org/1999/xlink" x="0px" y="0px"
	 viewBox="0 0 350 300" style="enable-background:new 0 0 350 300;" xml:space="preserve">
<path id="logo_symbol_back" transform="translate(-118.368 -108.438)" d="M402,307.5L296.3,413.3l-31.8-31.7l12-12l19.7,19.7
	l93.7-93.7c0.7-0.7,0.7-1.7,0-2.4l-39.9-40l-56.2-56.2l-93.5,93.5c-0.7,0.7-0.7,1.7,0,2.4l11.4,11.6l67.8-67.8l46,44.3L213.9,392.4
	l-82.7-81.8c-11.3-11.3-11.3-29.6,0-40.9l105.7-105.7l12,12L143.2,281.8c-4.6,4.7-4.6,12.2,0,16.8l70.7,69.8l87.3-87.3l-21.7-20.5
	l-68,68l-23.4-23.9c-7.1-7.3-7.1-19,0.1-26.3l105.6-105.6l57.7,56.8l19.6-19.6l-78.5-77.6L273,152l-12-12l31.6-31.6L394,209.9
	l-33,33l40.9,38.2C409.3,288.4,409.3,300.2,402,307.5z M399.3,227.2L399.3,227.2z M326.5,441.3l-32.3,32.3L216,393.9l10.1-10.8l0,0
	l68.1,66.5l20.3-20.3L326.5,441.3z M443.5,283.4l-39.7-39.7l12-12l39.7,39.7c11.3,11.3,11.3,29.6,0,40.9l-105,105l-12-12l105-105
	C448.1,295.6,448.1,288.1,443.5,283.4z"/>
</svg>
