<?xml version="1.0" encoding="utf-8"?>
<!-- Generator: Adobe Illustrator 27.5.0, SVG Export Plug-In . SVG Version: 6.00 Build 0)  -->
<svg version="1.1" id="Layer_1" xmlns="http://www.w3.org/2000/svg" xmlns:xlink="http://www.w3.org/1999/xlink" x="0px" y="0px"
	 viewBox="0 0 24 24" style="enable-background:new 0 0 24 24;" xml:space="preserve">
<style type="text/css">
	.st0{fill:#FFFFFF;}
	.st1{fill:#888888;}
	.st2{fill:none;}
	.st3{fill:#707070;}
</style>
<path id="Group_13_00000073717612287968853710000017626952800795424401_" transform="translate(-177 -2224)" d="M196.9,2231.2
	l-3.6-3.1l-1,1.2l3.6,3.1L196.9,2231.2z M185.8,2229.4l-1-1.2l-3.6,3l1,1.2L185.8,2229.4z M189.4,2233h-1.2v4.8l3.7,2.3l0.6-1
	l-3.2-1.9V2233z M189,2229.8c-3.9,0-7.1,3.2-7.1,7.1c0,3.9,3.2,7.1,7.1,7.1s7.1-3.2,7.1-7.1c0,0,0,0,0,0
	C196.1,2233.1,193,2229.9,189,2229.8C189,2229.8,189,2229.8,189,2229.8z M189,2242.5c-3.1,0-5.6-2.5-5.6-5.5c0-3.1,2.5-5.6,5.5-5.6
	c3.1,0,5.6,2.5,5.6,5.5c0,0,0,0,0,0C194.6,2240,192.1,2242.5,189,2242.5C189,2242.5,189,2242.5,189,2242.5z"/>
</svg>
