<?xml version="1.0" encoding="utf-8"?>
<!-- Generator: Adobe Illustrator 27.5.0, SVG Export Plug-In . SVG Version: 6.00 Build 0)  -->
<svg version="1.1" id="Layer_1" xmlns="http://www.w3.org/2000/svg" xmlns:xlink="http://www.w3.org/1999/xlink" x="0px" y="0px"
	 viewBox="0 0 24 24" style="enable-background:new 0 0 24 24;" xml:space="preserve">
<style type="text/css">
	.st0{fill:#FFFFFF;}
	.st1{fill:#888888;}
	.st2{fill:none;}
	.st3{fill:#707070;}
</style>
<path d="M12,4C8.1,4,5,6.5,5,9.6C5,13.8,12,20,12,20s7-6.2,7-10.4C19,6.5,15.9,4,12,4z M7,9.6c0-2.2,2.2-4,5-4s5,1.8,5,4
	c0,2.3-2.9,5.8-5,7.9C9.9,15.4,7,11.9,7,9.6z M12,7.3c1.4,0,2.5,1.1,2.5,2.5s-1.1,2.5-2.5,2.5s-2.5-1.1-2.5-2.5S10.6,7.3,12,7.3z"/>
</svg>
