<?xml version="1.0" encoding="utf-8"?>
<!-- Generator: Adobe Illustrator 27.5.0, SVG Export Plug-In . SVG Version: 6.00 Build 0)  -->
<svg version="1.1" id="Layer_1" xmlns="http://www.w3.org/2000/svg" xmlns:xlink="http://www.w3.org/1999/xlink" x="0px" y="0px"
	 viewBox="0 0 24 24" style="enable-background:new 0 0 24 24;" xml:space="preserve">
<style type="text/css">
	.st0{fill:#FFFFFF;}
	.st1{fill:#888888;}
	.st2{fill:none;}
	.st3{fill:#707070;}
</style>
<path class="st0" d="M17.4,5.2h-0.8V3.6h-1.6v1.6H8.9V3.6H7.3v1.6H6.5C5.7,5.2,5,5.9,5,6.8c0,0,0,0,0,0L5,18c0,0.9,0.7,1.6,1.6,1.6
	c0,0,0,0,0,0h10.9c0.9,0,1.6-0.7,1.6-1.6V6.8C19,5.9,18.3,5.2,17.4,5.2z M17.4,18H6.5v-8h10.9V18z M17.4,8.4H6.5V6.8h10.9V8.4z
	 M16.2,11.7h-5v5h5V11.7z"/>
</svg>
