<?xml version="1.0" encoding="utf-8"?>
<!-- Generator: Adobe Illustrator 27.5.0, SVG Export Plug-In . SVG Version: 6.00 Build 0)  -->
<svg version="1.1" id="Layer_1" xmlns="http://www.w3.org/2000/svg" xmlns:xlink="http://www.w3.org/1999/xlink" x="0px" y="0px"
	 viewBox="0 0 24 24" style="enable-background:new 0 0 24 24;" xml:space="preserve">
<style type="text/css">
	.st0{fill:#FFFFFF;}
	.st1{fill:#888888;}
	.st2{fill:none;}
	.st3{fill:#707070;}
</style>
<path d="M12.1,3c-4.4,0-8,3.6-8,8s3.6,8,8,8s8-3.6,8-8C20.1,6.6,16.6,3,12.1,3C12.1,3,12.1,3,12.1,3z M12.1,17.4
	c-3.5,0-6.4-2.9-6.4-6.4c0-3.5,2.9-6.4,6.4-6.4c3.5,0,6.4,2.9,6.4,6.4v0C18.5,14.5,15.7,17.4,12.1,17.4z M15.7,6l-3.6,3.6L8.5,6
	L7.1,7.4l3.6,3.6l-3.6,3.6L8.5,16l3.6-3.6l3.6,3.6l1.4-1.4L13.5,11l3.6-3.6L15.7,6z"/>
</svg>
