<?xml version="1.0" encoding="utf-8"?>
<!-- Generator: Adobe Illustrator 27.5.0, SVG Export Plug-In . SVG Version: 6.00 Build 0)  -->
<svg version="1.1" id="Layer_1" xmlns="http://www.w3.org/2000/svg" xmlns:xlink="http://www.w3.org/1999/xlink" x="0px" y="0px"
	 viewBox="0 0 24 24" style="enable-background:new 0 0 24 24;" xml:space="preserve">
<style type="text/css">
	.st0{fill:#FFFFFF;}
	.st1{fill:#888888;}
	.st2{fill:none;}
	.st3{fill:#707070;}
</style>
<path d="M18.6,3.8H6.2c-1,0-1.8,0.8-1.8,1.8c0,0,0,0,0,0v12.4c0,1,0.8,1.8,1.8,1.8c0,0,0,0,0,0h12.4c1,0,1.8-0.8,1.8-1.8V5.6
	C20.4,4.6,19.6,3.8,18.6,3.8z M18.6,18.1H6.2V5.6h12.4V18.1z M11.7,15.3h1.4v-2.7h2.7v-1.4h-2.7V8.4h-1.4v2.7H9v1.4h2.7V15.3z"/>
</svg>
