<?xml version="1.0" encoding="utf-8"?>
<!-- Generator: Adobe Illustrator 27.5.0, SVG Export Plug-In . SVG Version: 6.00 Build 0)  -->
<svg version="1.1" id="Layer_1" xmlns="http://www.w3.org/2000/svg" xmlns:xlink="http://www.w3.org/1999/xlink" x="0px" y="0px"
	 viewBox="0 0 24 24" style="enable-background:new 0 0 24 24;" xml:space="preserve">
<style type="text/css">
	.st0{fill:#FFFFFF;}
	.st1{fill:#888888;}
	.st2{fill:none;}
	.st3{fill:#707070;}
</style>
<path d="M14.1,12c-0.4-0.3-1-0.6-1.7-0.8l-0.2,0V8.5c0.2,0,0.4,0.1,0.5,0.1c0.2,0.1,0.5,0.3,0.6,0.5c0.2,0.2,0.2,0.4,0.3,0.7l0,0.1
	h1l0-0.1c0-0.5-0.2-0.8-0.4-1.2c-0.2-0.3-0.6-0.6-1-0.8c-0.3-0.1-0.7-0.2-1-0.3v-1h-0.7v1c-0.4,0-0.7,0.1-1,0.3
	C10,8,9.7,8.3,9.5,8.6C9.2,9,9.1,9.4,9.1,9.8v0c0,0.4,0.1,0.7,0.3,1c0.2,0.3,0.4,0.5,0.8,0.7c0.3,0.2,0.7,0.3,1.2,0.5l0.1,0v2.8
	c-0.3,0-0.5-0.1-0.7-0.2c-0.3-0.1-0.5-0.3-0.6-0.5c-0.1-0.2-0.2-0.4-0.3-0.7l0-0.1h-1l0,0.1c0,0.5,0.2,0.9,0.5,1.2
	c0.3,0.3,0.6,0.6,1.1,0.8c0.3,0.1,0.7,0.2,1,0.2v1h0.7v-1c0.4,0,0.7-0.1,1.1-0.2c0.4-0.2,0.8-0.4,1.1-0.8c0.3-0.3,0.4-0.8,0.4-1.3
	C14.7,12.8,14.5,12.4,14.1,12z M11.5,11c-0.3-0.1-0.6-0.2-0.8-0.3c-0.2-0.1-0.4-0.3-0.4-0.4c-0.1-0.2-0.1-0.3-0.1-0.5
	c0-0.2,0.1-0.4,0.2-0.6c0.1-0.2,0.3-0.3,0.6-0.5c0.2-0.1,0.4-0.1,0.6-0.2V11z M13.7,13.5c0,0.2-0.1,0.5-0.2,0.7
	c-0.1,0.2-0.3,0.4-0.6,0.5c-0.2,0.1-0.4,0.1-0.7,0.2v-2.7l0,0c0.6,0.1,1,0.3,1.2,0.5C13.6,12.9,13.7,13.2,13.7,13.5L13.7,13.5z
	 M12.2,3.9C12.2,3.9,12.2,3.9,12.2,3.9c-4.4,0-8,3.6-8,8c0,4.4,3.6,8,8,8c4.4,0,8-3.6,8-8C20.2,7.5,16.7,3.9,12.2,3.9z M16.8,16.4
	c-1.2,1.2-2.8,1.9-4.5,1.9c-3.5,0-6.4-2.9-6.4-6.4c0-3.5,2.9-6.4,6.4-6.4c3.5,0,6.4,2.9,6.4,6.4C18.6,13.7,17.9,15.3,16.8,16.4z
	 M14.1,12c-0.4-0.3-1-0.6-1.7-0.8l-0.2,0V8.5c0.2,0,0.4,0.1,0.5,0.1c0.2,0.1,0.5,0.3,0.6,0.5c0.2,0.2,0.2,0.4,0.3,0.7l0,0.1h1l0-0.1
	c0-0.5-0.2-0.8-0.4-1.2c-0.2-0.3-0.6-0.6-1-0.8c-0.3-0.1-0.7-0.2-1-0.3v-1h-0.7v1c-0.4,0-0.7,0.1-1,0.3C10,8,9.7,8.3,9.5,8.6
	C9.2,9,9.1,9.4,9.1,9.8v0c0,0.4,0.1,0.7,0.3,1c0.2,0.3,0.4,0.5,0.8,0.7c0.3,0.2,0.7,0.3,1.2,0.5l0.1,0v2.8c-0.3,0-0.5-0.1-0.7-0.2
	c-0.3-0.1-0.5-0.3-0.6-0.5c-0.1-0.2-0.2-0.4-0.3-0.7l0-0.1h-1l0,0.1c0,0.5,0.2,0.9,0.5,1.2c0.3,0.3,0.6,0.6,1.1,0.8
	c0.3,0.1,0.7,0.2,1,0.2v1h0.7v-1c0.4,0,0.7-0.1,1.1-0.2c0.4-0.2,0.8-0.4,1.1-0.8c0.3-0.3,0.4-0.8,0.4-1.3
	C14.7,12.8,14.5,12.4,14.1,12z M11.5,11c-0.3-0.1-0.6-0.2-0.8-0.3c-0.2-0.1-0.4-0.3-0.4-0.4c-0.1-0.2-0.1-0.3-0.1-0.5
	c0-0.2,0.1-0.4,0.2-0.6c0.1-0.2,0.3-0.3,0.6-0.5c0.2-0.1,0.4-0.1,0.6-0.2V11z M13.7,13.5c0,0.2-0.1,0.5-0.2,0.7
	c-0.1,0.2-0.3,0.4-0.6,0.5c-0.2,0.1-0.4,0.1-0.7,0.2v-2.7l0,0c0.6,0.1,1,0.3,1.2,0.5C13.6,12.9,13.7,13.2,13.7,13.5L13.7,13.5z"/>
</svg>
