<?xml version="1.0" encoding="utf-8"?>
<!-- Generator: Adobe Illustrator 27.5.0, SVG Export Plug-In . SVG Version: 6.00 Build 0)  -->
<svg version="1.1" id="Layer_1" xmlns="http://www.w3.org/2000/svg" xmlns:xlink="http://www.w3.org/1999/xlink" x="0px" y="0px"
	 viewBox="0 0 24 24" style="enable-background:new 0 0 24 24;" xml:space="preserve">
<style type="text/css">
	.st0{fill:#FFFFFF;}
	.st1{fill:#888888;}
	.st2{fill:none;}
	.st3{fill:#707070;}
</style>
<path id="Path_2239_00000029017037782311809480000003003591344912460972_" class="st0" d="M11,8c-2.2,0-4,1.8-4,4s1.8,4,4,4
	s4-1.8,4-4S13.2,8,11,8z M11,4c-4.4,0-8,3.6-8,8s3.6,8,8,8s8-3.6,8-8S15.4,4,11,4z M11,18.4c-3.5,0-6.4-2.9-6.4-6.4
	c0-3.5,2.9-6.4,6.4-6.4c3.5,0,6.4,2.9,6.4,6.4v0C17.4,15.5,14.5,18.4,11,18.4z"/>
</svg>
