<?xml version="1.0" encoding="utf-8"?>
<!-- Generator: Adobe Illustrator 27.5.0, SVG Export Plug-In . SVG Version: 6.00 Build 0)  -->
<svg version="1.1" id="Layer_1" xmlns="http://www.w3.org/2000/svg" xmlns:xlink="http://www.w3.org/1999/xlink" x="0px" y="0px"
	 viewBox="0 0 24 24" style="enable-background:new 0 0 24 24;" xml:space="preserve">
<style type="text/css">
	.st0{fill:#FFFFFF;}
	.st1{fill:#888888;}
	.st2{fill:none;}
	.st3{fill:#707070;}
</style>
<path d="M4.2,11.5c0-3,2-5.5,4.4-5.5H17c1.8,0,3.2,1.8,3.2,4s-1.4,4-3.2,4h-6.8c-1.2-0.2-2.1-1.3-2-2.5C8.1,10.3,9,9.1,10.2,9h6v2
	h-6.1c-0.4,0-0.4,1,0,1H17c1-0.1,1.7-1,1.6-2C18.7,9,18,8.1,17,8H8.6c-1.5,0-2.8,1.6-2.8,3.5S7.1,15,8.6,15h7.6v2H8.6
	C6.2,17,4.2,14.5,4.2,11.5z"/>
</svg>
