<?xml version="1.0" encoding="utf-8"?>
<!-- Generator: Adobe Illustrator 27.5.0, SVG Export Plug-In . SVG Version: 6.00 Build 0)  -->
<svg version="1.1" id="Layer_1" xmlns="http://www.w3.org/2000/svg" xmlns:xlink="http://www.w3.org/1999/xlink" x="0px" y="0px"
	 viewBox="0 0 24 24" style="enable-background:new 0 0 24 24;" xml:space="preserve">
<style type="text/css">
	.st0{fill:#FFFFFF;}
	.st1{fill:#888888;}
	.st2{fill:none;}
	.st3{fill:#707070;}
</style>
<path id="Outline_00000106115037372366873120000007580878051183377312_" transform="translate(3 3)" class="st0" d="M15.4,1H2.9
	c-1,0-1.8,0.8-1.8,1.8v12.4c0,1,0.8,1.8,1.8,1.8h12.4c1,0,1.8-0.8,1.8-1.8V2.8C17.1,1.8,16.3,1,15.4,1z M15.4,15.2H2.9v-4.1L3.8,12
	l3.6-3.6l3.6,3.6l3.6-3.5l0.9,0.9L15.4,15.2z M15.4,6.9L14.5,6l-3.6,3.6L7.3,6L3.8,9.5L2.9,8.6V2.8h12.4V6.9z"/>
</svg>
