<?xml version="1.0" encoding="utf-8"?>
<!-- Generator: Adobe Illustrator 27.5.0, SVG Export Plug-In . SVG Version: 6.00 Build 0)  -->
<svg version="1.1" id="Layer_1" xmlns="http://www.w3.org/2000/svg" xmlns:xlink="http://www.w3.org/1999/xlink" x="0px" y="0px"
	 viewBox="0 0 24 24" style="enable-background:new 0 0 24 24;" xml:space="preserve">
<style type="text/css">
	.st0{fill:none;}
</style>
<path id="Path_1596_00000182519654013707716170000004078028407193586598_" class="st0" d="M3.8,3.2H20v16.2H3.8V3.2z"/>
<path id="Path_1597_00000073721574401132857520000001064082601267171001_" d="M5.2,7H3.8v11c0,0.8,0.6,1.4,1.4,1.4h11V18h-11V7z
	 M12.8,13.9h1.4V7h-2.8v1.4h1.4V13.9z M17.6,4.2H8c-0.8,0-1.4,0.6-1.4,1.4v9.7c0,0.8,0.6,1.4,1.4,1.4h9.7c0.8,0,1.4-0.6,1.4-1.4V5.6
	C19,4.9,18.4,4.2,17.6,4.2z M17.6,15.3H8V5.6h9.7V15.3z"/>
</svg>
