<?xml version="1.0" encoding="utf-8"?>
<!-- Generator: Adobe Illustrator 27.5.0, SVG Export Plug-In . SVG Version: 6.00 Build 0)  -->
<svg version="1.1" id="Layer_1" xmlns="http://www.w3.org/2000/svg" xmlns:xlink="http://www.w3.org/1999/xlink" x="0px" y="0px"
	 viewBox="0 0 24 24" style="enable-background:new 0 0 24 24;" xml:space="preserve">
<style type="text/css">
	.st0{fill:#FFFFFF;}
	.st1{fill:#767676;}
	.st2{fill:none;}
	.st3{fill:#888888;}
	.st4{clip-path:url(#SVGID_00000147208330548568832570000015218084514088083610_);}
</style>
<g id="Group_684_00000168830728897370468990000005376211738432851637_" transform="translate(696.356 -1559)">
	
		<rect id="Rectangle_23_00000031907072487283563290000005539369161061381800_" x="-693.6" y="1563.3" class="st0" width="1.6" height="14.3"/>
	
		<rect id="Rectangle_24_00000100382157633388596800000017679042053642139786_" x="-689.9" y="1563.3" class="st0" width="1.1" height="14.3"/>
	
		<rect id="Rectangle_25_00000085237427363160262940000014110129918386996153_" x="-686.7" y="1563.3" class="st0" width="1.6" height="14.3"/>
	
		<rect id="Rectangle_181_00000152955224178087267360000005432799364978671026_" x="-683" y="1563.3" class="st0" width="0.9" height="14.4"/>
	
		<rect id="Rectangle_183_00000166647256574880817940000010338335915678085268_" x="-676.5" y="1563.3" class="st0" width="0.9" height="14.4"/>
	
		<rect id="Rectangle_182_00000098221835473959609380000012569109405591051671_" x="-680.5" y="1563.3" class="st0" width="3.1" height="14.4"/>
</g>
<g id="Group_684_00000098936128650120773710000016943923329550822072_" transform="translate(696.356 -1559)">
	
		<rect id="Rectangle_23_00000179628063813235507150000016584331479357703053_" x="-693.6" y="1535.3" class="st1" width="1.6" height="14.3"/>
	
		<rect id="Rectangle_24_00000162328092970611913020000007666558824817341593_" x="-689.9" y="1535.3" class="st1" width="1.1" height="14.3"/>
	
		<rect id="Rectangle_25_00000065796988358674772940000001846238686708573829_" x="-686.7" y="1535.3" class="st1" width="1.6" height="14.3"/>
	
		<rect id="Rectangle_181_00000003794793743599523840000010517558634671686541_" x="-683" y="1535.3" class="st1" width="0.9" height="14.4"/>
	
		<rect id="Rectangle_183_00000126292593730972817890000015868007204992835763_" x="-676.5" y="1535.3" class="st1" width="0.9" height="14.4"/>
	
		<rect id="Rectangle_182_00000031175703227131605860000000545617738835549883_" x="-680.5" y="1535.3" class="st1" width="3.1" height="14.4"/>
</g>
<g id="Group_13_00000155136262051698861000000018280644768864547761_" transform="translate(-177 -2224)">
	<path id="Path_1006_00000077299827433521922280000015379993361277940927_" class="st2" d="M206,2198h20v20h-20V2198z"/>
	<path id="Path_1008_00000060746654380018794090000001949220299692968843_" class="st3" d="M224,2203.1l-3.7-3.1l-1,1.2l3.7,3.1
		L224,2203.1z M212.7,2201.3l-1-1.2l-3.7,3l1,1.2L212.7,2201.3z M216.4,2205h-1.2v4.8l3.8,2.3l0.6-1l-3.2-1.9V2205z M216,2201.8
		c-4,0-7.2,3.2-7.2,7.2s3.2,7.2,7.2,7.2s7.2-3.2,7.2-7.2c0,0,0,0,0,0C223.2,2205,220,2201.8,216,2201.8
		C216,2201.8,216,2201.8,216,2201.8z M216,2214.6c-3.1,0-5.6-2.5-5.6-5.6c0-3.1,2.5-5.6,5.6-5.6c3.1,0,5.6,2.5,5.6,5.6c0,0,0,0,0,0
		C221.6,2212.1,219.1,2214.6,216,2214.6C216,2214.6,216,2214.6,216,2214.6z"/>
</g>
<g id="Bounding_Boxes_00000066496251779457861160000010867503560991188133_">
	<path id="Path_2880_00000178203177761447979390000007875192470957029553_" class="st2" d="M56.6-24.3h20v20h-20V-24.3z"/>
</g>
<g id="Outline_00000101071091165606360330000001603005081256013472_" transform="translate(3 1)">
	<g id="Group_223_00000078014025388809108220000009012201798304522903_">
		<path id="Path_2881_00000183247981461678823570000018308788344911670718_" class="st3" d="M68.1-22.7h-0.8v-1.6h-1.6v1.6h-6.2
			v-1.6H58v1.6h-0.8c-0.9,0-1.6,0.7-1.5,1.6c0,0,0,0,0,0l0,11.2c0,0.9,0.7,1.6,1.6,1.6c0,0,0,0,0,0h10.9c0.9,0,1.6-0.7,1.6-1.6
			v-11.2C69.6-22,68.9-22.7,68.1-22.7z M68.1-9.9H57.2v-8h10.9V-9.9z M68.1-19.5H57.2v-1.6h10.9V-19.5z"/>
		<path id="XMLID_00000072979326279819192490000013715618743000661169_" class="st3" d="M66.8-16.3h-5v5h5V-16.3z"/>
	</g>
</g>
<g>
	<defs>
		<rect id="SVGID_1_" x="84" y="-26.5" width="20" height="20"/>
	</defs>
	<clipPath id="SVGID_00000151505875690154327850000015183027119512048284_">
		<use xlink:href="#SVGID_1_"  style="overflow:visible;"/>
	</clipPath>
	
		<g id="baseline-drag_handle-24px_00000096037608859305070260000003388777140938759831_" style="clip-path:url(#SVGID_00000151505875690154327850000015183027119512048284_);">
		<path id="Path_1239_00000128470555814104790520000004032112511023011755_" class="st3" d="M100.7-19H87.3v1.7h13.3V-19z M87.3-14
			h13.3v-1.7H87.3V-14z"/>
	</g>
</g>
<path id="Path_1243_00000068668673809326116520000004026137658527329699_" class="st3" d="M115.1-9.1h14v-1.6h-14V-9.1z M115.1-12.2
	h14v-1.6h-14V-12.2z M115.1-15.3h14v-1.6h-14V-15.3z M115.1-18.4h14v-1.6h-14V-18.4z M115.1-23.1v1.6h14v-1.6H115.1z"/>
<path id="Path_1244_00000070101018381284265020000013153867013113318043_" class="st2" d="M112.1-26.1h20v20h-20V-26.1z"/>
<g id="Group_688" transform="translate(-74 -533)">
	<g id="outline-check_box-24px" transform="translate(74 533)">
		<g id="Bounding_Boxes">
			<path id="Path_3522" class="st2" d="M167.1-26h20v20h-20V-26z"/>
		</g>
		<g id="Outline_1_" transform="translate(3 3)">
			<g id="Group_397">
				<path id="Path_3523" class="st3" d="M179.6-26h-10.9c-0.9,0-1.6,0.7-1.6,1.6v10.9c0,0.9,0.7,1.6,1.6,1.6h10.9
					c0.9,0,1.6-0.7,1.6-1.6v-10.9C181.1-25.3,180.5-26,179.6-26z M179.6-13.5h-10.9v-10.9h10.9V-13.5z"/>
			</g>
		</g>
	</g>
	<path id="_Color" class="st3" d="M255,514.3l-3.8,3.8l-3.8-3.8l-1.2,1.2l5,5l5-5L255,514.3z"/>
</g>
<g id="Group_688_00000026846724887457201910000016702999933332180883_" transform="translate(-74 -533)">
	<g id="outline-check_box-24px_00000025438168294160610360000005833456860936042381_" transform="translate(74 533)">
		<g id="Bounding_Boxes_00000042702564766926329830000016803277772225374870_">
			<path id="Path_3522_00000160155154586564218820000003784361335726427838_" class="st2" d="M138.1-26h20v20h-20V-26z"/>
		</g>
		<g id="Outline_00000064344657677718098940000015587562914236814765_" transform="translate(3 3)">
			<g id="Group_397_00000181058533138449896490000018110770542618325950_">
				<path id="Path_3523_00000101073511751098025130000010266804334960688799_" class="st3" d="M150.6-26h-10.9
					c-0.9,0-1.6,0.7-1.6,1.6v10.9c0,0.9,0.7,1.6,1.6,1.6h10.9c0.9,0,1.6-0.7,1.6-1.6v-10.9C152.1-25.3,151.5-26,150.6-26z
					 M150.6-13.5h-10.9v-10.9h10.9V-13.5z"/>
			</g>
		</g>
	</g>
	<path id="_Color_00000100379271514039478230000000491219395942890392_" class="st3" d="M226,514.3l-3.8,3.8l-3.8-3.8l-1.2,1.2l5,5
		l5-5L226,514.3z"/>
</g>
</svg>
