<svg id="baseline-add_shopping_cart-24px" xmlns="http://www.w3.org/2000/svg" width="20" height="20" viewBox="0 0 20 20">
  <path id="Path_128" data-name="Path 128" d="M0,0H20V20H0ZM15.258,5l-2.3,4.167Z" fill="none"/>
  <path id="Path_129" data-name="Path 129" d="M9.016,7.476h1.6V5.048h2.4V3.429h-2.4V1h-1.6V3.429h-2.4V5.048h2.4ZM5.81,14.762a1.619,1.619,0,1,0,1.6,1.619A1.609,1.609,0,0,0,5.81,14.762Zm8.016,0a1.619,1.619,0,1,0,1.6,1.619A1.609,1.609,0,0,0,13.825,14.762Zm-7.88-2.631.024-.1.721-1.32h5.972a1.593,1.593,0,0,0,1.4-.834L17.16,4.206l-1.395-.777h-.008l-.882,1.619L12.663,9.1H7.036l-.1-.219-1.8-3.829L4.375,3.429,3.621,1.81H1V3.429H2.6L5.489,9.573,4.407,11.556a1.577,1.577,0,0,0-.2.777,1.616,1.616,0,0,0,1.6,1.619h9.619V12.333H6.146A.2.2,0,0,1,5.946,12.131Z" fill="#888"/>
</svg>
