<svg id="baseline-filter_1-24px" xmlns="http://www.w3.org/2000/svg" width="20" height="20" viewBox="0 0 20 20">
  <path id="Path_1596" data-name="Path 1596" d="M0,0H20V20H0Z" fill="none"/>
  <path id="Path_1597" data-name="Path 1597" d="M2.636,4.273H1V17.364A1.641,1.641,0,0,0,2.636,19H15.727V17.364H2.636Zm9,8.182h1.636V4.273H10V5.909h1.636ZM17.364,1H5.909A1.641,1.641,0,0,0,4.273,2.636V14.091a1.641,1.641,0,0,0,1.636,1.636H17.364A1.641,1.641,0,0,0,19,14.091V2.636A1.641,1.641,0,0,0,17.364,1Zm0,13.091H5.909V2.636H17.364Z" fill="#888"/>
</svg>
