<svg id="baseline-attachment-24px" xmlns="http://www.w3.org/2000/svg" width="20" height="20" viewBox="0 0 20 20">
  <path id="Path_1354" data-name="Path 1354" d="M2,12.5C2,9.46,3.968,7,6.4,7h8.4C16.568,7,18,8.79,18,11s-1.432,4-3.2,4H8a2.293,2.293,0,0,1-2-2.5A2.293,2.293,0,0,1,8,10h6v2H7.928c-.44,0-.44,1,0,1H14.8a1.839,1.839,0,0,0,1.6-2,1.839,1.839,0,0,0-1.6-2H6.4c-1.544,0-2.8,1.57-2.8,3.5S4.856,16,6.4,16H14v2H6.4C3.968,18,2,15.54,2,12.5Z" transform="translate(0 -2.154)" fill="#888"/>
  <path id="Path_1355" data-name="Path 1355" d="M0,0H20V20H0Z" fill="none"/>
</svg>
