<svg xmlns="http://www.w3.org/2000/svg" xmlns:xlink="http://www.w3.org/1999/xlink" width="128.772" height="104.108" viewBox="0 0 128.772 104.108">
  <defs>
    <linearGradient id="linear-gradient" x1="1.25" y1="1.292" x2="0.023" gradientUnits="objectBoundingBox">
      <stop offset="0" stop-color="#fff"/>
      <stop offset="1" stop-color="#eae8e8"/>
    </linearGradient>
    <filter id="Path_3581" x="0" y="0" width="128.772" height="104.108" filterUnits="userSpaceOnUse">
      <feOffset dy="10" input="SourceAlpha"/>
      <feGaussianBlur stdDeviation="5" result="blur"/>
      <feFlood flood-opacity="0.059"/>
      <feComposite operator="in" in2="blur"/>
      <feComposite in="SourceGraphic"/>
    </filter>
  </defs>
  <g id="cloud_DB" data-name="cloud DB" transform="translate(-356 -2780.643)">
    <g transform="matrix(1, 0, 0, 1, 356, 2780.64)" filter="url(#Path_3581)">
      <path id="Path_3581-2" data-name="Path 3581" d="M66.617,3345.918s-2.163,73.108,0,73.108h96.81v-61.042H109.667L97.6,3345.918Z" transform="translate(-50.16 -3340.42)" stroke="#fff" stroke-width="1" fill="url(#linear-gradient)"/>
    </g>
    <g id="Union_7" data-name="Union 7" transform="translate(407 2820)" fill="none">
      <path d="M18,22a7.067,7.067,0,0,1-.966-.066A8.073,8.073,0,0,1,16,22H8A8,8,0,0,1,6.655,6.113,10,10,0,0,1,16,0a9.858,9.858,0,0,1,9.885,8.056A7,7,0,0,1,25,22Z" stroke="none"/>
      <path d="M 25.00020027160645 19.99960136413574 C 27.75732040405273 19.99960136413574 30.00040054321289 17.75691986083984 30.00040054321289 15.00030040740967 C 30.00040054321289 12.48648071289062 28.12356948852539 10.35392093658447 25.63472938537598 10.03979110717773 L 24.14813995361328 9.852150917053223 L 23.91049003601074 8.372730255126953 C 23.63105010986328 6.63308048248291 22.69470024108887 5.030950546264648 21.27391052246094 3.861490726470947 C 19.81554985046387 2.661090612411499 17.94264030456543 2.000000715255737 16.00020027160645 2.000000715255737 C 14.3299503326416 2.000000715255737 12.7304105758667 2.477410793304443 11.37449073791504 3.380630731582642 C 10.06429004669189 4.253390789031982 9.073920249938965 5.456040859222412 8.510439872741699 6.858570575714111 L 8.092860221862793 7.897940635681152 L 6.988460063934326 8.084920883178711 C 5.60959005355835 8.318370819091797 4.346670150756836 9.037290573120117 3.432340383529663 10.10925102233887 C 2.50868034362793 11.19214057922363 2.000000238418579 12.57405090332031 2.000000238418579 14.00040054321289 C 2.000000238418579 17.30837059020996 4.691630363464355 19.99960136413574 8.000100135803223 19.99960136413574 L 16.00020027160645 19.99960136413574 C 16.26033973693848 19.99960136413574 16.5219612121582 19.98287010192871 16.7778205871582 19.94986152648926 L 17.04261016845703 19.91571044921875 L 17.30709075927734 19.95221138000488 C 17.53496932983398 19.98365020751953 17.76810073852539 19.99960136413574 18 19.99960136413574 L 25.00020027160645 19.99960136413574 M 25.00020027160645 21.99960136413574 L 18 21.99960136413574 C 17.67221069335938 21.99960136413574 17.3494701385498 21.97701072692871 17.0336799621582 21.93343162536621 C 16.69528007507324 21.97708129882812 16.35049057006836 21.99960136413574 16.00020027160645 21.99960136413574 L 8.000100135803223 21.99960136413574 C 3.582000255584717 21.99960136413574 2.716064386731887e-07 18.41850090026855 2.716064386731887e-07 14.00040054321289 C 2.716064386731887e-07 10.03991031646729 2.876930236816406 6.752550601959229 6.654610157012939 6.112980842590332 C 8.090630531311035 2.538640737533569 11.73299026489258 6.820678777330613e-07 16.00020027160645 6.820678777330613e-07 C 21.00555038452148 6.820678777330613e-07 25.15250968933105 3.494330644607544 25.88517951965332 8.055530548095703 C 29.33287048339844 8.490690231323242 32.00040054321289 11.43384075164795 32.00040054321289 15.00030040740967 C 32.00040054321289 18.86580085754395 28.86569976806641 21.99960136413574 25.00020027160645 21.99960136413574 Z" stroke="none" fill="#000"/>
    </g>
  </g>
</svg>
