<?xml version="1.0" encoding="utf-8"?>
<!-- Svg Vector Icons : http://www.onlinewebfonts.com/icon -->
<!DOCTYPE svg PUBLIC "-//W3C//DTD SVG 1.1//EN" "http://www.w3.org/Graphics/SVG/1.1/DTD/svg11.dtd">
<svg version="1.1" xmlns="http://www.w3.org/2000/svg" xmlns:xlink="http://www.w3.org/1999/xlink" x="0px" y="0px" viewBox="0 0 1000 1000" enable-background="new 0 0 1000 1000" xml:space="preserve">
<metadata> Svg Vector Icons : http://www.onlinewebfonts.com/icon </metadata>
<g><path d="M619.4,555.6c129.5-17.8,253-45,370.6-81.5l-69.7-212c-139.4,48.4-256,95.9-349.9,142.3c0-15.8,2.5-27.2,7.4-34.1c17.8-131.4,26.7-242.7,26.7-333.6h-212c0,76.1,9.9,199.7,29.6,370.7C373.7,376.7,259.6,328.3,79.7,262L10,474.1c98.8,25.7,219.9,52.9,363.2,81.5c-18.8,12.8-100.8,106.2-246.1,280.2l173.5,127.5c57.3-75.1,122.1-181.4,194.2-318.8C571.9,779,639.6,885.2,697.9,963.3l179.4-127.5C751.8,690.5,665.8,597.1,619.4,555.6z"/></g>
</svg>