<svg xmlns="http://www.w3.org/2000/svg" width="43.231" height="46.265" viewBox="0 0 43.231 46.265">
  <g id="Gearchain_symbol_revision" transform="translate(-34.755 -36.016)">
    <path id="Path_3650" data-name="Path 3650" d="M120.829,106.1l-8.585,8.585-1.438-1.47a.216.216,0,0,1,0-.3l11.849-11.85,7.175,7.173,5.524-5.524L122.5,89.85l-4,4,1.524,1.524L122.5,92.9l9.946,9.828-2.478,2.478-7.309-7.188-13.373,13.373a2.376,2.376,0,0,0-.017,3.333l2.962,3.027,8.62-8.62,2.749,2.6-11.06,11.06-8.957-8.843a1.509,1.509,0,0,1,0-2.132L116.972,98.42,115.448,96.9l-13.392,13.392a3.665,3.665,0,0,0,0,5.178l10.479,10.361L126.659,111.7Z" transform="translate(-66.23 -53.834)" fill="#eb2020"/>
    <g id="Group_524" data-name="Group 524" transform="translate(68.226 52.001)">
      <path id="Path_3651" data-name="Path 3651" d="M332.07,200.21" transform="translate(-332.07 -200.21)" fill="#eb2020"/>
    </g>
    <g id="Group_525" data-name="Group 525" transform="translate(44.177 51.634)">
      <path id="Path_3652" data-name="Path 3652" d="M180.9,322.044l-2.571,2.571L167.552,313.84l-1.522,1.524,12.3,12.3,4.095-4.1Z" transform="translate(-166.03 -297.015)" fill="#eb2020"/>
      <path id="Path_3653" data-name="Path 3653" d="M303.028,206.363l-13.3,13.3,1.524,1.524,13.3-13.3a3.665,3.665,0,0,0,0-5.178l-5.029-5.029L298,199.2l5.029,5.029A1.507,1.507,0,0,1,303.028,206.363Z" transform="translate(-271.813 -197.68)" fill="#eb2020"/>
    </g>
    <g id="Group_526" data-name="Group 526" transform="translate(52.718 50.877)">
      <path id="Path_3654" data-name="Path 3654" d="M229.022,216.208,225,212.186l1.524-1.524,2.5,2.5L240.9,201.287a.215.215,0,0,0,0-.3l-7.009-7.009,1.524-1.524,7.009,7.009a2.371,2.371,0,0,1,0,3.35Z" transform="translate(-225 -192.45)" fill="#eb2020"/>
    </g>
  </g>
</svg>
