<?xml version="1.0" encoding="utf-8"?>
<!-- Generator: Adobe Illustrator 27.5.0, SVG Export Plug-In . SVG Version: 6.00 Build 0)  -->
<svg version="1.1" id="Layer_1" xmlns="http://www.w3.org/2000/svg" xmlns:xlink="http://www.w3.org/1999/xlink" x="0px" y="0px"
	 viewBox="0 0 24 24" style="enable-background:new 0 0 24 24;" xml:space="preserve">
<style type="text/css">
	.st0{fill:#888888;}
	.st1{fill:none;}
	.st2{fill:#707070;}
	.st3{fill:#767676;}
	.st4{fill:#FFFFFF;}
	.st5{fill:#FF0000;}
</style>
<path id="icon_FAQ_00000047020193847994105110000004873851351821406635_" transform="translate(2343.75 1579.75)" class="st4" d="
	M-2331.5-1578.3c-6,0-10.8,4.8-10.8,10.8c0,6,4.8,10.8,10.8,10.8c6,0,10.8-4.8,10.8-10.8
	C-2320.7-1573.4-2325.5-1578.3-2331.5-1578.3z M-2331.5-1558.2c-5.1,0-9.3-4.1-9.3-9.3c0-5.1,4.1-9.3,9.3-9.3c5.1,0,9.3,4.1,9.3,9.3
	C-2322.2-1562.4-2326.4-1558.2-2331.5-1558.2C-2331.5-1558.2-2331.5-1558.2-2331.5-1558.2z M-2330.3-1561.7c0,0.6-0.5,1.2-1.1,1.2
	s-1.2-0.5-1.2-1.1c0-0.6,0.5-1.2,1.1-1.2c0,0,0,0,0,0C-2330.9-1562.8-2330.3-1562.3-2330.3-1561.7z M-2330.7-1573.6h-1.2
	c-1.9,0-3.5,1.5-3.5,3.5c0,0,0,0,0,0v0.4h1.5v-0.4c0-1.1,0.9-1.9,1.9-1.9l0,0h1.2c1.1,0,1.9,0.9,1.9,1.9s-0.9,1.9-1.9,1.9h-1.5v3.5
	h1.5v-1.9c1.9,0,3.5-1.6,3.5-3.5S-2328.8-1573.6-2330.7-1573.6C-2330.7-1573.6-2330.7-1573.6-2330.7-1573.6L-2330.7-1573.6z"/>
</svg>
