<?xml version="1.0" encoding="utf-8"?>
<!-- Generator: Adobe Illustrator 27.5.0, SVG Export Plug-In . SVG Version: 6.00 Build 0)  -->
<svg version="1.1" id="Layer_1" xmlns="http://www.w3.org/2000/svg" xmlns:xlink="http://www.w3.org/1999/xlink" x="0px" y="0px"
	 viewBox="0 0 24 24" style="enable-background:new 0 0 24 24;" xml:space="preserve">
<style type="text/css">
	.st0{fill:#888888;}
	.st1{fill:none;}
	.st2{fill:#707070;}
	.st3{fill:#767676;}
	.st4{fill:#FFFFFF;}
	.st5{fill:#FF0000;}
</style>
<path id="ICON_LOGOUT_00000049935211712545493450000012477801306227748517_" transform="translate(2343.625 1672.251)" class="st3" d="
	M-2328-1662.7c0.4,0,0.7-0.3,0.7-0.7v-2.1c0-1.5-1.2-2.8-2.8-2.8h-10.2c-1.5,0-2.8,1.2-2.8,2.8v12.7c0,1.5,1.2,2.8,2.8,2.8h10.2
	c1.5,0,2.8-1.2,2.8-2.8v-2.1c0-0.4-0.3-0.7-0.7-0.7c-0.4,0-0.7,0.3-0.7,0.7v2.1c0,0.8-0.7,1.5-1.5,1.5h-10.2c-0.8,0-1.5-0.6-1.5-1.5
	v-12.7c0-0.8,0.6-1.5,1.5-1.5h10.2c0.8,0,1.5,0.6,1.5,1.5v2.1C-2328.7-1663-2328.4-1662.7-2328-1662.7z"/>
<path class="st3" d="M23.9,13.1C23.9,13.1,23.9,13.1,23.9,13.1c0,0.1,0,0.2-0.1,0.3c0,0,0,0,0,0c0,0.1-0.1,0.1-0.1,0.2
	c0,0-0.1,0.1-0.1,0.1l-4.1,4.1C19.4,18,19.2,18,19,18c-0.2,0-0.3-0.1-0.5-0.2c-0.3-0.3-0.3-0.7,0-0.9l3.1-3.1H8.8
	c-0.4,0-0.7-0.3-0.7-0.7c0-0.4,0.3-0.7,0.7-0.7h12.9l-3.1-3.1c-0.3-0.3-0.3-0.7,0-0.9c0.3-0.3,0.7-0.3,0.9,0l4.1,4.2
	c0,0,0.1,0.1,0.1,0.1c0.1,0.1,0.1,0.1,0.1,0.2C23.9,13,23.9,13,23.9,13.1z"/>
</svg>
