<?xml version="1.0" encoding="utf-8"?>
<!-- Generator: Adobe Illustrator 27.5.0, SVG Export Plug-In . SVG Version: 6.00 Build 0)  -->
<svg version="1.1" id="Layer_1" xmlns="http://www.w3.org/2000/svg" xmlns:xlink="http://www.w3.org/1999/xlink" x="0px" y="0px"
	 viewBox="0 0 24 24" style="enable-background:new 0 0 24 24;" xml:space="preserve">
<style type="text/css">
	.st0{fill:#888888;}
	.st1{fill:none;}
	.st2{fill:#707070;}
	.st3{fill:#767676;}
	.st4{fill:#FFFFFF;}
	.st5{fill:#FF0000;}
</style>
<path id="support-2_00000132784172476650697960000014285519850120668552_" transform="translate(2345 1532)" class="st4" d="
	M-2323.3-1511.9l-1.9,1.9l-10-9.9l-0.9,0.3c-0.6,0.2-1.3,0.3-1.9,0.3c-1.5,0-2.8-0.6-3.8-1.6c-1.1-1.1-1.6-2.5-1.6-4l3.8,3.8
	l5.2-5.2l-3.8-3.8h0.2c1.4,0,2.8,0.5,3.8,1.6c1.5,1.5,2,3.8,1.2,5.8l-0.3,0.9L-2323.3-1511.9z M-2323.3-1509.9h0.2v-0.1
	L-2323.3-1509.9z M-2341.1-1518.7c0.1,0,0.1,0.1,0.2,0.1c0,0,0.1,0,0.1,0C-2340.9-1518.6-2341-1518.6-2341.1-1518.7z
	 M-2339.8-1518.2c0.4,0.1,0.8,0.2,1.2,0.2C-2339-1518-2339.4-1518-2339.8-1518.2z M-2338.5-1517.9c0.6,0.1,1.3,0,1.9-0.1
	C-2337.3-1517.9-2337.9-1517.9-2338.5-1517.9z M-2340.9-1530.8l4.5,4.6l0,0L-2340.9-1530.8z M-2333.2-1521.9l0.3-0.9
	c0.8-2,0.3-4.3-1.2-5.8c-1-1-2.4-1.6-3.8-1.6h-0.2l3.8,3.8l-5.2,5.2l-3.8-3.8c-0.1,1.5,0.5,2.9,1.6,4c1,1,2.4,1.6,3.8,1.6
	c0.6,0,1.3-0.1,1.9-0.3l0.9-0.3l10,9.9l1.9-1.9L-2333.2-1521.9z M-2340.2-1531.1c-0.2,0.1-0.5,0.2-0.7,0.3l0,0
	C-2340.7-1531-2340.4-1531.1-2340.2-1531.1z M-2322-1511.2l-1.1,1.1l-0.2,0.1l-1.1,1.1c-0.4,0.4-1.1,0.4-1.5,0l-1.1-1.1l-8.5-8.4
	c-0.4,0.1-0.8,0.3-1.2,0.3c-0.6,0.1-1.3,0.1-1.9,0.1c-0.4,0-0.8-0.1-1.2-0.2c-0.1,0-0.1,0-0.2,0c-0.2-0.1-0.4-0.1-0.6-0.2
	c-0.1,0-0.2-0.1-0.3-0.1c-0.1,0-0.2-0.1-0.3-0.1c-0.2-0.1-0.4-0.2-0.6-0.3c-0.2-0.1-0.3-0.2-0.5-0.3c0,0,0,0-0.1-0.1
	c-0.2-0.1-0.3-0.3-0.5-0.4c0,0,0,0-0.1-0.1c-0.7-0.7-1.3-1.6-1.6-2.5c-0.1-0.1-0.1-0.3-0.1-0.4c-0.1-0.3-0.2-0.6-0.2-0.9
	c0-0.1,0-0.3,0-0.4c-0.1-1.2,0.1-2.4,0.7-3.5l4.6,4.6l3.2-3.2l-4.6-4.5c0.2-0.1,0.5-0.2,0.7-0.3c0.7-0.3,1.5-0.4,2.3-0.4
	c0.5,0,1,0.1,1.5,0.2c0.2,0,0.3,0.1,0.5,0.1c1.1,0.3,2,0.9,2.9,1.7c0.8,0.8,1.4,1.8,1.7,2.9c0.3,1,0.4,2.1,0.2,3.2
	c-0.1,0.4-0.2,0.9-0.4,1.3l8.4,8.4l1.1,1.1C-2321.6-1512.3-2321.6-1511.6-2322-1511.2z M-2323.3-1511.9l-9.9-9.9l0.3-0.9
	c0.8-2,0.3-4.3-1.2-5.8c-1-1-2.4-1.6-3.8-1.6h-0.2l3.8,3.8l-5.2,5.2l-3.8-3.8c-0.1,1.5,0.5,2.9,1.6,4c1,1,2.4,1.6,3.8,1.6
	c0.6,0,1.3-0.1,1.9-0.3l0.9-0.3l10,9.9L-2323.3-1511.9z"/>
</svg>
