<?xml version="1.0" encoding="utf-8"?>
<!-- Generator: Adobe Illustrator 27.5.0, SVG Export Plug-In . SVG Version: 6.00 Build 0)  -->
<svg version="1.1" id="Layer_1" xmlns="http://www.w3.org/2000/svg" xmlns:xlink="http://www.w3.org/1999/xlink" x="0px" y="0px"
	 viewBox="0 0 24 24" style="enable-background:new 0 0 24 24;" xml:space="preserve">
<style type="text/css">
	.st0{fill:#888888;}
	.st1{fill:none;}
	.st2{fill:#707070;}
	.st3{fill:#767676;}
	.st4{fill:#FFFFFF;}
	.st5{fill:#FF0000;}
</style>
<g id="Iconl_report_00000158723246099012275830000016502404238452662685_" transform="translate(2347 1435)">
	<g id="Paper_00000143595066276756321710000002240230678333997727_">
		<g id="Stroke_1-2_00000032624590492141286940000007036504326475809666_">
			<path class="st3" d="M-2324.6-1428.3l-6.1-6.4c-0.1-0.1-0.3-0.2-0.5-0.2h-8.1c0,0,0,0,0,0c-2.9,0-5.3,2.4-5.4,5.3v13
				c-0.1,3,2.3,5.4,5.3,5.5h9.9c3-0.1,5.3-2.5,5.2-5.5v-11.1C-2324.4-1428-2324.4-1428.2-2324.6-1428.3z M-2330.8-1432.7l4.2,4.4
				h-1.8c-1.3,0-2.4-1.1-2.4-2.4V-1432.7z M-2325.8-1416.7c0,2.2-1.7,3.9-3.8,4h-9.8c-2.1-0.1-3.9-1.8-3.8-4v-13
				c0.1-2.1,1.8-3.8,3.9-3.8c0,0,0,0,0,0h7v2.8c0,2.1,1.7,3.9,3.9,3.9h2.6V-1416.7z"/>
		</g>
		<g id="Stroke_3-2_00000142884175073165398730000015603426348206750353_">
			<path class="st3" d="M-2331.4-1435h-0.3c0,0,0.1,0,0.1,0C-2331.5-1435-2331.5-1435-2331.4-1435z"/>
			<path class="st3" d="M-2324.3-1427.6c0,0,0,0.1,0,0.1v-0.3C-2324.3-1427.7-2324.3-1427.6-2324.3-1427.6z"/>
		</g>
		<g id="Stroke_5-2_00000113350270337757681030000008083881286539827078_">
			<path class="st3" d="M-2331.8-1418.2h-6.6c-0.4,0-0.7-0.3-0.7-0.7c0-0.4,0.3-0.7,0.7-0.7h6.6c0.4,0,0.7,0.3,0.7,0.7
				C-2331.1-1418.5-2331.4-1418.2-2331.8-1418.2z"/>
		</g>
		<g id="Stroke_7-2_00000155851070729865432880000013923039713080520621_">
			<path class="st3" d="M-2334.3-1422.8h-4.1c-0.4,0-0.7-0.3-0.7-0.7c0-0.4,0.3-0.7,0.7-0.7h4.1c0.4,0,0.7,0.3,0.7,0.7
				C-2333.5-1423.1-2333.9-1422.8-2334.3-1422.8z"/>
		</g>
	</g>
</g>
</svg>
