<?xml version="1.0" encoding="utf-8"?>
<!-- Generator: Adobe Illustrator 27.5.0, SVG Export Plug-In . SVG Version: 6.00 Build 0)  -->
<svg version="1.1" id="Layer_1" xmlns="http://www.w3.org/2000/svg" xmlns:xlink="http://www.w3.org/1999/xlink" x="0px" y="0px"
	 viewBox="0 0 24 24" style="enable-background:new 0 0 24 24;" xml:space="preserve">
<style type="text/css">
	.st0{fill:#888888;}
	.st1{fill:none;}
	.st2{fill:#707070;}
	.st3{fill:#FFFF00;}
	.st4{fill:#FFFFFF;}
	.st5{fill:#FF0000;}
	.st6{fill:#767676;}
</style>
<g id="Iconl_report_00000113355401498564888820000010570747626940935554_" transform="translate(2347 1435)">
	<g id="Paper_00000168817049320258833020000010127925320014926261_">
		<g id="Stroke_1-2_00000002369149183746006650000008097925970484852132_">
			<path class="st6" d="M-2328.5-1427.4l-4.1-4.3c-0.1-0.1-0.2-0.2-0.4-0.2h-5.4c0,0,0,0,0,0c-2,0-3.6,1.6-3.6,3.5v8.8
				c0,2,1.6,3.7,3.6,3.7h6.6c2-0.1,3.5-1.7,3.5-3.7v-7.5C-2328.3-1427.2-2328.4-1427.3-2328.5-1427.4z M-2332.7-1430.4l2.8,2.9h-1.2
				c-0.9,0-1.6-0.7-1.6-1.6V-1430.4z M-2329.3-1419.6c0,1.5-1.1,2.6-2.5,2.7h-6.6c-1.4,0-2.6-1.2-2.6-2.7v-8.8
				c0-1.4,1.2-2.5,2.6-2.5c0,0,0,0,0,0h4.7v1.9c0,1.4,1.2,2.6,2.6,2.6h1.7V-1419.6z"/>
		</g>
		<g id="Stroke_3-2_00000114058161263118896890000007004958195962540178_">
			<path class="st6" d="M-2333.1-1431.9h-0.2C-2333.2-1431.9-2333.2-1431.9-2333.1-1431.9
				C-2333.1-1431.9-2333.1-1431.9-2333.1-1431.9z"/>
			<path class="st6" d="M-2328.3-1426.9C-2328.3-1426.9-2328.3-1426.8-2328.3-1426.9L-2328.3-1426.9
				C-2328.3-1427-2328.3-1426.9-2328.3-1426.9z"/>
		</g>
		<g id="Stroke_5-2_00000160870713610513038460000008773627683562250409_">
			<path class="st6" d="M-2333.3-1420.6h-4.4c-0.3,0-0.5-0.2-0.5-0.5s0.2-0.5,0.5-0.5h4.4c0.3,0,0.5,0.2,0.5,0.5
				S-2333-1420.6-2333.3-1420.6z"/>
		</g>
		<g id="Stroke_7-2_00000079450074944503164300000015485451043415260316_">
			<path class="st6" d="M-2335-1423.7h-2.7c-0.3,0-0.5-0.2-0.5-0.5s0.2-0.5,0.5-0.5h2.7c0.3,0,0.5,0.2,0.5,0.5
				S-2334.7-1423.7-2335-1423.7z"/>
		</g>
	</g>
</g>
</svg>
