<?xml version="1.0" encoding="utf-8"?>
<!-- Generator: Adobe Illustrator 27.5.0, SVG Export Plug-In . SVG Version: 6.00 Build 0)  -->
<svg version="1.1" id="Layer_1" xmlns="http://www.w3.org/2000/svg" xmlns:xlink="http://www.w3.org/1999/xlink" x="0px" y="0px"
	 viewBox="0 0 24 24" style="enable-background:new 0 0 24 24;" xml:space="preserve">
<style type="text/css">
	.st0{fill:#888888;}
	.st1{fill:none;}
	.st2{fill:#707070;}
	.st3{fill:#FFFF00;}
	.st4{fill:#FFFFFF;}
	.st5{fill:#FF0000;}
	.st6{fill:#767676;}
</style>
<path id="user_guide-2_00000041997470179151197870000016856321040350572698_" transform="translate(2346 1483)" class="st6" d="
	M-2338.4-1472.7c-1.5,0-2.5-0.1-3.1-0.9c-0.5-0.6-0.5-1.5-0.5-2.7l0.5,0h-0.5c0-2.5,0.1-3.6,3.6-3.6s3.6,1.1,3.6,3.6
	c0,1.2,0,2.1-0.5,2.7C-2335.9-1472.8-2337-1472.7-2338.4-1472.7z M-2338.4-1478.9c-2.6,0-2.6,0.3-2.6,2.6v0c0,1,0,1.8,0.3,2.1
	c0.3,0.3,1,0.5,2.3,0.5c1.3,0,2.1-0.2,2.3-0.5c0.3-0.3,0.3-1.1,0.3-2.1C-2335.8-1478.5-2335.8-1478.9-2338.4-1478.9z
	 M-2328.6-1472.7c-1.5,0-2.5-0.1-3.1-0.9c-0.5-0.6-0.5-1.5-0.5-2.7l0.5,0h-0.5c0-2.5,0.1-3.6,3.6-3.6s3.6,1.1,3.6,3.6
	c0,1.2,0,2.1-0.5,2.7C-2326.1-1472.8-2327.2-1472.7-2328.6-1472.7z M-2328.6-1478.9c-2.6,0-2.6,0.3-2.6,2.6v0c0,1,0,1.8,0.3,2.1
	c0.3,0.3,1,0.5,2.3,0.5s2.1-0.2,2.3-0.5c0.3-0.3,0.3-1.1,0.3-2.1C-2326-1478.5-2326-1478.9-2328.6-1478.9z M-2338.4-1462.9
	c-1.5,0-2.5-0.1-3.1-0.9c-0.5-0.6-0.5-1.5-0.5-2.7l0.5,0h-0.5c0-2.5,0.1-3.6,3.6-3.6s3.6,1.1,3.6,3.6c0,1.2,0,2.1-0.5,2.7
	C-2335.9-1463-2337-1462.9-2338.4-1462.9z M-2338.4-1469.1c-2.6,0-2.6,0.3-2.6,2.6v0c0,1,0,1.8,0.3,2.1c0.3,0.3,1,0.5,2.3,0.5
	c1.3,0,2.1-0.2,2.3-0.5c0.3-0.3,0.3-1.1,0.3-2.1C-2335.8-1468.8-2335.8-1469.1-2338.4-1469.1z M-2328.6-1462.9
	c-1.5,0-2.5-0.1-3.1-0.9c-0.5-0.6-0.5-1.5-0.5-2.7l0.5,0h-0.5c0-2.5,0.1-3.6,3.6-3.6s3.6,1.1,3.6,3.6c0,1.2,0,2.1-0.5,2.7
	C-2326.1-1463-2327.2-1462.9-2328.6-1462.9z M-2328.6-1469.1c-2.6,0-2.6,0.3-2.6,2.6v0c0,1,0,1.8,0.3,2.1c0.3,0.3,1,0.5,2.3,0.5
	c1.3,0,2.1-0.2,2.3-0.5c0.3-0.3,0.3-1.1,0.3-2.1C-2326-1468.8-2326-1469.1-2328.6-1469.1z"/>
</svg>
