<?xml version="1.0" encoding="utf-8"?>
<!-- Generator: Adobe Illustrator 27.5.0, SVG Export Plug-In . SVG Version: 6.00 Build 0)  -->
<svg version="1.1" id="Layer_1" xmlns="http://www.w3.org/2000/svg" xmlns:xlink="http://www.w3.org/1999/xlink" x="0px" y="0px"
	 viewBox="0 0 24 24" style="enable-background:new 0 0 24 24;" xml:space="preserve">
<style type="text/css">
	.st0{fill:#888888;}
	.st1{fill:none;}
	.st2{fill:#707070;}
	.st3{fill:#767676;}
	.st4{fill:#FFFFFF;}
	.st5{fill:#FF0000;}
</style>
<path id="user_guide-2_00000111895601822314496530000004975338269646482605_" transform="translate(2346 1483)" class="st4" d="
	M-2340.8-1472.5c-2,0-3.6-0.2-4.4-1.2c-0.7-0.9-0.7-2.1-0.7-3.8l0.7,0h-0.7c0-3.5,0.2-5.1,5.1-5.1s5.1,1.6,5.1,5.1
	c0,1.7,0,3-0.7,3.9C-2337.2-1472.7-2338.7-1472.5-2340.8-1472.5z M-2340.8-1481.2c-3.7,0-3.7,0.5-3.7,3.7v0c0,1.4,0,2.5,0.4,2.9
	c0.4,0.5,1.4,0.7,3.3,0.7c1.9,0,2.9-0.2,3.3-0.7c0.4-0.5,0.4-1.5,0.4-2.9C-2337.1-1480.7-2337.1-1481.2-2340.8-1481.2z
	 M-2327.1-1472.5c-2,0-3.6-0.2-4.4-1.2c-0.7-0.9-0.7-2.1-0.7-3.8l0.7,0h-0.7c0-3.5,0.2-5.1,5.1-5.1s5.1,1.6,5.1,5.1
	c0,1.7,0,3-0.7,3.9C-2323.5-1472.7-2325-1472.5-2327.1-1472.5z M-2327.1-1481.2c-3.7,0-3.7,0.5-3.7,3.7v0c0,1.4,0,2.5,0.4,2.9
	c0.4,0.5,1.4,0.7,3.3,0.7s2.9-0.2,3.3-0.7c0.4-0.5,0.4-1.5,0.4-2.9C-2323.4-1480.7-2323.4-1481.2-2327.1-1481.2z M-2340.8-1458.8
	c-2,0-3.6-0.2-4.4-1.2c-0.7-0.9-0.7-2.1-0.7-3.8l0.7,0h-0.7c0-3.5,0.2-5.1,5.1-5.1s5.1,1.6,5.1,5.1c0,1.7,0,3-0.7,3.9
	C-2337.2-1459-2338.7-1458.8-2340.8-1458.8z M-2340.8-1467.5c-3.7,0-3.7,0.5-3.7,3.7v0c0,1.4,0,2.5,0.4,2.9c0.4,0.5,1.4,0.7,3.3,0.7
	c1.9,0,2.9-0.2,3.3-0.7c0.4-0.5,0.4-1.5,0.4-2.9C-2337.1-1467-2337.1-1467.5-2340.8-1467.5z M-2327.1-1458.8c-2,0-3.6-0.2-4.4-1.2
	c-0.7-0.9-0.7-2.1-0.7-3.8l0.7,0h-0.7c0-3.5,0.2-5.1,5.1-5.1s5.1,1.6,5.1,5.1c0,1.7,0,3-0.7,3.9
	C-2323.5-1459-2325-1458.8-2327.1-1458.8z M-2327.1-1467.5c-3.7,0-3.7,0.5-3.7,3.7v0c0,1.4,0,2.5,0.4,2.9c0.4,0.5,1.4,0.7,3.3,0.7
	c1.9,0,2.9-0.2,3.3-0.7c0.4-0.5,0.4-1.5,0.4-2.9C-2323.4-1467-2323.4-1467.5-2327.1-1467.5z"/>
</svg>
