<?xml version="1.0" encoding="utf-8"?>
<!-- Generator: Adobe Illustrator 27.5.0, SVG Export Plug-In . SVG Version: 6.00 Build 0)  -->
<svg version="1.1" id="Layer_1" xmlns="http://www.w3.org/2000/svg" xmlns:xlink="http://www.w3.org/1999/xlink" x="0px" y="0px"
	 viewBox="0 0 155 58" style="enable-background:new 0 0 155 58;" xml:space="preserve">
<style type="text/css">
	.st0{fill:#FFFFFF;}
</style>
<path class="st0" d="M147.2,40.6c-0.3-0.8-0.3-1.1,0.5-1.6c2.9-1.6,4.2-4.2,4.2-7.5c0-5.2,0-10.4,0-15.6c0-5.4-3.4-8.9-8.8-8.9
	c-7.3,0-14.6,0-21.9,0c-1,0-1.3,0.3-1.3,1.3c0,7,0,14.1,0,21.2c0,7.1,0,14.2,0,21.3c0,1.1,0.3,1.4,1.4,1.3c2.6-0.1,5.1,0,7.7,0
	c0.7,0,1,0,1,0l0.2-10.9c0-0.8,0.2-1.1,1.1-1.1c1.2,0.1,2.3,0.1,3.5,0c0.9-0.1,1.3,0.2,1.7,1.1c1.3,3.3,2.7,6.6,4,10
	c0.3,0.7,0.6,0.9,1.4,0.9c3,0,5.9,0,8.9,0c0.8,0,1-0.2,0.7-1C150,47.6,148.7,44.1,147.2,40.6z M141.6,27.5c0,1.4-0.8,2.1-2.1,2.1
	c-2.8,0-5.6,0-8.4,0c-0.7,0-0.8-0.3-0.8-0.9c0-1.7,0-3.5,0-5.3c0-1.8,0-3.5,0-5.3c0-0.6,0.2-0.9,0.8-0.9c2.7,0,5.5,0,8.2,0
	c1.4,0,2.2,0.8,2.2,2.2C141.6,22.2,141.6,24.9,141.6,27.5z M114.1,52L114.1,52L114.1,52L96.5,52V44c0-0.6,0.5-1,1.1-1h3.6l-4.8-17.6
	L89.3,52H78.9L91.4,7.8c0.1-0.4,0.5-0.7,1-0.7h8.3c0.5,0,0.9,0.3,1,0.7L114.1,52z M73.1,9v8.2H53.4v7.7h15.1V35H53.4v7.9h19.7v10.1
	H41.8v-46h29.4C72.2,7.1,73.1,7.9,73.1,9z M36,32.7V52h-8c-5.3,0-10.6,0-15.9,0c-4.6,0-8-3.4-8-8c-0.1-4.8,0-9.6,0-14.4
	c0-4.6,0-9.2,0-13.7c0-5.4,3.4-8.8,8.9-8.8c7.3,0,14.5,0,21.8,0c1.1,0,1.4,0.3,1.3,1.3c-0.1,2.5-0.1,5,0,7.5c0,1.2-0.2,1.6-1.5,1.6
	c-6.2-0.1-12.4,0-18.7-0.1c-1.1,0-1.5,0.2-1.5,1.4c0.1,7.2,0.1,14.5,0,21.7c0,1,0.2,1.3,1.3,1.3c3-0.1,6-0.1,9.1,0
	c0.8,0,1.1-0.2,1.1-1.1c-0.1-1.7-0.1-3.4,0-5.1c0-0.7-0.2-0.9-0.9-0.9c-1.3,0.1-2.5,0-3.8,0c-0.7,0-1-0.2-1-1c0-2.8,0-5.7,0-8.5
	c0-0.6,0.2-0.9,0.8-0.9c4.8,0,9.6,0,14.3,0c0.6,0,0.9,0.2,0.9,0.8C36,27.8,36,30.2,36,32.7L36,32.7z"/>
</svg>
