<svg xmlns="http://www.w3.org/2000/svg" xmlns:xlink="http://www.w3.org/1999/xlink" width="128.772" height="104.108" viewBox="0 0 128.772 104.108">
  <defs>
    <linearGradient id="linear-gradient" x1="1.25" y1="1.292" x2="0.023" gradientUnits="objectBoundingBox">
      <stop offset="0" stop-color="#fff"/>
      <stop offset="1" stop-color="#eae8e8"/>
    </linearGradient>
    <filter id="Path_3583" x="0" y="0" width="128.772" height="104.108" filterUnits="userSpaceOnUse">
      <feOffset dy="10" input="SourceAlpha"/>
      <feGaussianBlur stdDeviation="5" result="blur"/>
      <feFlood flood-opacity="0.059"/>
      <feComposite operator="in" in2="blur"/>
      <feComposite in="SourceGraphic"/>
    </filter>
  </defs>
  <g id="google_sheet" data-name="google sheet" transform="translate(-568 -2744.643)">
    <g transform="matrix(1, 0, 0, 1, 568, 2744.64)" filter="url(#Path_3583)">
      <path id="Path_3583-2" data-name="Path 3583" d="M66.617,3345.918s-2.163,73.108,0,73.108h96.81v-61.042H109.667L97.6,3345.918Z" transform="translate(-50.16 -3340.42)" stroke="#fff" stroke-width="1" fill="url(#linear-gradient)"/>
    </g>
    <g id="Iconly_Two-tone_Chart" data-name="Iconly/Two-tone/Chart" transform="translate(622.386 2783.68)">
      <g id="Chart">
        <path id="Line_182" d="M.476,0V6.86" transform="translate(4.895 8.202)" fill="none" stroke="#000" stroke-linecap="round" stroke-linejoin="round" stroke-width="1.5" opacity="0.7"/>
        <path id="Line_183" d="M.476,0V10.143" transform="translate(9.562 4.919)" fill="none" stroke="#000" stroke-linecap="round" stroke-linejoin="round" stroke-width="1.5" opacity="0.697"/>
        <path id="Line_184" d="M.476,0V3.235" transform="translate(14.152 11.827)" fill="none" stroke="#000" stroke-linecap="round" stroke-linejoin="round" stroke-width="1.5" opacity="0.7"/>
        <path id="Path" d="M14.686,0H5.314C2.048,0,0,2.312,0,5.585v8.83C0,17.688,2.038,20,5.314,20h9.371C17.962,20,20,17.688,20,14.415V5.585C20,2.312,17.962,0,14.686,0Z" fill="none" stroke="#000" stroke-linecap="round" stroke-linejoin="round" stroke-width="1.5"/>
      </g>
    </g>
  </g>
</svg>
