<?xml version="1.0" encoding="utf-8"?>
<!-- Generator: Adobe Illustrator 27.5.0, SVG Export Plug-In . SVG Version: 6.00 Build 0)  -->
<svg version="1.1" id="Layer_1" xmlns="http://www.w3.org/2000/svg" xmlns:xlink="http://www.w3.org/1999/xlink" x="0px" y="0px"
	 viewBox="0 0 24 24" style="enable-background:new 0 0 24 24;" xml:space="preserve">
<style type="text/css">
	.st0{clip-path:url(#Path_3344_00000175294138557656092970000008159213870132056960_);}
	.st1{clip-path:url(#Path_3345_00000137118589826034671140000006650470000633785534_);}
	.st2{fill:#FFFFFF;}
	.st3{clip-path:url(#Path_3344_00000099638066131218709030000000908133362021581499_);}
	.st4{clip-path:url(#Path_3345_00000062894794882788915940000007673059508922120357_);}
	.st5{clip-path:url(#SVGID_00000152956598728784775280000010086481699012921526_);}
	.st6{clip-path:url(#SVGID_00000169544639079978133050000002361944788768519346_);}
	.st7{clip-path:url(#SVGID_00000145780307694007787550000000021554844486389907_);}
	.st8{clip-path:url(#SVGID_00000127740531592791835030000011102878143627505792_);}
</style>
<path class="st2" d="M17.4,5.2h-0.8V3.6h-1.6v1.6H8.9V3.6H7.3v1.6H6.5C5.7,5.2,5,5.9,5,6.8c0,0,0,0,0,0L5,18c0,0.9,0.7,1.6,1.6,1.6
	c0,0,0,0,0,0h10.9c0.9,0,1.6-0.7,1.6-1.6V6.8C19,5.9,18.3,5.2,17.4,5.2z M17.4,18H6.5v-8h10.9V18z M17.4,8.4H6.5V6.8h10.9V8.4z
	 M16.2,11.7h-5v5h5V11.7z"/>
</svg>
