<svg xmlns="http://www.w3.org/2000/svg" width="20" height="20" viewBox="0 0 20 20">
  <g id="Group_687" data-name="Group 687" transform="translate(-177 -2224)">
    <path id="Path_1006" data-name="Path 1006" d="M0,0H20V20H0Z" transform="translate(177 2224)" fill="none"/>
    <path id="Path_1008" data-name="Path 1008" d="M18,4.928,14.32,1.8,13.28,3l3.68,3.128ZM6.72,3.083,5.68,1.88,2,4.928l1.04,1.2L6.72,3.083ZM10.4,6.772H9.2v4.812l3.76,2.326.64-.962-3.2-1.925ZM10,3.564a7.218,7.218,0,1,0,7.2,7.218A7.179,7.179,0,0,0,10,3.564ZM10,16.4a5.614,5.614,0,1,1,5.6-5.614A5.572,5.572,0,0,1,10,16.4Z" transform="translate(177 2224.2)" fill="#888"/>
  </g>
</svg>
