<?xml version="1.0" encoding="utf-8"?>
<!-- Generator: Adobe Illustrator 27.5.0, SVG Export Plug-In . SVG Version: 6.00 Build 0)  -->
<svg version="1.1" id="Layer_1" xmlns="http://www.w3.org/2000/svg" xmlns:xlink="http://www.w3.org/1999/xlink" x="0px" y="0px"
	 viewBox="0 0 24 24" style="enable-background:new 0 0 24 24;" xml:space="preserve">
<style type="text/css">
	.st0{clip-path:url(#Path_3344_00000023273587127142364720000011691760331438611620_);}
	.st1{clip-path:url(#Path_3345_00000162340232098149693200000008940050606701500056_);}
	.st2{fill:#FFFFFF;}
	.st3{clip-path:url(#Path_3344_00000051377132215178328810000002293846045549699255_);}
	.st4{clip-path:url(#Path_3345_00000031906084655195442990000015231771787111793807_);}
	.st5{clip-path:url(#SVGID_00000096759634794662415230000001526849643192224944_);}
	.st6{clip-path:url(#SVGID_00000125566920159598712410000003338884525921770168_);}
	.st7{clip-path:url(#SVGID_00000067951817549417451610000016603835703383547835_);}
	.st8{clip-path:url(#SVGID_00000059269941760825812680000010403581521516385947_);}
</style>
<path d="M12,4C8.1,4,5,6.5,5,9.6C5,13.8,12,20,12,20s7-6.2,7-10.4C19,6.5,15.9,4,12,4z M7,9.6c0-2.2,2.2-4,5-4s5,1.8,5,4
	c0,2.3-2.9,5.8-5,7.9C9.9,15.4,7,11.9,7,9.6z M12,7.3c1.4,0,2.5,1.1,2.5,2.5s-1.1,2.5-2.5,2.5s-2.5-1.1-2.5-2.5S10.6,7.3,12,7.3z"/>
</svg>
