<?xml version="1.0" encoding="utf-8"?>
<!-- Generator: Adobe Illustrator 27.5.0, SVG Export Plug-In . SVG Version: 6.00 Build 0)  -->
<svg version="1.1" id="Layer_1" xmlns="http://www.w3.org/2000/svg" xmlns:xlink="http://www.w3.org/1999/xlink" x="0px" y="0px"
	 viewBox="0 0 24 24" style="enable-background:new 0 0 24 24;" xml:space="preserve">
<style type="text/css">
	.st0{clip-path:url(#Path_3344_00000062912485126454828030000006605425486487167118_);}
	.st1{clip-path:url(#Path_3345_00000046300468361259417300000009869006000146891948_);}
	.st2{fill:#FFFFFF;}
	.st3{clip-path:url(#Path_3344_00000172435911798810475850000008782435003422431146_);}
	.st4{clip-path:url(#Path_3345_00000108305578785302307500000014773304168563196545_);}
	.st5{clip-path:url(#SVGID_00000043426123481820585200000005907403702979408276_);}
	.st6{clip-path:url(#SVGID_00000054257079555393810630000007740223165138834107_);}
	.st7{clip-path:url(#SVGID_00000110465776810528032470000017083664504670969475_);}
	.st8{clip-path:url(#SVGID_00000079445150508369613970000010537683901206628786_);}
</style>
<g>
	<defs>
		<path id="Path_3344_00000011015399039118969380000013786452400870642864_" d="M12.3,4c-4.4,0-8,3.6-8,8s3.6,8,8,8s8-3.6,8-8
			C20.3,7.6,16.7,4,12.3,4C12.3,4,12.3,4,12.3,4z M12.3,18.4c-3.5,0-6.4-2.9-6.4-6.4c0-3.5,2.9-6.4,6.4-6.4c3.5,0,6.4,2.9,6.4,6.4v0
			C18.7,15.5,15.8,18.4,12.3,18.4z"/>
	</defs>
	<defs>
		<path id="Path_3345_00000040561300403577817190000011127409223108709275_" d="M15.9,7l-3.6,3.6L8.7,7L7.3,8.4l3.6,3.6l-3.6,3.6
			L8.7,17l3.6-3.6l3.6,3.6l1.4-1.4L13.7,12l3.6-3.6L15.9,7z"/>
	</defs>
	<use xlink:href="#Path_3344_00000011015399039118969380000013786452400870642864_"  style="overflow:visible;"/>
	<use xlink:href="#Path_3345_00000040561300403577817190000011127409223108709275_"  style="overflow:visible;"/>
	<clipPath id="Path_3344_00000181082647357063627350000016448122899150957442_">
		<use xlink:href="#Path_3344_00000011015399039118969380000013786452400870642864_"  style="overflow:visible;"/>
	</clipPath>
	
		<clipPath id="Path_3345_00000124141861499586450850000011247916608221930163_" style="clip-path:url(#Path_3344_00000181082647357063627350000016448122899150957442_);">
		<use xlink:href="#Path_3345_00000040561300403577817190000011127409223108709275_"  style="overflow:visible;"/>
	</clipPath>
	
		<g id="Bounding_Boxes_00000029746126854685852410000015040171215649158790_" style="clip-path:url(#Path_3345_00000124141861499586450850000011247916608221930163_);">
		<path id="Path_3314_00000173119654246714393960000007919241074932002717_" d="M2,2h20v20H2V2z"/>
	</g>
</g>
</svg>
