<?xml version="1.0" encoding="utf-8"?>
<!-- Generator: Adobe Illustrator 27.5.0, SVG Export Plug-In . SVG Version: 6.00 Build 0)  -->
<svg version="1.1" id="Layer_1" xmlns="http://www.w3.org/2000/svg" xmlns:xlink="http://www.w3.org/1999/xlink" x="0px" y="0px"
	 viewBox="0 0 24 24" style="enable-background:new 0 0 24 24;" xml:space="preserve">
<style type="text/css">
	.st0{clip-path:url(#Path_3344_00000003098995814085506100000011509173664882531760_);}
	.st1{clip-path:url(#Path_3345_00000149353889682945278250000014042711463725245864_);}
	.st2{fill:#FFFFFF;}
	.st3{clip-path:url(#Path_3344_00000029003965359131185270000014025240025839222426_);}
	.st4{clip-path:url(#Path_3345_00000165224837090168921680000003474625669213637271_);}
	.st5{clip-path:url(#SVGID_00000124868058543031747450000013633794173258380732_);}
	.st6{clip-path:url(#SVGID_00000000191747747474832640000002999334938963768980_);}
	.st7{clip-path:url(#SVGID_00000053546602169287102110000015089333842861871490_);}
	.st8{clip-path:url(#SVGID_00000047053140878566241020000009619211682390310279_);}
</style>
<g>
	<defs>
		<path id="Path_3344_00000158028522199522899810000002770387351443970693_" d="M12.3,4c-4.4,0-8,3.6-8,8s3.6,8,8,8s8-3.6,8-8
			C20.3,7.6,16.7,4,12.3,4C12.3,4,12.3,4,12.3,4z M12.3,18.4c-3.5,0-6.4-2.9-6.4-6.4c0-3.5,2.9-6.4,6.4-6.4c3.5,0,6.4,2.9,6.4,6.4v0
			C18.7,15.5,15.8,18.4,12.3,18.4z"/>
	</defs>
	<defs>
		<path id="Path_3345_00000044880186433798717870000007492277857111082630_" d="M15.9,7l-3.6,3.6L8.7,7L7.3,8.4l3.6,3.6l-3.6,3.6
			L8.7,17l3.6-3.6l3.6,3.6l1.4-1.4L13.7,12l3.6-3.6L15.9,7z"/>
	</defs>
	<use xlink:href="#Path_3344_00000158028522199522899810000002770387351443970693_"  style="overflow:visible;fill:#FFFFFF;"/>
	<use xlink:href="#Path_3345_00000044880186433798717870000007492277857111082630_"  style="overflow:visible;fill:#FFFFFF;"/>
	<clipPath id="Path_3344_00000158015665185432706670000009278930517571090820_">
		<use xlink:href="#Path_3344_00000158028522199522899810000002770387351443970693_"  style="overflow:visible;"/>
	</clipPath>
	
		<clipPath id="Path_3345_00000080886831046971100510000010237181875608703364_" style="clip-path:url(#Path_3344_00000158015665185432706670000009278930517571090820_);">
		<use xlink:href="#Path_3345_00000044880186433798717870000007492277857111082630_"  style="overflow:visible;"/>
	</clipPath>
	
		<g id="Bounding_Boxes_00000022548680522296934880000012625867184382449283_" style="clip-path:url(#Path_3345_00000080886831046971100510000010237181875608703364_);">
		<path id="Path_3314_00000091724130840763844210000003417435759730725254_" class="st2" d="M2,2h20v20H2V2z"/>
	</g>
</g>
</svg>
