<svg xmlns="http://www.w3.org/2000/svg" width="20" height="20" viewBox="0 0 20 20">
  <g id="Group_694" data-name="Group 694" transform="translate(-74 -533)">
    <g id="outline-check_box-24px" transform="translate(74 533)">
      <g id="Bounding_Boxes">
        <path id="Path_3522" data-name="Path 3522" d="M0,0H20V20H0Z" fill="none"/>
      </g>
      <g id="Outline_1_" transform="translate(3 3)">
        <g id="Group_397" data-name="Group 397">
          <path id="Path_3523" data-name="Path 3523" d="M15.444,3H4.556A1.56,1.56,0,0,0,3,4.556V15.444A1.56,1.56,0,0,0,4.556,17H15.444A1.56,1.56,0,0,0,17,15.444V4.556A1.56,1.56,0,0,0,15.444,3Zm0,12.444H4.556V4.556H15.444Z" transform="translate(-3 -3)" fill="#1f1f1f"/>
        </g>
      </g>
    </g>
    <path id="_Color" data-name=" ↳Color" d="M8.825,0,5,3.812,1.175,0,0,1.173,5,6.167l5-4.993Z" transform="translate(79 540.3)" fill="#1f1f1f"/>
  </g>
</svg>
