<svg xmlns="http://www.w3.org/2000/svg" width="20.338" height="20.623" viewBox="0 0 20.338 20.623">
  <g id="Group_734" data-name="Group 734" transform="translate(172.891 -1235.377)">
    <g id="Rectangle_561" data-name="Rectangle 561" transform="translate(-172.75 1240)" fill="none" stroke="#707070" stroke-width="1.5">
      <path d="M0,0H20a0,0,0,0,1,0,0V10a6,6,0,0,1-6,6H6a6,6,0,0,1-6-6V0A0,0,0,0,1,0,0Z" stroke="none"/>
      <path d="M1.5.75h17a.75.75,0,0,1,.75.75V10A5.25,5.25,0,0,1,14,15.25H6A5.25,5.25,0,0,1,.75,10V1.5A.75.75,0,0,1,1.5.75Z" fill="none"/>
    </g>
    <path id="Path_3754" data-name="Path 3754" d="M.527,2.549l3.587-4.2H16.078l3.651,4.2" transform="translate(-172.848 1237.776)" fill="none" stroke="#707070" stroke-width="1.5"/>
    <path id="Path_3757" data-name="Path 3757" d="M-166.827,1244.371h6" transform="translate(1.327)" fill="none" stroke="#707070" stroke-linecap="round" stroke-width="1.5"/>
  </g>
</svg>
