<svg xmlns="http://www.w3.org/2000/svg" width="24.185" height="28.101" viewBox="0 0 24.185 28.101">
  <g id="Group_501" data-name="Group 501" transform="translate(-39.871 -224.522)">
    <g id="Group_450" data-name="Group 450" transform="translate(40.871 225.522)">
      <path id="Fill_3" data-name="Fill 3" d="M21.6,9.161c-.556,0-1.215.013-1.615.013-.594,0-1.37-.013-2.352-.013A4.37,4.37,0,0,1,13.322,4.8V.6a.6.6,0,0,0-.594-.6h-6.9A5.866,5.866,0,0,0,0,5.886V19.954A6.13,6.13,0,0,0,6.1,26.1H16.371a5.833,5.833,0,0,0,5.814-5.86V9.749a.582.582,0,0,0-.581-.587" transform="translate(0 0)" fill="none" stroke="#707070" stroke-width="2"/>
      <path id="Path_2953" data-name="Path 2953" d="M424.527,1330.522l8.809,9.058" transform="translate(-411.33 -1330.252)" fill="none" stroke="#707070" stroke-width="2"/>
      <rect id="Rectangle_218" data-name="Rectangle 218" width="10.251" height="10.251" transform="translate(5.487 9.122)" fill="none"/>
    </g>
    <path id="Path" d="M6.475,4.551H4.506V6.54a.844.844,0,0,1-.842.85.854.854,0,0,1-.853-.85V4.551H.853a.856.856,0,0,1,0-1.712H2.811V.85A.854.854,0,0,1,3.664,0a.844.844,0,0,1,.842.85V2.839H6.475a.856.856,0,0,1,0,1.712" transform="translate(48.006 236.555)" fill="#707070"/>
  </g>
</svg>
