<?xml version="1.0" encoding="utf-8"?>
<!-- Generator: Adobe Illustrator 27.5.0, SVG Export Plug-In . SVG Version: 6.00 Build 0)  -->
<svg version="1.1" id="Layer_1" xmlns="http://www.w3.org/2000/svg" xmlns:xlink="http://www.w3.org/1999/xlink" x="0px" y="0px"
	 viewBox="0 0 24 24" style="enable-background:new 0 0 24 24;" xml:space="preserve">
<style type="text/css">
	.st0{clip-path:url(#Path_3344_00000182528435662570079100000010956377227188205197_);}
	.st1{clip-path:url(#Path_3345_00000113322829077305470830000007670850274166013097_);}
	.st2{fill:#FFFFFF;}
	.st3{clip-path:url(#Path_3344_00000039094431329340874050000012525969069846137219_);}
	.st4{clip-path:url(#Path_3345_00000179623117882021748990000017514614928939765950_);}
	.st5{clip-path:url(#SVGID_00000061441298479680225140000009411612575444068283_);}
	.st6{clip-path:url(#SVGID_00000134251414189948639730000000121357110233325239_);}
	.st7{clip-path:url(#SVGID_00000085252679015235884060000015756730767338480797_);}
	.st8{clip-path:url(#SVGID_00000016778935210268808380000016792074659727319448_);}
</style>
<path d="M17.4,5.2h-0.8V3.6h-1.6v1.6H8.9V3.6H7.3v1.6H6.5C5.7,5.2,5,5.9,5,6.8c0,0,0,0,0,0L5,18c0,0.9,0.7,1.6,1.6,1.6c0,0,0,0,0,0
	h10.9c0.9,0,1.6-0.7,1.6-1.6V6.8C19,5.9,18.3,5.2,17.4,5.2z M17.4,18H6.5v-8h10.9V18z M17.4,8.4H6.5V6.8h10.9V8.4z M16.2,11.7h-5v5
	h5V11.7z"/>
</svg>
