<svg xmlns="http://www.w3.org/2000/svg" xmlns:xlink="http://www.w3.org/1999/xlink" width="25.432" height="25.433" viewBox="0 0 25.432 25.433">
  <defs>
    <clipPath id="clip-path">
      <path id="Path_126" data-name="Path 126" d="M982.262,1708.8l10.9.936-7.85-11.659-17.15,6.4,6.358,18.6,15.761-4.982-9.4-5.477Z" transform="translate(-968.167 -1698.08)" fill="none" stroke="#eb2020" stroke-width="1"/>
    </clipPath>
  </defs>
  <g id="Group_103" data-name="Group 103" transform="matrix(-0.017, -1, 1, -0.017, -1680.489, 1023.088)">
    <g id="Mask_Group_2" data-name="Mask Group 2" transform="translate(968.167 1698.08)" clip-path="url(#clip-path)">
      <g id="Path_141" data-name="Path 141" transform="translate(3.211 3.274)" fill="none">
        <path d="M9.216,0A9.186,9.186,0,1,1,0,9.186,9.2,9.2,0,0,1,9.216,0Z" stroke="none"/>
        <path d="M 9.215957641601562 0.9999961853027344 C 4.685657501220703 0.9999961853027344 0.9999980926513672 4.672367095947266 0.9999980926513672 9.18632698059082 C 0.9999980926513672 13.70028686523438 4.685657501220703 17.37265777587891 9.215957641601562 17.37265777587891 C 13.74625778198242 17.37265777587891 17.43191719055176 13.70028686523438 17.43191719055176 9.18632698059082 C 17.43191719055176 4.672367095947266 13.74625778198242 0.9999961853027344 9.215957641601562 0.9999961853027344 M 9.215957641601562 -3.814697265625e-06 C 14.30578804016113 -3.814697265625e-06 18.43191719055176 4.112856864929199 18.43191719055176 9.18632698059082 C 18.43191719055176 14.25979709625244 14.30578804016113 18.37265777587891 9.215957641601562 18.37265777587891 C 4.126127243041992 18.37265777587891 -1.9073486328125e-06 14.25979709625244 -1.9073486328125e-06 9.18632698059082 C -1.9073486328125e-06 4.112856864929199 4.126127243041992 -3.814697265625e-06 9.215957641601562 -3.814697265625e-06 Z" stroke="none" fill="#eb2020"/>
      </g>
    </g>
    <path id="Path_127" data-name="Path 127" d="M0,2.192l2.576.261L2.938,0" transform="matrix(0.966, 0.259, -0.259, 0.966, 987.517, 1706.849)" fill="none" stroke="#eb2020" stroke-linecap="round" stroke-width="1"/>
    <path id="Path_140" data-name="Path 140" d="M987.309,1712.651l-5.031-.088-.09,5.138" transform="translate(-2.298 -2.414)" fill="none" stroke="#eb2020" stroke-linecap="round" stroke-width="1"/>
  </g>
</svg>
