<svg xmlns="http://www.w3.org/2000/svg" width="36.632" height="43" viewBox="0 0 36.632 43">
  <g id="Iconly_Light_Paper" data-name="Iconly/Light/Paper" transform="translate(1.001 1)">
    <g id="Paper">
      <path id="Stroke_1" data-name="Stroke 1" d="M23.353,0H8.539A8.517,8.517,0,0,0,0,8.325V32.242a8.537,8.537,0,0,0,8.332,8.731c.069,0,.136,0,.2,0H26.328a8.667,8.667,0,0,0,8.3-8.731V11.779Z" transform="translate(0 0.026)" fill="none" stroke="#eb2020" stroke-linecap="round" stroke-linejoin="round" stroke-width="2"/>
      <path id="Stroke_3" data-name="Stroke 3" d="M0,0V6.494a5.74,5.74,0,0,0,5.718,5.749h6.134" transform="translate(22.768)" fill="none" stroke="#eb2020" stroke-linecap="round" stroke-linejoin="round" stroke-width="2"/>
      <path id="Stroke_5" data-name="Stroke 5" d="M15.47.5H0" transform="translate(8.328 27.648)" fill="none" stroke="#eb2020" stroke-linecap="round" stroke-linejoin="round" stroke-width="2"/>
      <path id="Stroke_7" data-name="Stroke 7" d="M11.941.5H0" transform="translate(8.326 19.271)" fill="none" stroke="#eb2020" stroke-linecap="round" stroke-linejoin="round" stroke-width="2"/>
    </g>
  </g>
</svg>
