<?xml version="1.0" encoding="utf-8"?>
<!-- Generator: Adobe Illustrator 27.5.0, SVG Export Plug-In . SVG Version: 6.00 Build 0)  -->
<svg version="1.1" id="Layer_1" xmlns="http://www.w3.org/2000/svg" xmlns:xlink="http://www.w3.org/1999/xlink" x="0px" y="0px"
	 viewBox="0 0 105 105" style="enable-background:new 0 0 105 105;" xml:space="preserve">
<style type="text/css">
	.st0{fill:#FFFFFF;}
</style>
<path class="st0" d="M76.8,35.2L48.1,73.5L28.5,51.8c-0.5-0.6-0.5-1.6,0.1-2.1c0.6-0.6,1.6-0.5,2.1,0.1l17.2,19l26.5-35.3
	c0.5-0.7,1.4-0.8,2.1-0.3C77.2,33.6,77.3,34.6,76.8,35.2z M103.6,52.7c0,4.8-0.7,9.5-1.9,14c-0.2,0.8-0.5,1.6-0.7,2.4
	C96,83.7,84.6,95.3,70.1,100.6c-0.4,0.1-0.8,0.3-1.2,0.4c-0.8,0.3-1.6,0.5-2.4,0.7c-4.4,1.3-9.1,1.9-14,1.9c-4.8,0-9.5-0.7-14-1.9
	c-0.8-0.2-1.6-0.5-2.4-0.7c-0.8-0.3-1.6-0.6-2.4-0.9c0,0,0,0,0,0C20,94.7,9.1,83.3,4.3,69.1c-0.3-0.8-0.5-1.6-0.7-2.4
	c-1.3-4.4-1.9-9.1-1.9-14c0-4.8,0.7-9.5,1.9-14C3.8,38,4,37.2,4.3,36.4C9.1,22.1,20,10.7,33.9,5.3c0,0,0,0,0,0
	c0.8-0.3,1.6-0.6,2.4-0.9c0.8-0.3,1.6-0.5,2.4-0.7c4.4-1.3,9.1-1.9,14-1.9c4.8,0,9.5,0.7,14,1.9c0.8,0.2,1.6,0.5,2.4,0.7
	c0.4,0.1,0.8,0.3,1.2,0.4c14.5,5.3,25.8,16.9,30.8,31.6c0.3,0.8,0.5,1.6,0.7,2.4C102.9,43.2,103.6,47.9,103.6,52.7z M102.6,52.7
	c0-27.6-22.4-50-50-50c-27.6,0-50,22.4-50,50s22.4,50,50,50C80.2,102.7,102.6,80.3,102.6,52.7z M103.6,52.7c0,4.8-0.7,9.5-1.9,14
	c-0.2,0.8-0.5,1.6-0.7,2.4c-5,14.6-16.3,26.3-30.8,31.6c-0.4,0.1-0.8,0.3-1.2,0.4c-0.8,0.3-1.6,0.5-2.4,0.7c-4.4,1.3-9.1,1.9-14,1.9
	c-4.8,0-9.5-0.7-14-1.9c-0.8-0.2-1.6-0.5-2.4-0.7c-0.8-0.3-1.6-0.6-2.4-0.9c0,0,0,0,0,0C20,94.7,9.1,83.3,4.3,69.1
	c-0.3-0.8-0.5-1.6-0.7-2.4c-1.3-4.4-1.9-9.1-1.9-14c0-4.8,0.7-9.5,1.9-14C3.8,38,4,37.2,4.3,36.4C9.1,22.2,20,10.8,33.9,5.3
	c0,0,0,0,0,0c0.8-0.3,1.6-0.6,2.4-0.9c0.8-0.3,1.6-0.5,2.4-0.7c4.4-1.3,9.1-1.9,14-1.9c4.8,0,9.5,0.7,14,1.9
	c0.8,0.2,1.6,0.5,2.4,0.7c0.4,0.1,0.8,0.3,1.2,0.4c14.4,5.3,25.8,17,30.8,31.6c0.3,0.8,0.5,1.6,0.7,2.4
	C102.9,43.2,103.6,47.9,103.6,52.7z M102.6,52.7c0-27.6-22.4-50-50-50c-27.6,0-50,22.4-50,50s22.4,50,50,50
	C80.2,102.7,102.6,80.3,102.6,52.7z"/>
</svg>
