<?xml version="1.0" encoding="utf-8"?>
<!-- Generator: Adobe Illustrator 27.5.0, SVG Export Plug-In . SVG Version: 6.00 Build 0)  -->
<svg version="1.1" id="Layer_1" xmlns="http://www.w3.org/2000/svg" xmlns:xlink="http://www.w3.org/1999/xlink" x="0px" y="0px"
	 viewBox="0 0 24 24" style="enable-background:new 0 0 24 24;" xml:space="preserve">
<style type="text/css">
	.st0{fill:none;stroke:#767676;stroke-linecap:round;}
	.st1{fill:#767676;}
	.st2{fill:#888888;}
	.st3{fill:#707070;}
</style>
<path id="Iconly_Light_Paper_00000163058131940465813360000010880934591986308026_" transform="translate(0.75 0.75)" class="st3" d="
	M21.6,6.1l-6.1-6.3c-0.1-0.1-0.3-0.2-0.5-0.2H7c0,0,0,0,0,0c-2.9,0-5.2,2.3-5.3,5.2v12.8C1.6,20.5,3.9,23,6.9,23h9.7
	c2.9-0.1,5.2-2.5,5.2-5.4v-11C21.8,6.4,21.7,6.2,21.6,6.1z M19.5,6.1h-1.8c-1.3,0-2.3-1-2.3-2.3V1.8L19.5,6.1z M20.3,17.6
	c0,2.1-1.6,3.8-3.7,3.9H6.9c-2.1,0-3.8-1.8-3.8-3.9V4.8C3.2,2.7,4.9,1,7,1h6.9v2.7c0,2.1,1.7,3.8,3.8,3.8h2.6V17.6z M14.7-0.5h-0.1
	C14.6-0.5,14.6-0.5,14.7-0.5C14.7-0.5,14.7-0.5,14.7-0.5z M14.4,16.1H8c-0.4,0-0.8-0.3-0.8-0.8s0.3-0.8,0.8-0.8h6.5
	c0.4,0,0.8,0.3,0.8,0.8S14.8,16.1,14.4,16.1z M12,11.6H8c-0.4,0-0.8-0.3-0.8-0.8s0.3-0.8,0.8-0.8h4c0.4,0,0.8,0.3,0.8,0.8
	S12.4,11.6,12,11.6z"/>
</svg>
