<?xml version="1.0" encoding="utf-8"?>
<!-- Generator: Adobe Illustrator 27.5.0, SVG Export Plug-In . SVG Version: 6.00 Build 0)  -->
<svg version="1.1" id="Layer_1" xmlns="http://www.w3.org/2000/svg" xmlns:xlink="http://www.w3.org/1999/xlink" x="0px" y="0px"
	 viewBox="0 0 24 24" style="enable-background:new 0 0 24 24;" xml:space="preserve">
<style type="text/css">
	.st0{fill:none;stroke:#767676;stroke-linecap:round;}
	.st1{fill:#767676;}
	.st2{fill:#FFFFFF;}
</style>
<path class="st2" d="M13.9,11.5c2-0.8,3.4-2.7,3.4-5c0-3-2.4-5.4-5.4-5.4S6.5,3.5,6.5,6.4c0,2.3,1.4,4.3,3.4,5
	c-5.3,0.9-9.3,5.5-9.3,11v0.5h22.4v-0.5C23.1,17,19.1,12.4,13.9,11.5z M7.6,6.4c0-2.4,1.9-4.3,4.3-4.3s4.3,1.9,4.3,4.3
	c0,2.4-1.9,4.3-4.3,4.3S7.6,8.8,7.6,6.4z M1.8,22c0.3-5.3,4.7-9.6,10.1-9.6S21.8,16.6,22,22H1.8z"/>
</svg>
