<svg id="Iconly_Light-Outline_Delete" data-name="Iconly/Light-Outline/Delete" xmlns="http://www.w3.org/2000/svg" width="16.612" height="18" viewBox="0 0 16.612 18">
  <g id="Delete" transform="translate(0 0)">
    <path id="Combined_Shape" data-name="Combined Shape" d="M4.737,17.962a2.67,2.67,0,0,1-2.716-2.546c-.284-2.556-.769-8.58-.773-8.641a.674.674,0,0,1,.618-.727.694.694,0,0,1,.727.619c0,.061.488,6.065.77,8.6a1.325,1.325,0,0,0,1.4,1.345c2.25.047,4.546.05,7.021,0a1.346,1.346,0,0,0,1.463-1.356c.279-2.515.765-8.534.77-8.595a.691.691,0,0,1,.727-.619.677.677,0,0,1,.62.727c-.006.062-.493,6.1-.774,8.635a2.679,2.679,0,0,1-2.781,2.558c-1.2.02-2.357.032-3.489.032C7.1,18,5.914,17.986,4.737,17.962ZM13,4.49H.675a.675.675,0,1,1,0-1.349H3.616a.812.812,0,0,0,.792-.65L4.627,1.4A1.839,1.839,0,0,1,6.4,0h3.809a1.83,1.83,0,0,1,1.766,1.355l.228,1.135A.81.81,0,0,0,13,3.14h2.941a.675.675,0,1,1,0,1.349ZM11,3.14a2.149,2.149,0,0,1-.115-.385l-.219-1.094a.473.473,0,0,0-.452-.311H6.4a.476.476,0,0,0-.461.352l-.21,1.053a2.142,2.142,0,0,1-.115.385Z" transform="translate(0 0)" fill="#e85353"/>
  </g>
</svg>
