<?xml version="1.0" encoding="utf-8"?>
<!-- Generator: Adobe Illustrator 27.5.0, SVG Export Plug-In . SVG Version: 6.00 Build 0)  -->
<svg version="1.1" id="Layer_1" xmlns="http://www.w3.org/2000/svg" xmlns:xlink="http://www.w3.org/1999/xlink" x="0px" y="0px"
	 viewBox="0 0 24 24" style="enable-background:new 0 0 24 24;" xml:space="preserve">
<style type="text/css">
	.st0{fill:none;stroke:#767676;stroke-linecap:round;}
	.st1{fill:#767676;}
	.st2{fill:#888888;}
	.st3{fill:#707070;}
</style>
<g id="Iconly_Light_Home_00000093896671245090293730000008729394151477668239_" transform="translate(0.75 0.868)">
	<g id="Home_00000038408691212145899200000005256053559806833561_">
		<g id="Home-2_00000122700358486849267820000009804222938310622388_">
			<path class="st3" d="M5.2,21.9C2.9,21.9,1,20,1,17.7V9c0-1,0.5-1.9,1.3-2.5l6.5-5.2c1.4-1.1,3.4-1.1,4.9,0l6.6,5.3
				C21,7.1,21.5,8,21.5,9v8.7c0,1.1-0.5,2.2-1.2,3c-0.8,0.8-1.8,1.2-3,1.2c0,0,0,0,0,0h-1.9c-1.1,0-1.9-0.9-1.9-2v-3.1
				c0-0.2-0.1-0.3-0.2-0.5c-0.1-0.1-0.3-0.2-0.5-0.2c0,0,0,0,0,0H9.8c-0.4,0-0.7,0.3-0.7,0.7v3.1c0,0.1,0,0.1,0,0.2
				c0,0.5-0.2,0.9-0.6,1.2c-0.4,0.4-0.9,0.6-1.4,0.6H5.2C5.2,21.9,5.2,21.9,5.2,21.9z M12.7,14.7c1.2,0,2.2,1,2.2,2.2v3.1
				c0,0.3,0.2,0.5,0.5,0.5h1.9c0.8,0,1.4-0.3,1.9-0.8c0.5-0.5,0.8-1.2,0.8-1.9V9c0-0.5-0.3-1-0.7-1.3l-6.6-5.3c-0.9-0.7-2.1-0.7-3,0
				L3.2,7.7C2.8,8,2.5,8.5,2.5,9v8.7c0,1.5,1.2,2.7,2.7,2.7c0,0,0,0,0,0h1.9c0.2,0,0.3,0,0.3-0.1c0.1-0.1,0.1-0.2,0.1-0.3
				c0-0.1,0-0.1,0-0.2v-2.9c0-1.2,1-2.2,2.2-2.2H12.7C12.7,14.7,12.7,14.7,12.7,14.7z"/>
		</g>
	</g>
</g>
</svg>
