<?xml version="1.0" encoding="utf-8"?>
<!-- Generator: Adobe Illustrator 27.5.0, SVG Export Plug-In . SVG Version: 6.00 Build 0)  -->
<svg version="1.1" id="Layer_1" xmlns="http://www.w3.org/2000/svg" xmlns:xlink="http://www.w3.org/1999/xlink" x="0px" y="0px"
	 viewBox="0 0 24 24" style="enable-background:new 0 0 24 24;" xml:space="preserve">
<style type="text/css">
	.st0{fill:none;stroke:#767676;stroke-linecap:round;}
	.st1{fill:#767676;}
	.st2{fill:#888888;}
	.st3{fill:#707070;}
</style>
<path id="Iconly_Light_Notification_00000112613489176901342020000005142763003556001701_" class="st3" d="M12.5,19.2
	c-5.1,0-9.7-0.4-10.1-4.7c0-1.8,0.5-2.7,1-3.5c0.5-0.8,1-1.6,1-3.5c0-3.5,3.3-7.3,8.1-7.3c4.8,0,8.1,3.8,8.1,7.3
	c0,1.8,0.5,2.6,1,3.5c0.5,0.8,1,1.7,1,3.4C22.2,18.4,18.6,19.2,12.5,19.2z M12.5,1.8c-3.9,0-6.6,3.1-6.6,5.8c0,2.3-0.6,3.3-1.2,4.2
	c-0.5,0.8-0.8,1.4-0.8,2.7c0.2,2.4,2.3,3.2,8.6,3.2c7,0,8.4-1.2,8.6-3.3c0-1.2-0.4-1.8-0.8-2.6c-0.6-0.9-1.2-2-1.2-4.2
	C19.1,4.8,16.4,1.8,12.5,1.8z M12.8,23.8c1.1-0.1,2.1-0.6,2.9-1.5c0.3-0.3,0.2-0.8-0.1-1.1c-0.3-0.3-0.8-0.2-1.1,0.1
	c-0.5,0.6-1.1,0.9-1.8,1c-0.7,0.1-1.4-0.2-2-0.6c-0.1-0.1-0.2-0.2-0.4-0.4C10,21,9.6,20.9,9.3,21.2c-0.3,0.3-0.4,0.7-0.1,1.1
	c0.2,0.2,0.4,0.4,0.6,0.6c0.8,0.6,1.7,1,2.7,1C12.5,23.8,12.7,23.8,12.8,23.8z"/>
</svg>
