<?xml version="1.0" encoding="utf-8"?>
<!-- Generator: Adobe Illustrator 27.5.0, SVG Export Plug-In . SVG Version: 6.00 Build 0)  -->
<svg version="1.1" id="Layer_1" xmlns="http://www.w3.org/2000/svg" xmlns:xlink="http://www.w3.org/1999/xlink" x="0px" y="0px"
	 viewBox="0 0 24 24" style="enable-background:new 0 0 24 24;" xml:space="preserve">
<style type="text/css">
	.st0{fill:#FFFFFF;}
	.st1{fill:#888888;}
	.st2{fill:none;}
	.st3{clip-path:url(#SVGID_00000005249185297216152600000017030659449880366777_);}
</style>
<path id="Outline_00000016795076327486043270000004900663270693324717_" transform="translate(3 3)" class="st0" d="M13.6,2H2.7
	C1.8,2,1.1,2.7,1.1,3.6v10.9c0,0.9,0.7,1.6,1.6,1.6h10.9c0.9,0,1.6-0.7,1.6-1.6V3.6C15.1,2.7,14.4,2,13.6,2z M13.6,14.5H2.7v-3.6
	l0.8,0.8l3.1-3.1l3.1,3.1l3.1-3.1l0.8,0.8L13.6,14.5z M13.6,7.1l-0.8-0.8L9.7,9.5L6.6,6.4L3.5,9.5L2.7,8.7V3.6h10.9V7.1z"/>
</svg>
