<?xml version="1.0" encoding="utf-8"?>
<!-- Generator: Adobe Illustrator 27.5.0, SVG Export Plug-In . SVG Version: 6.00 Build 0)  -->
<svg version="1.1" id="Layer_1" xmlns="http://www.w3.org/2000/svg" xmlns:xlink="http://www.w3.org/1999/xlink" x="0px" y="0px"
	 viewBox="0 0 24 24" style="enable-background:new 0 0 24 24;" xml:space="preserve">
<style type="text/css">
	.st0{fill:none;stroke:#000000;stroke-width:1.5;stroke-linecap:round;stroke-linejoin:round;stroke-miterlimit:10;}
	.st1{fill:none;stroke:#000000;stroke-miterlimit:10;}
	.st2{fill:none;stroke:#000000;stroke-width:1.5;}
	.st3{fill:none;stroke:#000000;stroke-width:1.5;stroke-linecap:round;}
	.st4{fill:none;stroke:#FFFFFF;stroke-width:1.5;stroke-linecap:round;stroke-linejoin:round;stroke-miterlimit:10;}
</style>
<g id="Iconly_Light_Upload" transform="translate(0.75 0.75)">
	<g id="Upload" transform="translate(0 14.038) rotate(-90)">
		<path id="Stroke_1" class="st4" d="M4.8,7.9V7.2c0-1.5-1.2-2.7-2.7-2.7c0,0,0,0,0,0h-3.6c-1.5,0-2.7,1.2-2.7,2.7c0,0,0,0,0,0v8.1
			c0,1.5,1.2,2.7,2.7,2.7c0,0,0,0,0,0h3.6c1.5,0,2.7-1.2,2.7-2.7v-0.7"/>
		<path id="Stroke_3" class="st4" d="M9.8,11.3H0.9"/>
		<path id="Stroke_5" class="st4" d="M7.6,9.1l2.2,2.1l-2.2,2.1"/>
	</g>
</g>
</svg>
