<?xml version="1.0" encoding="utf-8"?>
<!-- Generator: Adobe Illustrator 27.5.0, SVG Export Plug-In . SVG Version: 6.00 Build 0)  -->
<svg version="1.1" id="Layer_1" xmlns="http://www.w3.org/2000/svg" xmlns:xlink="http://www.w3.org/1999/xlink" x="0px" y="0px"
	 viewBox="0 0 19.7 19.7" style="enable-background:new 0 0 19.7 19.7;" xml:space="preserve">
<style type="text/css">
	.st0{fill:none;stroke:#000000;stroke-width:1.5;stroke-linecap:round;stroke-linejoin:round;stroke-miterlimit:10;}
	.st1{fill:none;stroke:#000000;stroke-miterlimit:10;}
	.st2{fill:none;stroke:#000000;stroke-width:1.5;}
	.st3{fill:none;stroke:#000000;stroke-width:1.5;stroke-linecap:round;}
	.st4{fill:none;stroke:#FFFFFF;stroke-width:1.5;stroke-linecap:round;stroke-linejoin:round;stroke-miterlimit:10;}
</style>
<g id="Iconly_Light_Upload" transform="translate(0.75 0.75)">
	<g id="Upload" transform="translate(0 14.038) rotate(-90)">
		<path id="Stroke_1" class="st4" d="M7,5.7V5c0-1.5-1.2-2.7-2.7-2.7c0,0,0,0,0,0H0.7C-0.8,2.3-2,3.5-2.1,5c0,0,0,0,0,0v8.1
			c0,1.5,1.2,2.7,2.7,2.7c0,0,0,0,0,0h3.6c1.5,0,2.7-1.2,2.7-2.7v-0.7"/>
		<path id="Stroke_3" class="st4" d="M12,9.1H3.1"/>
		<path id="Stroke_5" class="st4" d="M9.8,6.9L12,9.1l-2.2,2.1"/>
	</g>
</g>
</svg>
