<?xml version="1.0" encoding="utf-8"?>
<!-- Generator: Adobe Illustrator 27.5.0, SVG Export Plug-In . SVG Version: 6.00 Build 0)  -->
<svg version="1.1" id="Layer_1" xmlns="http://www.w3.org/2000/svg" xmlns:xlink="http://www.w3.org/1999/xlink" x="0px" y="0px"
	 viewBox="0 0 235 245" style="enable-background:new 0 0 235 245;" xml:space="preserve">
<style type="text/css">
	.st0{fill:#FFFFFF;}
	.st1{fill:#707070;}
	.st2{fill:none;}
	.st3{fill:none;stroke:#D3D3D3;stroke-width:2;}
	.st4{fill:#FF0000;}
	.st5{fill:#EB2227;}
</style>
<g id="Ellipse_17" transform="translate(71 237)">
	<circle class="st2" cx="47" cy="-114" r="114"/>
	<circle class="st3" cx="47" cy="-114" r="113"/>
</g>
<g id="Mask_Group_5" transform="translate(-4 49)">
	<g id="Ellipse_16" transform="translate(74 187)">
		<g>
			<path class="st2" d="M141.7-48.4c0.1-0.1,0.2-0.3,0.3-0.4c0.4-0.6,0.9-1.3,1.3-1.9C142.8-50,142.3-49.2,141.7-48.4z"/>
			<path class="st2" d="M140.9-47.2c0.2-0.3,0.4-0.5,0.6-0.8c-0.1,0.1-0.1,0.2-0.2,0.3L140.9-47.2z"/>
			<path class="st2" d="M132.7-37c0.2-0.2,0.4-0.5,0.6-0.7c-0.1,0.1-0.2,0.2-0.3,0.3C132.9-37.2,132.8-37.1,132.7-37z"/>
			<path class="st2" d="M129.1-33.2c0.5-0.5,1-1,1.5-1.5c-0.1,0.1-0.2,0.3-0.4,0.4C129.8-33.9,129.4-33.5,129.1-33.2z"/>
			<path class="st2" d="M71-1.5c-0.1,0-0.2,0.1-0.3,0.1c0.3-0.1,0.6-0.1,1-0.2C71.4-1.6,71.2-1.5,71-1.5z"/>
			<path class="st2" d="M122-26.6c0.4-0.3,0.7-0.6,1-0.9c0.4-0.3,0.7-0.6,1.1-1c-0.2,0.2-0.4,0.4-0.7,0.6c-0.2,0.2-0.4,0.4-0.7,0.6
				C122.5-27,122.2-26.8,122-26.6z"/>
			<path class="st2" d="M115.9-21.8c0,0-0.1,0.1-0.1,0.1C115.9-21.7,115.9-21.7,115.9-21.8L115.9-21.8z"/>
			<path class="st2" d="M111.7-18.7c-1.5,1-3.1,2-4.6,3c0.5-0.3,1.1-0.7,1.7-1c0.6-0.3,1.1-0.7,1.6-1.1
				C110.8-18.2,111.2-18.4,111.7-18.7z"/>
			<path class="st2" d="M103-13.4c-0.1,0.1-0.3,0.2-0.5,0.3c1-0.5,1.9-1,2.8-1.6C104.6-14.3,103.8-13.9,103-13.4z"/>
			<path class="st2" d="M102.6-13.2c-1.3,0.7-2.7,1.4-4,2.1c0.6-0.3,1.2-0.6,1.7-0.9C101-12.3,101.8-12.8,102.6-13.2z"/>
			<path class="st2" d="M96.8-10.2c-0.8,0.4-1.6,0.7-2.4,1.1c1.4-0.6,2.8-1.3,4.1-1.9C98-10.8,97.4-10.5,96.8-10.2z"/>
			<path class="st2" d="M84.5-5.2c1.3-0.4,2.6-0.9,3.8-1.4c-0.2,0.1-0.3,0.1-0.5,0.2c-0.6,0.2-1.2,0.5-1.8,0.7
				C85.5-5.6,85-5.4,84.5-5.2z"/>
			<path class="st2" d="M91.5-7.8c-0.3,0.1-0.5,0.2-0.8,0.3c1.3-0.5,2.5-1,3.8-1.6C94.3-9,94.1-9,93.9-8.9
				C93.1-8.5,92.3-8.2,91.5-7.8z"/>
			<path class="st2" d="M88.3-6.6c0.8-0.3,1.6-0.6,2.3-0.9C89.9-7.2,89.1-6.9,88.3-6.6z"/>
			<path class="st2" d="M79.6-3.7c0,0-0.1,0-0.1,0l0,0C79.6-3.6,79.6-3.6,79.6-3.7z"/>
			<path class="st2" d="M60.4,0.2c0.7-0.1,1.4-0.2,2.1-0.3c-0.5,0.1-1,0.1-1.5,0.2C60.8,0.2,60.6,0.2,60.4,0.2z"/>
			<path class="st2" d="M56.4,0.7c0.2,0,0.5,0,0.7-0.1c-0.1,0-0.2,0-0.3,0C56.6,0.6,56.5,0.6,56.4,0.7z"/>
			<path class="st2" d="M43.2,0.9c0.3,0,0.6,0,1,0c-0.2,0-0.4,0-0.6,0C43.4,0.9,43.3,0.9,43.2,0.9z"/>
			<path class="st2" d="M39.9,0.8c0.8,0,1.5,0.1,2.3,0.1c0.2,0,0.3,0,0.5,0C41.8,0.9,40.8,0.8,39.9,0.8z"/>
			<path class="st2" d="M114.6-206.3c1.6,1.2,3.2,2.4,4.8,3.7C117.8-203.9,116.2-205.2,114.6-206.3z"/>
			<path class="st2" d="M109.5-209.8c1.7,1.1,3.4,2.3,5,3.4C112.9-207.5,111.2-208.7,109.5-209.8z"/>
			<path class="st2" d="M54.9-227.8c1.4,0.1,2.8,0.2,4.2,0.4C57.7-227.6,56.3-227.7,54.9-227.8z"/>
			<path class="st2" d="M-29.9-197.8c-0.2,0.2-0.4,0.3-0.6,0.5C-30.3-197.5-30.1-197.7-29.9-197.8z"/>
			<path class="st2" d="M-32.9-195c-0.7,0.7-1.3,1.3-2,2c0.4-0.4,0.8-0.8,1.2-1.2C-33.4-194.5-33.1-194.7-32.9-195z"/>
			<path class="st2" d="M-30.5-197.3c-0.8,0.8-1.6,1.5-2.4,2.3C-32.1-195.8-31.3-196.6-30.5-197.3z"/>
			<path class="st2" d="M30.9-226.8c-1.1,0.2-2.2,0.3-3.3,0.5C28.7-226.4,29.8-226.6,30.9-226.8z"/>
			<path class="st2" d="M27.6-226.2c-0.3,0-0.5,0.1-0.8,0.1C27.1-226.1,27.3-226.2,27.6-226.2z"/>
			<path class="st2" d="M-29.9-197.8c15.9-14.6,35.6-24.4,56.7-28.3C5.7-222.2-14-212.3-29.9-197.8z"/>
			<path class="st2" d="M33.6-227.2c-0.9,0.1-1.8,0.3-2.8,0.4c0.4-0.1,0.7-0.1,1.1-0.2C32.5-227,33.1-227.1,33.6-227.2z"/>
			<path class="st2" d="M-43.3-183.3c-0.1,0.1-0.1,0.2-0.2,0.2c0,0,0-0.1,0.1-0.1C-43.4-183.2-43.3-183.2-43.3-183.3z"/>
			<path class="st2" d="M-43.6-182.9C-43.5-183-43.5-183-43.6-182.9C-43.5-183-43.5-183-43.6-182.9L-43.6-182.9z"/>
			<path class="st2" d="M-67-112.6c0.2,22.5,7.1,44.2,19.3,62.5c7.7,11.7,17.6,21.9,29.4,30.2C-30.1-28.1-40-38.4-47.8-50
				C-60-68.4-66.8-90.1-67-112.6z"/>
			<path class="st2" d="M-66.5-124.8c-0.3,2.6-0.4,5.2-0.5,7.7C-66.9-119.7-66.7-122.2-66.5-124.8z"/>
			<path class="st2" d="M-58.2-148.9c19.5-58.3,82.8-89.8,141.1-70.3c23.7,7.9,43,23.1,56.2,42.3c19.3,27.9,25.7,64.3,14.1,98.8
				C133.7-19.8,70.4,11.7,12.1-7.8c-24.4-8.2-44.1-24-57.4-44C-63.7-79.4-69.6-115-58.2-148.9z"/>
			<path class="st2" d="M-50.4-172.8c0.7-1.2,1.5-2.4,2.3-3.6C-49-175.2-49.7-174-50.4-172.8z"/>
		</g>
		<g>
			<path class="st4" d="M-61.1-149.9c2.5-7.5,5.7-14.5,9.5-21.1c0.4-0.6,0.7-1.2,1.1-1.8c0.7-1.2,1.5-2.4,2.3-3.6
				c0.4-0.6,0.8-1.2,1.2-1.8c0.7-1,1.4-2,2.1-3c0.3-0.5,0.7-0.9,1-1.4c0.1-0.1,0.1-0.1,0.2-0.2c0,0,0.1-0.1,0.1-0.1l0,0
				c0,0,0-0.1,0-0.1c0,0,0,0,0,0c0.1-0.1,0.1-0.2,0.2-0.2c0.2-0.2,0.3-0.4,0.5-0.6c0,0,0-0.1,0.1-0.1c0.3-0.4,0.6-0.7,0.8-1.1
				c0.1-0.1,0.1-0.1,0.2-0.2c0.2-0.2,0.3-0.4,0.5-0.6c0.2-0.3,0.4-0.5,0.6-0.8c0.2-0.2,0.4-0.4,0.5-0.7c0.1-0.1,0.1-0.1,0.2-0.2
				c0.1-0.1,0.1-0.1,0.2-0.2c0,0,0,0,0,0c0,0,0.1-0.1,0.1-0.1c0,0,0.1-0.1,0.1-0.1c0.4-0.4,0.8-0.9,1.1-1.3c0.3-0.3,0.5-0.6,0.8-0.9
				c0.1-0.1,0.2-0.3,0.4-0.4c0,0,0.1-0.1,0.1-0.1c0,0,0,0,0.1-0.1c0.2-0.2,0.5-0.5,0.7-0.8c0.5-0.5,1-1.1,1.5-1.6
				c0.4-0.4,0.8-0.8,1.2-1.2C-16-212,7.2-223.5,32-226.9c0.6-0.1,1.1-0.1,1.7-0.2c0.7-0.1,1.4-0.2,2.2-0.2c0.4,0,0.7-0.1,1-0.1
				c0,0,0.1,0,0.1,0c0,0,0.1,0,0.1,0c0.2,0,0.4,0,0.5,0c0.4,0,0.8-0.1,1.2-0.1c0.6,0,1.1-0.1,1.7-0.1c0.1,0,0.1,0,0.2,0
				c0,0,0.1,0,0.1,0c0,0,0,0,0,0c0.1,0,0.2,0,0.3,0c0.1,0,0.2,0,0.3,0c0.3,0,0.6,0,0.9,0c0.3,0,0.7,0,1,0c0.3,0,0.5,0,0.8,0
				c0.1,0,0.2,0,0.3,0c0.4,0,0.9,0,1.4,0c0.1,0,0.2,0,0.3,0c0.1,0,0.1,0,0.2,0c0.1,0,0.2,0,0.4,0c0,0,0.1,0,0.1,0c0.2,0,0.3,0,0.5,0
				c0.1,0,0.2,0,0.3,0c0.6,0,1.2,0,1.7,0c1.2,0,2.5,0.1,3.7,0.1c0.7,0,1.4,0.1,2.1,0.1c1.4,0.1,2.8,0.2,4.2,0.4
				c0.7,0.1,1.4,0.1,2.1,0.2c7.6,0.9,15.1,2.6,22.6,5.1c6.6,2.2,12.8,4.9,18.7,8.1c1.5,0.8,3,1.7,4.4,2.5c0.9,0.5,1.7,1.1,2.6,1.6
				c1.7,1.1,3.4,2.3,5,3.4c0,0,0,0,0,0c1.6,1.2,3.2,2.4,4.8,3.7c0,0,0,0,0,0c0.5,0.4,1.1,0.9,1.6,1.3c7.9,6.7,14.9,14.3,20.7,22.7
				l-2.5,1.7c-13.2-19.2-32.5-34.4-56.2-42.3c-58.3-19.5-121.6,12-141.1,70.3c-11.4,33.9-5.4,69.5,13,97.2l-2.5,1.7
				C-59.9-68.4-66.8-90.1-67-112.6c0-1.5,0-3,0.1-4.5c0,0,0,0,0,0c0.1-2.6,0.3-5.2,0.5-7.7c0.1-0.9,0.2-1.7,0.3-2.6
				c0.1-0.9,0.2-1.8,0.4-2.7C-64.8-136.7-63.3-143.3-61.1-149.9z"/>
			<path class="st4" d="M-43.5-183C-43.5-183.1-43.4-183.1-43.5-183c0.1-0.1,0.1-0.2,0.2-0.2C-43.4-183.2-43.4-183.1-43.5-183z"/>
			<path class="st4" d="M130.2-34.3c-0.4,0.4-0.7,0.8-1.1,1.1c0.5-0.5,1-1,1.5-1.5C130.4-34.5,130.3-34.4,130.2-34.3z"/>
			<path class="st4" d="M123.5-27.9c-0.1,0.1-0.3,0.2-0.4,0.4c0.4-0.3,0.7-0.6,1.1-1C123.9-28.3,123.7-28.1,123.5-27.9z"/>
			<path class="st4" d="M122.8-27.3c-0.3,0.2-0.5,0.5-0.8,0.7c0.4-0.3,0.7-0.6,1-0.9C122.9-27.4,122.9-27.3,122.8-27.3z"/>
			<path class="st4" d="M71-1.5c-0.1,0-0.2,0.1-0.3,0.1c0.3-0.1,0.6-0.1,1-0.2C71.4-1.6,71.2-1.5,71-1.5z"/>
			<path class="st4" d="M60.4,0.2c0.7-0.1,1.4-0.2,2.1-0.3c-0.5,0.1-1,0.1-1.5,0.2C60.8,0.2,60.6,0.2,60.4,0.2z"/>
			<path class="st4" d="M132.7-37c0.2-0.2,0.4-0.5,0.6-0.7c-0.1,0.1-0.2,0.2-0.3,0.3C132.9-37.2,132.8-37.1,132.7-37z"/>
			<path class="st4" d="M56.4,0.7c0.2,0,0.5,0,0.7-0.1c-0.1,0-0.2,0-0.3,0C56.6,0.6,56.5,0.6,56.4,0.7z"/>
			<path class="st4" d="M140.9-47.2c0.2-0.3,0.4-0.5,0.6-0.8c-0.1,0.1-0.1,0.2-0.2,0.3L140.9-47.2z"/>
			<path class="st4" d="M43.2,0.9c0.3,0,0.6,0,1,0c-0.2,0-0.4,0-0.6,0C43.4,0.9,43.3,0.9,43.2,0.9z"/>
		</g>
	</g>
</g>
<g>
	<path class="st5" d="M168,130c-0.2-0.5-0.2-0.8,0.3-1.1c1.9-1.1,2.7-2.8,2.7-5c0-3.5,0-6.9,0-10.4c0-3.6-2.2-5.9-5.7-5.9
		c-4.7,0-9.5,0-14.2,0c-0.7,0-0.8,0.2-0.8,0.9c0,4.7,0,9.4,0,14.1c0,4.7,0,9.5,0,14.2c0,0.7,0.2,0.9,0.9,0.9c1.7,0,3.3,0,5,0
		c0.5,0,0.7,0,0.7,0l0.1-7.3c0-0.6,0.1-0.7,0.7-0.7c0.8,0,1.5,0.1,2.3,0c0.6,0,0.9,0.2,1.1,0.7c0.8,2.2,1.8,4.4,2.6,6.6
		c0.2,0.5,0.4,0.6,0.9,0.6c1.9,0,3.9,0,5.8,0c0.5,0,0.6-0.1,0.4-0.7C169.8,134.7,168.9,132.3,168,130z M164.3,121.3
		c0,0.9-0.5,1.4-1.4,1.4c-1.8,0-3.6,0-5.4,0c-0.5,0-0.5-0.2-0.5-0.6c0-1.2,0-2.3,0-3.5c0-1.2,0-2.3,0-3.5c0-0.4,0.1-0.6,0.5-0.6
		c1.8,0,3.6,0,5.3,0c0.9,0,1.4,0.5,1.4,1.4C164.3,117.8,164.3,119.5,164.3,121.3z"/>
	<path class="st5" d="M135,108.1c-0.1-0.3-0.3-0.5-0.6-0.5H129c-0.3,0-0.6,0.2-0.6,0.5l-8.1,29.5h6.8l4.6-17.7l3.1,11.7h-2.3
		c-0.4,0-0.7,0.3-0.7,0.7v5.4h11.4l0,0h0L135,108.1z"/>
	<path class="st5" d="M112,107.6h-19v30.7h20.3v-6.8h-12.8v-5.3h9.8v-6.8h-9.8v-5.1h12.8V109C113.2,108.2,112.7,107.6,112,107.6z"/>
	<path class="st5" d="M85.7,119.8c0-0.4-0.1-0.6-0.6-0.6c-3.1,0-6.2,0-9.3,0c-0.4,0-0.5,0.2-0.5,0.6c0,1.9,0,3.8,0,5.7
		c0,0.5,0.2,0.7,0.7,0.6c0.8,0,1.6,0,2.5,0c0.5,0,0.6,0.1,0.6,0.6c0,1.1,0,2.3,0,3.4c0,0.5-0.1,0.7-0.7,0.7c-2,0-3.9,0-5.9,0
		c-0.7,0-0.8-0.2-0.8-0.9c0-4.8,0-9.6,0-14.5c0-0.8,0.3-1,1-1c4,0,8.1,0,12.1,0c0.8,0,1-0.3,1-1.1c-0.1-1.7,0-3.4,0-5
		c0-0.7-0.2-0.9-0.9-0.9c-4.7,0-9.4,0-14.1,0c-3.6,0-5.7,2.2-5.7,5.9c0,3.1,0,6.1,0,9.2c0,3.2,0,6.4,0,9.6c0,3.1,2.2,5.3,5.2,5.4
		c3.4,0,6.9,0,10.3,0h5.2v-12.9h0C85.7,123.1,85.7,121.4,85.7,119.8z"/>
</g>
</svg>
