<?xml version="1.0" encoding="utf-8"?>
<!-- Generator: Adobe Illustrator 27.5.0, SVG Export Plug-In . SVG Version: 6.00 Build 0)  -->
<svg version="1.1" id="Layer_1" xmlns="http://www.w3.org/2000/svg" xmlns:xlink="http://www.w3.org/1999/xlink" x="0px" y="0px"
	 viewBox="0 0 243.4 207.1" style="enable-background:new 0 0 243.4 207.1;" xml:space="preserve">
<style type="text/css">
	.st0{fill:#FFFFFF;}
	.st1{opacity:6.000000e-02;}
</style>
<path class="st1" d="M83.9,207.1H69l-1-1l7.1-7.6L83.9,207.1z M144.6,126.9l-32.2-31l-47.5,47.5l-8-8.1c-0.4-0.5-0.4-1.2,0-1.7
	L122.5,68l39.7,39.7l27.7,27.7c0.5,0.5,0.5,1.2,0,1.7l-65.6,65.7l-13.8-13.8l-8.4,8.4l9.7,9.7h25l61.6-61.6c5.1-5.1,5.1-13.4,0-18.5
	l-28.7-26.8l23.1-23.1L121.6,6L99.4,28.2l8.4,8.4l13.7-13.7l55,54.3l-13.7,13.7l-40.4-39.8l-73.9,73.9c-5,5.1-5.1,13.3-0.1,18.4
	l16.4,16.7l47.7-47.7l15.2,14.4l-61.1,61.1L17,139.3c-3.2-3.3-3.2-8.5,0-11.8l74-74L82.6,45l-74,74c-7.9,7.9-7.9,20.7,0,28.6
	L66.5,205L144.6,126.9z M235.7,120.2l-27.8-27.8l-8.4,8.4l27.8,27.8c3.3,3.3,3.3,8.5,0,11.8l-66.6,66.6h16.8l58.2-58.2
	C243.6,140.9,243.6,128.1,235.7,120.2z"/>
</svg>
