<svg xmlns="http://www.w3.org/2000/svg" width="239" height="255.791" viewBox="0 0 239 255.791">
  <g id="logo_symbol_back" data-name="logo symbol_back" transform="translate(-118.368 -108.438)">
    <path id="Path_2961" data-name="Path 2961" d="M228.075,198.259l-47.467,47.467-7.955-8.13a1.194,1.194,0,0,1,.009-1.673l65.514-65.514,39.668,39.654,30.543-30.543-71.093-71.082-22.122,22.123,8.421,8.42,13.7-13.7,54.992,54.333-13.7,13.7-40.408-39.746L164.242,227.5a13.142,13.142,0,0,0-.1,18.424l16.374,16.732L228.174,215l15.2,14.364-61.148,61.147-49.516-48.858a8.346,8.346,0,0,1,0-11.789l74.043-74.042L198.33,147.4l-74.042,74.043a20.268,20.268,0,0,0,0,28.63l57.936,57.279,78.087-78.087Z" fill="rgba(31,31,31,0.06)"/>
    <g id="Group_256" data-name="Group 256" transform="translate(312.044 191.609)">
      <path id="Path_2962" data-name="Path 2962" d="M332.066,200.207" transform="translate(-332.066 -200.207)" fill="rgba(31,31,31,0.06)"/>
    </g>
    <g id="Group_257" data-name="Group 257" transform="translate(170.447 194.792)">
      <path id="Path_2963" data-name="Path 2963" d="M258.045,351.712l-14.22,14.22-47.7-46.559h0l-7.059,7.581,54.761,55.82,22.641-22.641Z" transform="translate(-175.831 -213.336)" fill="rgba(31,31,31,0.06)"/>
      <path id="Path_2964" data-name="Path 2964" d="M358.652,251.729l-73.525,73.525,8.421,8.42,73.525-73.525a20.267,20.267,0,0,0,0-28.63l-27.8-27.8-8.421,8.42,27.8,27.8A8.346,8.346,0,0,1,358.652,251.729Z" transform="translate(-186.071 -203.719)" fill="rgba(31,31,31,0.06)"/>
    </g>
    <g id="Group_258" data-name="Group 258" transform="translate(217.669 190.615)">
      <path id="Path_2965" data-name="Path 2965" d="M250.171,330.453l-22.236-22.237,8.42-8.421,13.816,13.816,65.648-65.648a1.192,1.192,0,0,0,0-1.684l-27.491-28.051,7.42-7.134,28.491,26.765a13.115,13.115,0,0,1,0,18.526Z" transform="translate(-227.935 -199.111)" fill="rgba(31,31,31,0.06)"/>
    </g>
  </g>
</svg>
