<?xml version="1.0" encoding="utf-8"?>
<!-- Generator: Adobe Illustrator 27.5.0, SVG Export Plug-In . SVG Version: 6.00 Build 0)  -->
<svg version="1.1" id="Layer_1" xmlns="http://www.w3.org/2000/svg" xmlns:xlink="http://www.w3.org/1999/xlink" x="0px" y="0px"
	 viewBox="0 0 24 24" style="enable-background:new 0 0 24 24;" xml:space="preserve">
<style type="text/css">
	.st0{fill:none;stroke:#FFFFFF;stroke-width:1.5;stroke-linecap:round;stroke-linejoin:round;stroke-miterlimit:10;}
	.st1{fill:none;stroke:#FFFFFF;stroke-miterlimit:10;}
	.st2{fill:none;stroke:#FFFFFF;stroke-width:1.5;}
	.st3{fill:none;stroke:#FFFFFF;stroke-width:1.5;stroke-linecap:round;}
</style>
<g id="Iconly_Light_Home_00000093896671245090293730000008729394151477668239_" transform="translate(0.75 0.868)">
	<g id="Home_00000038408691212145899200000005256053559806833561_">
		<path id="Home-2_00000122700358486849267820000009804222938310622388_" class="st0" d="M8.4,19.9v-3.1c0-0.8,0.6-1.4,1.4-1.4h2.9
			c0.8,0,1.4,0.6,1.4,1.4c0,0,0,0,0,0l0,0v3.1c0,0.7,0.5,1.2,1.2,1.2h1.9c1.9,0,3.5-1.5,3.5-3.4c0,0,0,0,0,0l0,0V9
			c0-0.7-0.4-1.4-1-1.9l-6.6-5.3c-1.2-0.9-2.8-0.9-3.9,0L2.7,7.1c-0.6,0.5-1,1.2-1,1.9v8.7c0,1.9,1.6,3.4,3.5,3.4c0,0,0,0,0,0h1.9
			C7.8,21.1,8.4,20.6,8.4,19.9C8.4,19.9,8.4,19.9,8.4,19.9L8.4,19.9"/>
	</g>
</g>
</svg>
