<?xml version="1.0" encoding="utf-8"?>
<!-- Generator: Adobe Illustrator 27.5.0, SVG Export Plug-In . SVG Version: 6.00 Build 0)  -->
<svg version="1.1" id="Layer_1" xmlns="http://www.w3.org/2000/svg" xmlns:xlink="http://www.w3.org/1999/xlink" x="0px" y="0px"
	 viewBox="0 0 24 24" style="enable-background:new 0 0 24 24;" xml:space="preserve">
<style type="text/css">
	.st0{fill:none;stroke:#FFFFFF;stroke-width:1.5;stroke-linecap:round;stroke-linejoin:round;stroke-miterlimit:10;}
	.st1{fill:none;stroke:#FFFFFF;stroke-miterlimit:10;}
	.st2{fill:none;stroke:#FFFFFF;stroke-width:1.5;}
	.st3{fill:none;stroke:#FFFFFF;stroke-width:1.5;stroke-linecap:round;}
</style>
<g id="Group_734" transform="translate(172.891 -1235.377)">
	<g id="Rectangle_561" transform="translate(-172.75 1240)">
		<path class="st1" d="M1.9,2.3h20l0,0v10c0,3.3-2.7,6-6,6h-8c-3.3,0-6-2.7-6-6V2.3L1.9,2.3z"/>
		<path class="st2" d="M2.6,3.1h18.5l0,0v9.2c0,2.9-2.4,5.3-5.2,5.3h-8c-2.9,0-5.2-2.4-5.2-5.3V3.1L2.6,3.1z"/>
	</g>
	<path id="Path_3754" class="st2" d="M-170.5,1242.6l3.6-4.2h12l3.7,4.2"/>
	<path id="Path_3757" class="st3" d="M-163.6,1246.7h6"/>
</g>
</svg>
