<?xml version="1.0" encoding="utf-8"?>
<!-- Generator: Adobe Illustrator 27.5.0, SVG Export Plug-In . SVG Version: 6.00 Build 0)  -->
<svg version="1.1" id="Layer_1" xmlns="http://www.w3.org/2000/svg" xmlns:xlink="http://www.w3.org/1999/xlink" x="0px" y="0px"
	 viewBox="0 0 86 92" style="enable-background:new 0 0 86 92;" xml:space="preserve">
<style type="text/css">
	.st0{fill:#FFFFFF;}
	.st1{fill:#707070;}
</style>
<path id="Group_451" transform="translate(-39.871 -224.522)" class="st1" d="M117.1,259v0.3c0.2,0,0.3,0,0.5,0.1L117.1,259z
	 M117.1,259v0.3c0.2,0,0.3,0,0.5,0.1L117.1,259z M119.1,258.2c0,0-0.1-0.1-0.2-0.2l0,0l-27-27.8c-0.5-0.9-1.4-1.4-2.5-1.5H67.9
	c-10.6,0.1-19.2,8.8-19.2,19.4V292c0,11.1,9,20.1,20,20.2h32.1c5.1,0,10-2,13.6-5.7c3.6-3.6,5.6-8.5,5.6-13.6v-32.7
	C119.9,259.4,119.7,258.7,119.1,258.2z M92.3,233.5l23.2,23.9c-0.5,0-0.9,0-1.3,0c-0.8,0-1.5,0-2.1,0c-0.8,0-1.7,0-2.8,0
	c-1.3,0-2.8,0-4.6,0c-6.9-0.1-12.5-5.7-12.5-12.6V233.5z M117.9,293c0,4.6-1.8,8.9-5,12.2c-3.2,3.3-7.5,5.1-12.1,5.1H68.7
	c-10-0.1-18.1-8.2-18-18.2v-43.9c0-9.5,7.7-17.3,17.2-17.4h21.5c0.3,0,0.6,0.2,0.8,0.5c0,0,0,0.1,0,0.1c0,0.1,0,0.2,0,0.3v13.1
	c0,8,6.5,14.5,14.5,14.6c1.7,0,3.2,0,4.6,0c1,0,2,0,2.8,0c0.6,0,1.3,0,2.1,0c1,0,2,0,2.9,0v-1l0,0.7l0.5,0.5l0.1,0.1c0,0,0,0,0,0
	c0.2,0.1,0.2,0.4,0.2,0.6V293z M90.2,231.4L90.2,231.4L90.2,231.4C90.2,231.3,90.2,231.3,90.2,231.4z M117.1,259L117.1,259l0-0.7
	L117.1,259z M91.4,275.7h-5v5c0,1.2-0.9,2.1-2.1,2.1c0,0,0,0,0,0c-1.2,0-2.1-1-2.2-2.1v-5h-4.9c-1.2,0-2.2-1-2.2-2.2
	c0-1.2,1-2.2,2.2-2.2h4.9v-5c0-1.2,1-2.1,2.2-2.1c1.2,0,2.1,1,2.1,2.1c0,0,0,0,0,0v5h5c1.2,0,2.2,1,2.2,2.2
	C93.5,274.7,92.6,275.7,91.4,275.7L91.4,275.7z"/>
</svg>
