<svg xmlns="http://www.w3.org/2000/svg" width="71.257" height="83.479" viewBox="0 0 71.257 83.479">
  <g id="NEW_FOAM_ICON" data-name="NEW FOAM_ICON" transform="translate(-39.871 -224.522)">
    <g id="Group_450" data-name="Group 450" transform="translate(-112 34)">
      <path id="Fill_3" data-name="Fill 3" d="M67.442,28.6c-1.734,0-3.792.041-5.042.041-1.855,0-4.276-.041-7.341-.041A13.643,13.643,0,0,1,41.586,14.992V1.874A1.86,1.86,0,0,0,39.731,0H18.192A18.313,18.313,0,0,0,0,18.373V62.29A19.135,19.135,0,0,0,19.039,81.479H51.106A18.209,18.209,0,0,0,69.257,63.187V30.432A1.817,1.817,0,0,0,67.442,28.6" transform="translate(152.871 191.522)" fill="none" stroke="#707070" stroke-width="2"/>
      <path id="Path_2953" data-name="Path 2953" d="M424.527,1330.522l27.5,28.276" transform="translate(-230.459 -1138.155)" fill="none" stroke="#707070" stroke-width="2"/>
      <rect id="Rectangle_218" data-name="Rectangle 218" width="32" height="32" transform="translate(170 220)" fill="none"/>
    </g>
    <path id="Path" d="M16.317,11.47H11.356V16.48a2.128,2.128,0,0,1-2.122,2.143A2.152,2.152,0,0,1,7.083,16.48V11.47H2.151a2.158,2.158,0,0,1,0-4.316H7.083V2.143A2.152,2.152,0,0,1,9.234,0a2.128,2.128,0,0,1,2.122,2.143V7.154h4.961a2.158,2.158,0,0,1,0,4.316" transform="translate(66.266 259.963)" fill="#707070"/>
  </g>
</svg>
