<?xml version="1.0" encoding="utf-8"?>
<!-- Generator: Adobe Illustrator 27.5.0, SVG Export Plug-In . SVG Version: 6.00 Build 0)  -->
<svg version="1.1" id="Layer_1" xmlns="http://www.w3.org/2000/svg" xmlns:xlink="http://www.w3.org/1999/xlink" x="0px" y="0px"
	 viewBox="0 0 98.4 105.3" style="enable-background:new 0 0 98.4 105.3;" xml:space="preserve">
<style type="text/css">
	.st0{fill:#FFFFFF;}
	.st1{fill:none;}
	.st2{fill:none;stroke:#D3D3D3;stroke-width:2;}
	.st3{fill:#FF0000;}
	.st4{fill:#EB2227;}
</style>
<path id="Group_451_00000140723551349476326910000001799179804515427998_" transform="translate(-39.871 -224.522)" class="st0" d="
	M126,264.7v0.4c0.2,0,0.3,0.1,0.5,0.2L126,264.7z M126,264.7v0.4c0.2,0,0.3,0.1,0.5,0.2L126,264.7z M128.2,263.8
	c-0.1-0.1-0.1-0.1-0.2-0.2l0,0l-29.3-30.1c-0.5-0.9-1.5-1.6-2.7-1.6H72.7c-11.5,0.1-20.8,9.5-20.8,21v47.5c0,12,9.7,21.8,21.7,21.9
	h34.7c5.6,0,10.8-2.2,14.7-6.1c3.9-3.9,6.1-9.2,6.1-14.7V266C129.1,265.2,128.8,264.4,128.2,263.8z M99.1,237l25.2,25.9
	c-0.5,0-1,0-1.4,0c-0.9,0-1.7,0-2.3,0c-0.9,0-1.9,0-3,0c-1.4,0-3.1,0-4.9,0c-7.4-0.1-13.5-6.2-13.5-13.6V237z M126.9,301.5
	c0,5-1.9,9.7-5.4,13.2c-3.5,3.5-8.2,5.5-13.1,5.5H73.6c-10.8-0.1-19.6-8.9-19.5-19.7v-47.5c0-10.3,8.3-18.7,18.6-18.8H96
	c0.4,0,0.7,0.2,0.8,0.6c0,0,0,0.1,0,0.1c0,0.1,0.1,0.2,0.1,0.3v14.2c0,8.6,7,15.7,15.7,15.8c1.9,0,3.5,0,4.9,0c1.1,0,2.1,0,3,0
	c0.6,0,1.4,0,2.3,0c1,0,2.1,0,3.2,0V264l0,0.7l0.5,0.5l0.1,0.1c0,0,0,0,0,0c0.2,0.2,0.3,0.4,0.3,0.6V301.5z M96.9,234.8L96.9,234.8
	l0-0.1C96.9,234.7,96.9,234.7,96.9,234.8z M126,264.7L126,264.7l0-0.7L126,264.7z M98.2,282.7h-5.4v5.4c0,1.3-1,2.3-2.3,2.3
	c0,0,0,0,0,0c-1.3,0-2.3-1-2.3-2.3v-5.4h-5.3c-1.3,0-2.3-1-2.3-2.3s1-2.3,2.3-2.3h5.3v-5.4c0-1.3,1-2.3,2.3-2.3c1.3,0,2.3,1,2.3,2.3
	c0,0,0,0,0,0v5.4h5.4c1.3,0,2.3,1,2.3,2.3C100.5,281.7,99.5,282.7,98.2,282.7L98.2,282.7z"/>
</svg>
