<svg id="outline-broken_image-24px" xmlns="http://www.w3.org/2000/svg" width="20" height="20" viewBox="0 0 20 20">
  <g id="Bounding_Boxes">
    <path id="Path_3008" data-name="Path 3008" d="M0,0H20V20H0Z" fill="none"/>
  </g>
  <g id="Outline_1_" transform="translate(3 3)">
    <path id="Path_3009" data-name="Path 3009" d="M15.444,3H4.556A1.56,1.56,0,0,0,3,4.556V15.444A1.56,1.56,0,0,0,4.556,17H15.444A1.56,1.56,0,0,0,17,15.444V4.556A1.56,1.56,0,0,0,15.444,3Zm0,12.444H4.556V11.882l.77.77L8.437,9.541l3.111,3.111,3.111-3.1.786.786Zm0-7.319-.786-.786-3.111,3.119L8.437,7.348,5.326,10.459l-.77-.778V4.556H15.444Z" transform="translate(-3 -3)" fill="#1f1f1f"/>
  </g>
</svg>
