<svg id="outline-cancel-24px" xmlns="http://www.w3.org/2000/svg" width="20" height="20" viewBox="0 0 20 20">
  <g id="Bounding_Boxes">
    <path id="Path_3343" data-name="Path 3343" d="M0,0H20V20H0Z" fill="none" opacity="0.87"/>
  </g>
  <g id="Outline_1_" transform="translate(2 2)">
    <g id="Group_339" data-name="Group 339">
      <path id="Path_3344" data-name="Path 3344" d="M10,2a8,8,0,1,0,8,8A7.993,7.993,0,0,0,10,2Zm0,14.4A6.4,6.4,0,1,1,16.4,10,6.408,6.408,0,0,1,10,16.4Z" transform="translate(-2 -2)" fill="#888"/>
      <path id="Path_3345" data-name="Path 3345" d="M15.59,7,12,10.59,8.41,7,7,8.41,10.59,12,7,15.59,8.41,17,12,13.41,15.59,17,17,15.59,13.41,12,17,8.41Z" transform="translate(-4 -4)" fill="#888"/>
    </g>
  </g>
</svg>
