<svg id="outline-local_offer-24px" xmlns="http://www.w3.org/2000/svg" width="20" height="20" viewBox="0 0 20 20">
  <g id="Bounding_Boxes">
    <path id="Path_3270" data-name="Path 3270" d="M0,0H20V20H0Z" fill="none"/>
  </g>
  <g id="Outline" transform="translate(2 2)">
    <g id="Group_322" data-name="Group 322">
      <path id="Path_3271" data-name="Path 3271" d="M17.528,9.664l-7.2-7.2A1.59,1.59,0,0,0,9.2,2H3.6A1.6,1.6,0,0,0,2,3.6V9.2a1.6,1.6,0,0,0,.472,1.136l7.2,7.2A1.59,1.59,0,0,0,10.8,18a1.564,1.564,0,0,0,1.128-.472l5.6-5.6A1.564,1.564,0,0,0,18,10.8,1.616,1.616,0,0,0,17.528,9.664ZM10.8,16.408,3.6,9.2V3.6H9.2V3.592l7.2,7.2Z" transform="translate(-2 -2)" fill="#888"/>
      <circle id="Ellipse_123" data-name="Ellipse 123" cx="1.5" cy="1.5" r="1.5" transform="translate(2.294 2.294)" fill="#888"/>
    </g>
  </g>
</svg>
