<svg id="outline-photo_camera-24px" xmlns="http://www.w3.org/2000/svg" width="21.353" height="21.353" viewBox="0 0 21.353 21.353">
  <g id="Bounding_Boxes">
    <path id="Path_3111" data-name="Path 3111" d="M0,0H21.353V21.353H0Z" fill="none"/>
  </g>
  <g id="Outline" transform="translate(1.518 1.518)">
    <g id="Group_279" data-name="Group 279">
      <path id="XMLID_34_" d="M13.1,3.518l1.676,1.518h3.709v9.106H3.832V5.035H7.541L9.217,3.518H13.1M13.906,2h-5.5L6.735,3.518h-2.9A1.7,1.7,0,0,0,2,5.035v9.106A1.7,1.7,0,0,0,3.832,15.66H18.486a1.7,1.7,0,0,0,1.832-1.518V5.035a1.7,1.7,0,0,0-1.832-1.518h-2.9L13.906,2Z" transform="translate(-2 -2)" fill="#fff"/>
      <path id="XMLID_31_" d="M10.794,8.518a2.277,2.277,0,1,1-2.277,2.277,2.283,2.283,0,0,1,2.277-2.277m0-1.518a3.794,3.794,0,1,0,3.794,3.794A3.8,3.8,0,0,0,10.794,7Z" transform="translate(-1.636 -3.206)" fill="#fff"/>
    </g>
  </g>
</svg>
