<svg id="outline-place-24px" xmlns="http://www.w3.org/2000/svg" width="20" height="20" viewBox="0 0 20 20">
  <g id="Bounding_Boxes">
    <path id="Path_3314" data-name="Path 3314" d="M0,0H20V20H0Z" fill="none"/>
  </g>
  <g id="Outline" transform="translate(3 2)">
    <g id="Group_333" data-name="Group 333">
      <path id="Path_3315" data-name="Path 3315" d="M12,2C8.13,2,5,4.5,5,7.6,5,11.8,12,18,12,18s7-6.2,7-10.4C19,4.5,15.87,2,12,2ZM7,7.6c0-2.208,2.24-4,5-4s5,1.792,5,4c0,2.3-2.88,5.752-5,7.9C9.92,13.368,7,9.88,7,7.6Z" transform="translate(-5 -2)" fill="#888"/>
      <circle id="Ellipse_127" data-name="Ellipse 127" cx="2.5" cy="2.5" r="2.5" transform="translate(4.5 3.3)" fill="#888"/>
    </g>
  </g>
</svg>
