<?xml version="1.0" encoding="utf-8"?>
<!-- Generator: Adobe Illustrator 27.5.0, SVG Export Plug-In . SVG Version: 6.00 Build 0)  -->
<svg version="1.1" id="Layer_1" xmlns="http://www.w3.org/2000/svg" xmlns:xlink="http://www.w3.org/1999/xlink" x="0px" y="0px"
	 viewBox="0 0 24 24" style="enable-background:new 0 0 24 24;" xml:space="preserve">
<style type="text/css">
	.st0{fill:none;stroke:#767676;stroke-linecap:round;}
	.st1{fill:#767676;}
	.st2{fill:#888888;}
	.st3{fill:#707070;}
</style>
<path id="Group_734" transform="translate(172.891 -1235.377)" class="st3" d="M-154.6,1237.7h-12.6l-4.2,4.1v10.5
	c0,3.6,2.9,6.5,6.5,6.5h8c3.6,0,6.5-2.9,6.5-6.5v-10.5L-154.6,1237.7z M-166.6,1239.2h11.3l2.7,2.6h-16.7L-166.6,1239.2z
	 M-152.4,1252.3c0,2.5-2,4.5-4.5,4.5h-8c-2.5,0-4.5-2-4.5-4.5v-8.5h17V1252.3z M-151.4,1242.9L-151.4,1242.9L-151.4,1242.9
	L-151.4,1242.9L-151.4,1242.9z M-151.5,1242.8L-151.5,1242.8l0.1,0.1v-0.1H-151.5z M-171.4,1241.8L-171.4,1241.8L-171.4,1241.8
	L-171.4,1241.8z M-151.5,1242.8h0.1v0.1L-151.5,1242.8L-151.5,1242.8z M-150.4,1241.8L-150.4,1241.8L-150.4,1241.8L-150.4,1241.8z
	 M-157.6,1247.4h-6c-0.4,0-0.8-0.3-0.8-0.8s0.3-0.8,0.8-0.8h6c0.4,0,0.8,0.3,0.8,0.8S-157.2,1247.4-157.6,1247.4z"/>
</svg>
