<?xml version="1.0" encoding="utf-8"?>
<!-- Generator: Adobe Illustrator 27.5.0, SVG Export Plug-In . SVG Version: 6.00 Build 0)  -->
<svg version="1.1" id="Layer_1" xmlns="http://www.w3.org/2000/svg" xmlns:xlink="http://www.w3.org/1999/xlink" x="0px" y="0px"
	 viewBox="0 0 24 24" style="enable-background:new 0 0 24 24;" xml:space="preserve">
<style type="text/css">
	.st0{fill:#FFFFFF;}
	.st1{fill:#888888;}
	.st2{fill:none;}
	.st3{clip-path:url(#SVGID_00000132076410883260276720000017584287386185920903_);}
</style>
<path class="st0" d="M17.8,4.8H6.9c-0.9,0-1.6,0.7-1.6,1.6c0,0,0,0,0,0v10.9c0,0.9,0.7,1.6,1.6,1.6c0,0,0,0,0,0h10.9
	c0.9,0,1.6-0.7,1.6-1.6V6.4C19.4,5.5,18.7,4.8,17.8,4.8z M17.8,17.3H6.9V6.4h10.9V17.3z M11.8,14.8H13v-2.4h2.4v-1.2H13V8.8h-1.2
	v2.4H9.4v1.2h2.4V14.8z"/>
</svg>
