<svg id="support" xmlns="http://www.w3.org/2000/svg" width="17" height="17" viewBox="0 0 17 17">
  <rect id="Boundary" width="16" height="16" fill="none"/>
  <g id="icon" transform="translate(1 1)" fill="none">
    <path d="M8.1,1.381a4.761,4.761,0,0,0-5.435-.9L5.836,3.639,3.645,5.824.474,2.663A4.735,4.735,0,0,0,6.421,9.152l6.655,6.635a.729.729,0,0,0,1.03,0l1.68-1.675a.724.724,0,0,0,0-1.027L9.16,6.472A4.729,4.729,0,0,0,8.1,1.381Z" stroke="none"/>
    <path d="M 4.749767303466797 1.9073486328125e-06 L 4.749787330627441 1.000001907348633 L 4.749687194824219 1.000001907348633 C 4.702548027038574 1.000001907348633 4.65543270111084 1.000895500183105 4.608328819274902 1.00267505645752 L 7.252596855163574 3.638821601867676 L 3.644556999206543 7.235781669616699 L 1.003223419189453 4.602563858032227 C 0.9694862365722656 5.615299224853516 1.347258567810059 6.622389793395996 2.09317684173584 7.366022109985352 C 2.798147201538086 8.068821907043457 3.738757133483887 8.45587158203125 4.741757392883301 8.45587158203125 C 5.19849681854248 8.45587158203125 5.645087242126465 8.375142097473145 6.069147109985352 8.215921401977539 L 6.67121696472168 7.989851951599121 L 13.59100723266602 14.88838768005371 L 14.88506126403809 13.59829998016357 L 7.989047050476074 6.71589183807373 L 8.229947090148926 6.10505199432373 C 8.777366638183594 4.717001914978027 8.449586868286133 3.140711784362793 7.3948974609375 2.089262008666992 C 6.690347671508789 1.386872291564941 5.75098705291748 1.000031471252441 4.749847412109375 1.000001907348633 L 4.749767303466797 1.9073486328125e-06 M 4.74989128112793 -9.5367431640625e-07 C 5.963166236877441 4.38690185546875e-05 7.176797866821289 0.4597969055175781 8.100917816162109 1.381072044372559 C 9.481657028198242 2.757572174072266 9.832326889038086 4.767702102661133 9.16021728515625 6.471931457519531 L 15.7863073348999 13.08495140075684 C 16.07122802734375 13.36899185180664 16.07122802734375 13.82782173156738 15.7863073348999 14.11186218261719 L 14.10604763031006 15.78697204589844 C 13.82112693786621 16.07101249694824 13.36088752746582 16.07101249694824 13.07596778869629 15.78697204589844 L 6.420657157897949 9.152101516723633 C 4.733078002929688 9.785732269287109 2.745977401733398 9.428861618041992 1.387157440185547 8.074212074279785 C -0.0812530517578125 6.610311508178711 -0.3807735443115234 4.432682037353516 0.4739675521850586 2.66289234161377 L 3.644556999206543 5.823741912841797 L 5.836207389831543 3.638821601867676 L 2.665616989135742 0.4779720306396484 C 3.32093334197998 0.1594209671020508 4.035293579101562 -2.6702880859375e-05 4.74989128112793 -9.5367431640625e-07 Z" stroke="none" fill="#767676"/>
  </g>
</svg>
