<?xml version="1.0" encoding="utf-8"?>
<!-- Generator: Adobe Illustrator 27.5.0, SVG Export Plug-In . SVG Version: 6.00 Build 0)  -->
<svg version="1.1" id="Layer_1" xmlns="http://www.w3.org/2000/svg" xmlns:xlink="http://www.w3.org/1999/xlink" x="0px" y="0px"
	 viewBox="0 0 24 24" style="enable-background:new 0 0 24 24;" xml:space="preserve">
<style type="text/css">
	.st0{fill:#FFFFFF;}
	.st1{fill:#888888;}
	.st2{fill:none;}
	.st3{clip-path:url(#SVGID_00000176726228475858977430000009089579565300735148_);}
	.st4{fill:#BDCCD4;}
</style>
<path id="Group_13_00000106825921762597690400000001767886658211143058_" transform="translate(-177 -2224)" d="M197,2231.1
	l-3.7-3.1l-1,1.2l3.7,3.1L197,2231.1z M185.7,2229.3l-1-1.2l-3.7,3l1,1.2L185.7,2229.3z M189.4,2233h-1.2v4.8l3.8,2.3l0.6-1
	l-3.2-1.9V2233z M189,2229.8c-4,0-7.2,3.2-7.2,7.2s3.2,7.2,7.2,7.2s7.2-3.2,7.2-7.2c0,0,0,0,0,0C196.2,2233,193,2229.8,189,2229.8
	C189,2229.8,189,2229.8,189,2229.8z M189,2242.6c-3.1,0-5.6-2.5-5.6-5.6c0-3.1,2.5-5.6,5.6-5.6c3.1,0,5.6,2.5,5.6,5.6c0,0,0,0,0,0
	C194.6,2240.1,192.1,2242.6,189,2242.6C189,2242.6,189,2242.6,189,2242.6z"/>
</svg>
